<svg xmlns="http://www.w3.org/2000/svg" width="20" height="20" viewBox="0 0 20 20">
  <path id="Icon_awesome-line" data-name="Icon awesome-line" d="M12.147,9.937v3.174a.141.141,0,0,1-.143.143H11.5a.148.148,0,0,1-.116-.058L9.924,11.232v1.884a.141.141,0,0,1-.143.143H9.272a.141.141,0,0,1-.143-.143V9.942A.141.141,0,0,1,9.272,9.8h.5a.135.135,0,0,1,.116.063l1.455,1.964V9.942a.141.141,0,0,1,.143-.143H12a.141.141,0,0,1,.147.138ZM8.487,9.795H7.978a.141.141,0,0,0-.143.143v3.174a.141.141,0,0,0,.143.143h.509a.141.141,0,0,0,.143-.143V9.937A.144.144,0,0,0,8.487,9.795ZM7.259,12.455H5.871V9.937a.141.141,0,0,0-.143-.143H5.219a.141.141,0,0,0-.143.143v3.174a.131.131,0,0,0,.04.1.151.151,0,0,0,.1.04h2.04a.141.141,0,0,0,.143-.143V12.6a.143.143,0,0,0-.138-.143Zm7.567-2.661h-2.04a.144.144,0,0,0-.143.143v3.174a.144.144,0,0,0,.143.143h2.04a.141.141,0,0,0,.143-.143V12.6a.141.141,0,0,0-.143-.143H13.437v-.536h1.388a.141.141,0,0,0,.143-.143v-.513a.141.141,0,0,0-.143-.143H13.437v-.536h1.388a.141.141,0,0,0,.143-.143V9.937a.15.15,0,0,0-.143-.143ZM20,5.9V18.634a3.636,3.636,0,0,1-3.647,3.616H3.616A3.639,3.639,0,0,1,0,18.6V5.866A3.639,3.639,0,0,1,3.647,2.25H16.384A3.636,3.636,0,0,1,20,5.9Zm-2.75,5.473c0-3.259-3.268-5.911-7.281-5.911S2.687,8.112,2.687,11.371c0,2.92,2.589,5.366,6.089,5.83.853.183.754.5.562,1.643-.031.183-.147.719.629.393a23.531,23.531,0,0,0,5.723-4.228A5.274,5.274,0,0,0,17.25,11.371Z" transform="translate(0 -2.25)" fill="#a6776a"/>
</svg>
