<svg width="25" height="25" viewBox="0 0 25 25" fill="none" xmlns="http://www.w3.org/2000/svg">
<path fill-rule="evenodd" clip-rule="evenodd" d="M3.21538 2C2.54415 2 2 2.54415 2 3.21538V17.6154C2 18.2866 2.54414 18.8308 3.21538 18.8308H20.9385C21.6097 18.8308 22.1538 18.2867 22.1538 17.6154V3.21538C22.1538 2.54414 21.6097 2 20.9385 2H3.21538ZM0 3.21538C0 1.43958 1.43958 0 3.21538 0H20.9385C22.7143 0 24.1538 1.43959 24.1538 3.21538V17.6154C24.1538 19.3912 22.7143 20.8308 20.9385 20.8308H3.21538C1.43959 20.8308 0 19.3912 0 17.6154V3.21538ZM5.53846 23.1538C5.53846 22.6016 5.98618 22.1538 6.53846 22.1538H17.6154C18.1677 22.1538 18.6154 22.6016 18.6154 23.1538C18.6154 23.7061 18.1677 24.1538 17.6154 24.1538H6.53846C5.98618 24.1538 5.53846 23.7061 5.53846 23.1538ZM16.1072 8.90715C16.4978 8.51663 16.4978 7.88346 16.1072 7.49294C15.7167 7.10241 15.0836 7.10241 14.693 7.49294L10.9694 11.2166L9.46109 9.70832C9.07056 9.3178 8.4374 9.3178 8.04688 9.70832C7.65635 10.0988 7.65635 10.732 8.04688 11.1225L10.2623 13.3379C10.6528 13.7284 11.2859 13.7284 11.6765 13.3379L16.1072 8.90715Z" fill="#ECE5DF"/>
</svg>
