<svg width="24" height="24" viewBox="0 0 24 24" fill="none" xmlns="http://www.w3.org/2000/svg">
<path fill-rule="evenodd" clip-rule="evenodd" d="M12 0C5.37258 0 0 5.37258 0 12C0 14.0603 0.519993 16.0017 1.43641 17.6975L0.569441 22.3541C0.513746 22.6533 0.60905 22.9606 0.824208 23.1758C1.03937 23.3909 1.34674 23.4863 1.64588 23.4306L6.30247 22.5636C7.99828 23.48 9.93969 24 12 24C18.6274 24 24 18.6274 24 12C24 5.37258 18.6274 0 12 0ZM1.84615 12C1.84615 6.39218 6.39218 1.84615 12 1.84615C17.6078 1.84615 22.1538 6.39219 22.1538 12C22.1538 17.6078 17.6078 22.1538 12 22.1538C10.1491 22.1538 8.4163 21.6594 6.92373 20.796C6.73303 20.6857 6.50917 20.6472 6.29259 20.6876L2.63067 21.3693L3.31245 17.7074C3.35278 17.4908 3.31431 17.267 3.204 17.0763C2.34059 15.5837 1.84615 13.851 1.84615 12ZM6.64611 9.78471C6.64611 9.2749 7.05938 8.86163 7.56919 8.86163H16.4307C16.9405 8.86163 17.3538 9.2749 17.3538 9.78471C17.3538 10.2945 16.9405 10.7078 16.4307 10.7078H7.56919C7.05938 10.7078 6.64611 10.2945 6.64611 9.78471ZM6.64611 14.2153C6.64611 13.7055 7.05938 13.2922 7.56919 13.2922H12C12.5098 13.2922 12.923 13.7055 12.923 14.2153C12.923 14.7251 12.5098 15.1384 12 15.1384H7.56919C7.05938 15.1384 6.64611 14.7251 6.64611 14.2153Z" fill="#ECE5DF"/>
</svg>
