<svg width="27" height="26" viewBox="0 0 27 26" fill="none" xmlns="http://www.w3.org/2000/svg">
<path d="M11.3846 1.7817C12.3339 0.739434 13.9737 0.739434 14.923 1.7817L16.1436 3.12199C16.6233 3.64875 17.3128 3.93435 18.0245 3.90109L19.8354 3.81646C21.2435 3.75064 22.4032 4.91028 22.3374 6.31846L22.2527 8.1293C22.2194 8.84098 22.505 9.53047 23.0318 10.0102L24.372 11.2308C25.4144 12.1801 25.4144 13.8199 24.372 14.7692L23.0318 15.9898C22.505 16.4694 22.2194 17.159 22.2527 17.8707L22.3374 19.6815C22.4032 21.0896 21.2435 22.2494 19.8354 22.1836L18.0245 22.0989C17.3128 22.0656 16.6233 22.3512 16.1436 22.878L14.923 24.2182C13.9737 25.2606 12.3339 25.2606 11.3846 24.2182L10.164 22.878C9.68428 22.3512 8.99479 22.0656 8.28311 22.0989L6.47226 22.1836C5.06409 22.2494 3.90445 21.0896 3.97027 19.6815L4.05489 17.8707C4.08816 17.159 3.80256 16.4694 3.2758 15.9898L1.93551 14.7692C0.893243 13.8199 0.893243 12.1801 1.93551 11.2308L3.2758 10.0102C3.80256 9.53047 4.08816 8.84098 4.05489 8.1293L3.97027 6.31845C3.90445 4.91028 5.06409 3.75064 6.47227 3.81646L8.28311 3.90109C8.99479 3.93435 9.68428 3.64875 10.164 3.12199L11.3846 1.7817Z" stroke="#ECE5DF" stroke-width="2"/>
<path d="M9.56445 13.0001L11.9574 15.393L16.7431 10.6072" stroke="#ECE5DF" stroke-width="2" stroke-linecap="round" stroke-linejoin="round"/>
</svg>
