<svg width="25" height="24" viewBox="0 0 25 24" fill="none" xmlns="http://www.w3.org/2000/svg">
<path fill-rule="evenodd" clip-rule="evenodd" d="M6.21986 7.10988C6.21986 6.49691 6.71677 6 7.32974 6H21.044C21.657 6 22.1539 6.4969 22.1539 7.10988V17.6593C22.1539 18.2723 21.657 18.7692 21.044 18.7692H7.32974C6.71676 18.7692 6.21986 18.2723 6.21986 17.6593V17.1318C6.21986 16.5795 5.77214 16.1318 5.21986 16.1318C4.66757 16.1318 4.21986 16.5795 4.21986 17.1318V17.6593C4.21986 19.3769 5.61221 20.7692 7.32974 20.7692H21.044C22.7615 20.7692 24.1539 19.3769 24.1539 17.6593V7.10988C24.1539 5.39235 22.7616 4 21.044 4H7.32974C5.6122 4 4.21986 5.39234 4.21986 7.10988V7.63735C4.21986 8.18964 4.66757 8.63735 5.21986 8.63735C5.77214 8.63735 6.21986 8.18964 6.21986 7.63735V7.10988ZM9.99419 8.38781C9.53467 8.08146 8.9138 8.20563 8.60744 8.66516C8.30109 9.12469 8.42527 9.74556 8.88479 10.0519L13.632 13.2167C13.9679 13.4407 14.4055 13.4407 14.7414 13.2167L19.4887 10.0519C19.9482 9.74556 20.0724 9.12469 19.766 8.66516C19.4597 8.20563 18.8388 8.08146 18.3793 8.38781L14.1867 11.1828L9.99419 8.38781ZM3.10982 12.9671C2.55753 12.9671 2.10982 13.4148 2.10982 13.9671C2.10982 14.5193 2.55753 14.9671 3.10982 14.9671H5.2197C5.77198 14.9671 6.2197 14.5193 6.2197 13.9671C6.2197 13.4148 5.77198 12.9671 5.2197 12.9671H3.10982ZM0 10.8021C0 10.2498 0.447715 9.80211 1 9.80211H5.21976C5.77205 9.80211 6.21976 10.2498 6.21976 10.8021C6.21976 11.3544 5.77205 11.8021 5.21976 11.8021H1C0.447715 11.8021 0 11.3544 0 10.8021Z" fill="#ECE5DF"/>
</svg>
