<svg width="24" height="25" viewBox="0 0 24 25" fill="none" xmlns="http://www.w3.org/2000/svg">
<path fill-rule="evenodd" clip-rule="evenodd" d="M3.66329 0C2.74468 0 2 0.744679 2 1.66329V22.4462C2 23.3649 2.74471 24.1095 3.66329 24.1095H10.7383C11.2906 24.1095 11.7383 23.6618 11.7383 23.1095C11.7383 22.5572 11.2906 22.1095 10.7383 22.1095H4V2H15.2658V4.75862C15.2658 5.6772 16.0104 6.42191 16.9291 6.42191H19.6876V12.0548C19.6876 12.607 20.1353 13.0548 20.6876 13.0548C21.2399 13.0548 21.6876 12.607 21.6876 12.0548V5.4347C21.6877 5.43044 21.6877 5.42618 21.6877 5.42191C21.6877 5.41764 21.6877 5.41337 21.6876 5.40912V5.14391C21.6876 4.70284 21.5125 4.27982 21.2006 3.96788L21.2005 3.96778L17.7199 0.487264C17.408 0.17525 16.9849 0 16.5437 0H16.2658H3.66329ZM17.2658 2.86157V4.42191H18.8262L17.2658 2.86157ZM7.42201 4.42195C6.86972 4.42195 6.42201 4.86967 6.42201 5.42195C6.42201 5.97424 6.86972 6.42195 7.42201 6.42195H11.8439C12.3962 6.42195 12.8439 5.97424 12.8439 5.42195C12.8439 4.86967 12.3962 4.42195 11.8439 4.42195H7.42201ZM7.42201 8.84386C6.86972 8.84386 6.42201 9.29157 6.42201 9.84386C6.42201 10.3961 6.86972 10.8439 7.42201 10.8439H16.2658C16.8181 10.8439 17.2658 10.3961 17.2658 9.84386C17.2658 9.29157 16.8181 8.84386 16.2658 8.84386H7.42201ZM7.42201 13.2658C6.86972 13.2658 6.42201 13.7135 6.42201 14.2658C6.42201 14.818 6.86972 15.2658 7.42201 15.2658H10.7384C11.2907 15.2658 11.7384 14.818 11.7384 14.2658C11.7384 13.7135 11.2907 13.2658 10.7384 13.2658H7.42201ZM20.5773 17.117C20.4837 17.0234 20.332 17.0234 20.2384 17.117L19.8401 17.5154L20.1789 17.8542L20.5773 17.4558C20.6709 17.3623 20.6709 17.2106 20.5773 17.117ZM18.7647 19.2684L18.4259 18.9296L15.8264 21.5291C15.8106 21.5449 15.8002 21.5653 15.7968 21.5871L15.7968 21.5874L15.7395 21.9549L16.1067 21.8976L18.7647 19.2684ZM18.8242 15.7028C19.6988 14.8282 21.1169 14.8282 21.9915 15.7028C22.8661 16.5774 22.8661 17.9954 21.9915 18.8701L20.886 19.9755L20.886 19.9755L17.5793 23.2821L17.5793 23.2821C17.2638 23.5977 16.8562 23.8048 16.4151 23.8737L16.4149 23.8737L14.6945 24.1419C14.379 24.1911 14.0591 24.0867 13.8333 23.8609C13.6076 23.6352 13.5032 23.3152 13.5524 22.9998L13.8206 21.2794L13.8207 21.2792C13.8894 20.8381 14.0966 20.4304 14.4122 20.1148L17.7188 16.8083L18.8242 15.7028Z" fill="#ECE5DF"/>
</svg>
