<svg width="24" height="24" viewBox="0 0 24 24" fill="none" xmlns="http://www.w3.org/2000/svg">
<path fill-rule="evenodd" clip-rule="evenodd" d="M2 21.934V2H21.934V21.934H2ZM1.73113 0C0.775056 0 0 0.775056 0 1.73113V22.2029C0 23.159 0.775087 23.934 1.73113 23.934H22.2029C23.159 23.934 23.934 23.159 23.934 22.2029V1.73113C23.934 0.775087 23.159 0 22.2029 0H1.73113ZM12.9669 4.04631C12.9669 3.49403 12.5192 3.04631 11.9669 3.04631C11.4146 3.04631 10.9669 3.49403 10.9669 4.04631V5.31702C10.3531 5.41776 9.75169 5.6375 9.23717 6.02722C8.39352 6.66623 7.92053 7.65873 7.92053 8.92054C7.92053 9.538 8.06437 10.0901 8.34985 10.5683C8.63187 11.0408 9.01997 11.3877 9.43085 11.6492C10.1887 12.1314 11.1517 12.3937 11.9345 12.6069L12.0084 12.627C12.8886 12.8671 13.5637 13.0606 14.0385 13.3627C14.2559 13.5011 14.3914 13.6398 14.4759 13.7813C14.557 13.9171 14.6226 14.1076 14.6226 14.404C14.6226 15.1181 14.3376 15.5585 13.9231 15.8488C13.4683 16.1673 12.7868 16.3464 12.0028 16.3182C10.7999 16.275 9.66519 15.7612 9.11125 15.0226C8.77988 14.5808 8.15308 14.4912 7.71125 14.8226C7.26943 15.154 7.17989 15.7808 7.51126 16.2226C8.32856 17.3123 9.64273 17.9658 10.9669 18.2105V19.8875C10.9669 20.4398 11.4146 20.8875 11.9669 20.8875C12.5192 20.8875 12.9669 20.4398 12.9669 19.8875V18.2684C13.7171 18.1684 14.4503 17.9212 15.0704 17.487C16.0157 16.8249 16.6226 15.7749 16.6226 14.404C16.6226 13.7866 16.4788 13.2345 16.1933 12.7562C15.9112 12.2838 15.5231 11.9369 15.1123 11.6754C14.3545 11.1932 13.3914 10.9309 12.6087 10.7177L12.5347 10.6975C11.6545 10.4575 10.9794 10.264 10.5046 9.96183C10.2872 9.82346 10.1517 9.68481 10.0672 9.54326C9.98614 9.4075 9.92053 9.217 9.92053 8.92054C9.92053 8.19608 10.167 7.83185 10.4447 7.62151C10.7642 7.37952 11.2745 7.23207 11.94 7.24998C13.0778 7.28059 14.2898 7.78339 14.9155 8.40909C15.306 8.79961 15.9392 8.79961 16.3297 8.40908C16.7202 8.01855 16.7202 7.38539 16.3297 6.99487C15.4994 6.16464 14.2363 5.57823 12.9669 5.3519V4.04631Z" fill="#ECE5DF"/>
</svg>
