<svg width="25" height="22" viewBox="0 0 25 22" fill="none" xmlns="http://www.w3.org/2000/svg">
<path fill-rule="evenodd" clip-rule="evenodd" d="M11.6387 0.146718C11.9588 -0.0489061 12.3615 -0.0489061 12.6816 0.146718L23.6879 6.87275C24.1591 7.16073 24.3077 7.77622 24.0197 8.24748C23.7317 8.71873 23.1162 8.8673 22.645 8.57931L12.1602 2.17195L1.6754 8.57931C1.20415 8.8673 0.588659 8.71873 0.30067 8.24748C0.0126813 7.77622 0.161247 7.16073 0.632502 6.87275L11.6387 0.146718ZM2.5997 20.5665C2.5997 20.0143 3.04742 19.5665 3.5997 19.5665H20.7205C21.2728 19.5665 21.7205 20.0143 21.7205 20.5665C21.7205 21.1188 21.2728 21.5665 20.7205 21.5665H3.5997C3.04742 21.5665 2.5997 21.1188 2.5997 20.5665ZM9.71407 6.11461C9.16179 6.11461 8.71407 6.56233 8.71407 7.11461C8.71407 7.6669 9.16179 8.11461 9.71407 8.11461H14.6057C15.158 8.11461 15.6057 7.6669 15.6057 7.11461C15.6057 6.56233 15.158 6.11461 14.6057 6.11461H9.71407ZM4.82258 9.78336C5.37486 9.78336 5.82258 10.2311 5.82258 10.7834V16.8979C5.82258 17.4502 5.37486 17.8979 4.82258 17.8979C4.27029 17.8979 3.82258 17.4502 3.82258 16.8979V10.7834C3.82258 10.2311 4.27029 9.78336 4.82258 9.78336ZM10.7141 10.7834C10.7141 10.2311 10.2664 9.78336 9.71407 9.78336C9.16179 9.78336 8.71407 10.2311 8.71407 10.7834V16.8979C8.71407 17.4502 9.16179 17.8979 9.71407 17.8979C10.2664 17.8979 10.7141 17.4502 10.7141 16.8979V10.7834ZM14.6061 9.78336C15.1583 9.78336 15.6061 10.2311 15.6061 10.7834V16.8979C15.6061 17.4502 15.1583 17.8979 14.6061 17.8979C14.0538 17.8979 13.6061 17.4502 13.6061 16.8979V10.7834C13.6061 10.2311 14.0538 9.78336 14.6061 9.78336ZM20.4976 10.7834C20.4976 10.2311 20.0498 9.78336 19.4976 9.78336C18.9453 9.78336 18.4976 10.2311 18.4976 10.7834V16.8979C18.4976 17.4502 18.9453 17.8979 19.4976 17.8979C20.0498 17.8979 20.4976 17.4502 20.4976 16.8979V10.7834Z" fill="#ECE5DF"/>
</svg>
