<svg width="262" height="36" viewBox="0 0 262 36" fill="none" xmlns="http://www.w3.org/2000/svg">
<path d="M249.018 30.1396V31.816H241.481V30.1396L243.852 29.5809V14.5076L241.481 13.9488V12.4224L247.341 12.2725L256.554 27.8773V14.5076L254.183 13.9488V12.4224L261.433 12.2725V13.9488L259.062 14.5076V31.816H255.573L246.36 16.4429V29.5809L249.018 30.1396Z" fill="#434343"/>
<path d="M237.147 30.4259C237.147 30.4622 236.797 30.6258 236.098 30.9165C235.407 31.1982 234.53 31.4662 233.467 31.7206C232.404 31.9659 231.259 32.0886 230.033 32.0886C227.207 32.0886 225.013 31.2618 223.45 29.6082C221.887 27.9546 221.106 25.5741 221.106 22.4668C221.106 20.3498 221.488 18.5054 222.251 16.9336C223.014 15.3526 224.095 14.1352 225.494 13.2811C226.903 12.427 228.556 12 230.455 12C231.364 12 232.282 12.1045 233.208 12.3135C234.144 12.5133 234.966 12.7405 235.675 12.9949C236.384 13.2402 236.738 13.3719 236.738 13.3901L236.602 17.9966H234.776L233.944 14.9302C233.853 14.8938 233.635 14.8348 233.29 14.753C232.945 14.6621 232.491 14.5758 231.927 14.494C231.373 14.4123 230.787 14.3714 230.169 14.3714C228.288 14.3714 226.839 15.0574 225.822 16.4293C224.813 17.7922 224.309 19.7592 224.309 22.3305C224.309 24.7655 224.863 26.6053 225.971 27.8501C227.08 29.0948 228.575 29.7172 230.455 29.7172C231.028 29.7172 231.6 29.6672 232.173 29.5673C232.754 29.4673 233.24 29.3629 233.631 29.2538C234.021 29.1357 234.267 29.0585 234.367 29.0221V24.4429L231.995 23.8842V22.3578L239.246 22.2078V23.8842L237.147 24.4429V30.4259Z" fill="#434343"/>
<path d="M210.489 30.1396L212.861 29.5809V14.5076L210.489 13.9488V12.4224L218.162 12.2725V13.9488L215.791 14.5076V29.5809L218.162 30.1396V31.816H210.489V30.1396Z" fill="#434343"/>
<path d="M197.324 29.0221C197.397 29.0585 197.565 29.1357 197.828 29.2538C198.092 29.3629 198.451 29.4673 198.905 29.5673C199.359 29.6672 199.855 29.7172 200.391 29.7172C201.508 29.7172 202.499 29.4537 203.362 28.9267C204.234 28.3998 204.67 27.6684 204.67 26.7325C204.67 26.1329 204.484 25.6332 204.111 25.2334C203.739 24.8245 203.275 24.4929 202.721 24.2385C202.176 23.9841 201.422 23.6797 200.459 23.3254C199.196 22.8802 198.174 22.4622 197.392 22.0715C196.62 21.6809 195.957 21.1175 195.403 20.3816C194.857 19.6457 194.585 18.7007 194.585 17.5468C194.585 15.7024 195.212 14.3169 196.466 13.3901C197.729 12.4634 199.309 12 201.208 12C201.99 12 202.817 12.0863 203.689 12.2589C204.561 12.4225 205.306 12.5951 205.924 12.7768C206.542 12.9495 206.932 13.063 207.096 13.1175L206.96 17.8603H205.147L204.193 14.8756C204.12 14.8575 203.943 14.8075 203.662 14.7257C203.38 14.6349 203.016 14.5531 202.571 14.4804C202.126 14.4077 201.681 14.3714 201.236 14.3714C200.045 14.3714 199.128 14.6394 198.483 15.1755C197.838 15.7024 197.515 16.3384 197.515 17.0835C197.515 17.6831 197.701 18.1874 198.074 18.5963C198.446 18.996 198.91 19.3277 199.464 19.5911C200.027 19.8546 200.813 20.1635 201.822 20.5179C203.03 20.9449 204.02 21.3492 204.793 21.7308C205.565 22.1124 206.219 22.653 206.755 23.3526C207.3 24.0432 207.573 24.9199 207.573 25.983C207.573 27.3186 207.246 28.4497 206.592 29.3765C205.937 30.2942 205.056 30.9756 203.948 31.4208C202.848 31.866 201.626 32.0886 200.282 32.0886C199.409 32.0886 198.551 32.0068 197.706 31.8433C196.861 31.6797 196.157 31.5116 195.593 31.339C195.039 31.1573 194.685 31.0392 194.53 30.9847V26.092H196.765L197.324 29.0221Z" fill="#434343"/>
<path d="M188.534 20.5178V22.7393H182.115V29.5809H188.534L189.092 26.787H190.905V31.816H176.799V30.1396L179.171 29.5809V14.5076L176.799 13.9488V12.4224L182.115 12.2725H190.619V17.0289H188.806L188.111 14.5076H182.115V20.5178H188.534Z" fill="#434343"/>
<path d="M158.646 14.5076L156.275 13.9488V12.4224L161.576 12.2725H165.065C167.818 12.2725 169.972 13.0993 171.525 14.7529C173.079 16.3975 173.856 18.737 173.856 21.7717C173.856 23.7978 173.479 25.5695 172.725 27.0868C171.979 28.6042 170.907 29.7717 169.508 30.5894C168.109 31.4071 166.492 31.816 164.656 31.816H156.275V30.1396L158.646 29.5809V14.5076ZM164.793 29.5809C166.619 29.5809 168.05 28.9449 169.086 27.6729C170.131 26.4009 170.653 24.4792 170.653 21.908C170.653 19.4003 170.149 17.5423 169.14 16.3339C168.141 15.1164 166.737 14.5076 164.929 14.5076H161.576V29.5809H164.793Z" fill="#434343"/>
<path d="M135.191 30.1396V31.816H127.655V30.1396L130.026 29.5809V14.5076L127.655 13.9488V12.4224L133.515 12.2725L142.728 27.8773V14.5076L140.357 13.9488V12.4224L147.607 12.2725V13.9488L145.236 14.5076V31.816H141.747L132.534 16.4429V29.5809L135.191 30.1396Z" fill="#434343"/>
<path d="M115.948 12.4224L118.742 12.2725L124.943 29.6081L127.259 30.1396V31.816H119.164V30.1396L121.753 29.6081L120.69 26.5144H113.44L112.35 29.6081L114.966 30.1396V31.816H107.294V30.1396L109.583 29.6081L115.948 12.4224ZM117.12 15.8841L114.19 24.2793H119.941L117.12 15.8841Z" fill="#434343"/>
<path d="M105.058 23.8568C105.058 26.5917 104.481 28.6496 103.328 30.0306C102.174 31.4026 100.193 32.0885 97.3855 32.0885C94.7234 32.0885 92.8244 31.4525 91.6887 30.1805C90.553 28.9085 89.9851 26.9415 89.9851 24.2793V14.5076L87.6138 13.9488V12.4224L95.5729 12.2725V13.9488L92.9153 14.5076V24.2793C92.9153 25.6785 93.0743 26.7688 93.3923 27.5502C93.7103 28.3316 94.2009 28.8904 94.8642 29.2265C95.5365 29.5536 96.4224 29.7172 97.5218 29.7172C98.6938 29.7172 99.607 29.5309 100.261 29.1584C100.924 28.7859 101.401 28.1771 101.692 27.3321C101.983 26.4872 102.128 25.3287 102.128 23.8568V14.5076L99.4707 13.9488V12.4224L107.43 12.2725V13.9488L105.058 14.5076V23.8568Z" fill="#434343"/>
<path d="M82.9937 14.5076V30.5621C82.9937 32.2521 82.5212 33.5786 81.5763 34.5417C80.6405 35.5139 79.3458 35.9999 77.6921 35.9999C77.3923 35.9999 77.0471 35.9818 76.6564 35.9454C76.2657 35.9091 76.0158 35.8818 75.9068 35.8637L76.1521 33.7649H77.5559C78.4281 33.7649 79.0641 33.5423 79.4639 33.0971C79.8636 32.6519 80.0635 31.9931 80.0635 31.1209V14.5076L77.6921 13.9488V12.4224L85.3651 12.2725V13.9488L82.9937 14.5076Z" fill="#434343"/>
<path d="M18.7652 10.1806C18.9353 10.4775 19.1014 10.8636 19.2622 11.3403C19.4231 11.817 19.5045 12.2672 19.5045 12.6908C19.505 13.4967 19.3309 14.2276 18.9826 14.8848C18.6337 15.5426 18.1856 16.0995 17.6377 16.5555C17.0899 17.0121 16.4809 17.3678 15.8108 17.6227C15.1402 17.8782 14.4741 18.0062 13.8132 18.0069C13.2464 18.0075 12.7222 17.8866 12.2401 17.6434C11.758 17.4008 11.3416 17.0722 10.9921 16.6596C10.6421 16.2469 10.3676 15.7651 10.1686 15.214C9.96968 14.6636 9.86991 14.0808 9.86933 13.4657C9.86818 12.3428 10.1265 11.3461 10.6455 10.4768C11.164 9.60751 11.8577 8.84881 12.7268 8.20136C13.5947 7.55391 14.6056 7.00672 15.7578 6.56042C16.9094 6.11413 18.1233 5.7364 19.3989 5.42723C20.674 5.1187 21.968 4.87874 23.2811 4.70669C24.5942 4.53593 25.8462 4.40657 27.0364 4.32055C28.2267 4.23452 29.3224 4.18019 30.3241 4.15755C31.3252 4.13556 32.1475 4.12327 32.7899 4.12263C32.941 4.12263 33.1486 4.09029 33.4133 4.02625C33.6774 3.96222 33.9519 3.89819 34.2351 3.83415C34.5182 3.77012 34.7875 3.70609 35.0424 3.6427C35.2973 3.57867 35.5003 3.54697 35.652 3.54633C36.2938 3.54568 36.6156 3.73584 36.6162 4.11745C36.6162 4.37165 36.5124 4.56245 36.3048 4.68987C36.0966 4.81729 35.8134 4.88133 35.4548 4.88197C35.133 4.88262 34.7887 4.85093 34.4202 4.78819C34.0517 4.7248 33.6872 4.67306 33.3285 4.63037C33.0639 4.6737 32.6861 4.8063 32.1954 5.02944C31.704 5.25259 31.1568 5.60316 30.5524 6.0805C29.9481 6.55784 29.3155 7.18394 28.6552 7.95816C27.9943 8.73303 27.3623 9.68189 26.759 10.806C24.7222 14.6235 23.1427 17.6453 22.0211 19.8723C20.8989 22.0992 20.1492 23.5733 19.772 24.2938C21.5286 23.8675 23.096 23.0869 24.4748 21.9511C25.8525 20.8159 27.1079 19.4201 28.24 17.7663L28.4954 17.893C28.0802 18.5295 27.59 19.1925 27.0237 19.882C26.4574 20.5714 25.811 21.2299 25.0844 21.8553C24.3572 22.4815 23.536 23.0493 22.6202 23.559C21.7039 24.0687 20.6889 24.4626 19.5748 24.7394C18.7259 26.3299 17.7825 27.804 16.7451 29.1616C15.707 30.5186 14.5837 31.6919 13.3761 32.6789C12.168 33.6659 10.8791 34.4356 9.50949 34.9887C8.13988 35.541 6.69934 35.8185 5.18787 35.8204C4.60255 35.8211 4.00741 35.7474 3.4019 35.6005C2.79697 35.4531 2.25374 35.215 1.77164 34.8871C1.28954 34.5585 0.89682 34.1304 0.594064 33.6013C0.291309 33.0715 0.139643 32.4254 0.13849 31.6628C0.137913 30.7935 0.363394 30.0574 0.816662 29.4527C1.26935 28.8479 1.89735 28.3434 2.70009 27.9405C3.50282 27.5369 4.46126 27.2018 5.57598 26.9353C6.69012 26.6688 7.89941 26.4289 9.20327 26.2154C10.6011 25.9806 11.8387 25.7886 12.9153 25.6385C13.992 25.4891 14.8138 25.3397 15.3806 25.1903C15.9464 24.1722 16.4884 23.1386 17.0074 22.0888C17.5259 21.0391 18.0489 19.979 18.5772 18.9079C19.1048 17.8374 19.6521 16.7767 20.2178 15.7269C20.7835 14.6771 21.3775 13.6642 22.0003 12.6889C23.6035 10.2498 25.2879 8.39281 27.0537 7.11926C28.8189 5.84571 30.6655 4.99581 32.5921 4.56892V4.50553C32.2894 4.50618 31.7744 4.512 31.0472 4.52365C30.3195 4.53529 29.4648 4.57862 28.4822 4.6543C27.4995 4.72997 26.4367 4.84252 25.2937 4.99193C24.1502 5.14199 23.0026 5.36061 21.8504 5.64779C20.6982 5.93561 19.5835 6.29718 18.5068 6.73312C17.4301 7.16906 16.4815 7.70526 15.6597 8.34236C14.8386 8.97946 14.1777 9.72717 13.6783 10.5861C13.1783 11.4451 12.9292 12.4366 12.9303 13.5595C12.9315 14.5555 13.1968 15.3233 13.7261 15.8634C14.2555 16.4035 14.9458 16.6725 15.7958 16.6712C16.2301 16.6706 16.6505 16.5587 17.0565 16.3355C17.4624 16.1124 17.8211 15.8155 18.1325 15.4442C18.4439 15.073 18.6936 14.6383 18.8822 14.1396C19.0702 13.6416 19.1648 13.1274 19.1642 12.5977C19.1636 11.9619 18.9549 11.231 18.5385 10.405L18.7652 10.1806ZM3.19891 32.2307C3.20007 33.1847 3.46534 33.9577 3.99473 34.5501C4.52469 35.1426 5.22363 35.4388 6.09268 35.4375C7.22643 35.4362 8.24138 35.0954 9.13868 34.4162C10.0354 33.7364 10.8468 32.8988 11.5734 31.9015C12.2995 30.9041 12.9603 29.8382 13.5543 28.7043C14.1483 27.5698 14.7094 26.546 15.2376 25.6346C14.5387 25.7627 13.8392 25.8804 13.1408 25.9871C12.4419 26.0945 11.7476 26.2116 11.0579 26.3396C10.3682 26.4677 9.67384 26.6223 8.97491 26.8034C8.27598 26.9838 7.57704 27.2232 6.87811 27.5213C6.42484 27.7128 5.9808 27.9515 5.54657 28.238C5.11175 28.5245 4.72076 28.8641 4.3713 29.2567C4.02241 29.6493 3.73926 30.0943 3.52243 30.593C3.30675 31.091 3.19834 31.6369 3.19891 32.2307Z" fill="#434343"/>
<path fill-rule="evenodd" clip-rule="evenodd" d="M1.20396 21.2906C1.72355 19.6089 2.4196 17.9796 3.23963 16.4189C4.07005 14.8659 5.02618 13.3815 6.09995 12.0064C8.2423 9.24844 10.8108 6.89215 13.6135 5.03582C16.4167 3.17627 19.4541 1.80699 22.5595 0.972616C23.3357 0.763699 24.1171 0.592944 24.8985 0.44612C25.681 0.307704 26.4647 0.198395 27.2473 0.122719C28.8129 -0.021518 30.3723 -0.040922 31.9034 0.0767959C34.9672 0.305764 37.9152 1.04635 40.6008 2.18537C40.685 2.22094 40.7692 2.25458 40.8528 2.2908C40.9358 2.32767 41.0189 2.36518 41.1019 2.40205C41.2674 2.47708 41.4335 2.54952 41.5973 2.62584C41.9231 2.78431 42.2501 2.93501 42.5678 3.10318C43.2085 3.42658 43.8267 3.78362 44.4322 4.14583C44.7315 4.33469 45.0326 4.51515 45.3226 4.71178C45.4685 4.8088 45.6138 4.90582 45.7586 5.00219C45.9016 5.10244 46.0435 5.20205 46.1853 5.30166C46.2563 5.35146 46.3272 5.40127 46.3976 5.45107C46.4673 5.50282 46.5365 5.55391 46.6063 5.60566C46.7447 5.7085 46.8831 5.81134 47.0204 5.91353C47.1559 6.01961 47.2908 6.12504 47.4258 6.22982C47.5601 6.33525 47.6951 6.43938 47.8248 6.54869C48.8773 7.41023 49.8547 8.3164 50.7492 9.25621C51.643 10.1967 52.4578 11.1649 53.1954 12.1422C54.6717 14.0969 55.8349 16.0858 56.7345 17.9732C57.8331 20.259 58.5424 22.3947 59.0112 24.2879C59.4806 26.183 59.7159 27.8388 59.8243 29.2417C59.9339 30.6459 59.9206 31.7985 59.8635 32.7235C59.8474 32.955 59.8324 33.1723 59.8128 33.3754C59.7909 33.5792 59.7684 33.7693 59.7453 33.9466C59.7332 34.0352 59.7217 34.1199 59.7107 34.2027C59.698 34.2848 59.6842 34.3638 59.6709 34.4394C59.6438 34.5908 59.6173 34.7305 59.5902 34.8573C59.5389 35.1121 59.4795 35.3191 59.4253 35.484C59.3711 35.649 59.3191 35.7706 59.2719 35.8546C59.1767 36.0222 59.0971 36.0383 59.0418 35.9368C58.9864 35.8352 58.9553 35.616 58.9564 35.3087C58.9587 35.1548 58.9622 34.9795 58.9754 34.7855C58.9876 34.5914 59.0135 34.378 59.0406 34.1497C59.0677 33.922 59.0908 33.7118 59.1115 33.5184C59.1329 33.3243 59.1421 33.1484 59.1536 32.9867C59.164 32.8257 59.1721 32.6795 59.1779 32.5482C59.1819 32.4169 59.1819 32.3005 59.1813 32.1976C59.1779 31.7843 59.1461 31.5851 59.0983 31.5185C59.0521 31.4519 58.9962 31.5159 58.942 31.6265C58.8884 31.7371 58.8319 31.8949 58.7932 32.0152C58.4512 32.6775 58.1133 32.5857 57.7984 32.0644C57.4795 31.5418 57.1728 30.5851 56.821 29.4746C56.4727 28.3627 56.0805 27.095 55.6774 25.9159C55.2743 24.7374 54.8586 23.6495 54.5558 22.863C53.9543 21.2893 53.403 19.9763 53.2289 19.2913C53.1401 18.9511 53.151 18.7655 53.2888 18.7972C53.4249 18.8302 53.6971 19.0747 54.1025 19.6186C53.6066 18.7241 53.1677 17.9557 52.7969 17.3108C52.707 17.1472 52.6176 16.9945 52.5345 16.8484C52.4515 16.7022 52.3754 16.5612 52.3033 16.4286C52.1551 16.1666 52.0328 15.9293 51.9302 15.7229C51.5156 14.9021 51.4648 14.5328 51.8091 14.7062C51.9821 14.7922 52.1914 14.9836 52.4152 15.1984C52.5276 15.3051 52.6355 15.4248 52.745 15.5399C52.854 15.655 52.9613 15.7682 53.0593 15.8723C53.4486 16.2915 53.7427 16.5373 53.6694 16.0153C53.6844 15.8536 53.6585 15.6414 53.5956 15.384C53.5276 15.1305 53.4244 14.829 53.2813 14.4934C52.9942 13.8233 52.5513 13.0102 51.9654 12.128C51.3795 11.2458 50.6471 10.2976 49.7959 9.35646C48.947 8.41278 47.9719 7.48591 46.9269 6.62437C45.8837 5.7596 44.7598 4.97697 43.6307 4.29265C43.4905 4.20468 43.3481 4.12383 43.2062 4.04234C43.0644 3.96084 42.9231 3.87999 42.7829 3.79979C42.6405 3.72346 42.4992 3.64714 42.3585 3.57147C42.2178 3.49579 42.0782 3.41947 41.937 3.35091C41.655 3.21055 41.3787 3.06761 41.1008 2.94213C40.9624 2.87809 40.8251 2.81406 40.6896 2.75132C40.5524 2.69182 40.4163 2.63296 40.2819 2.57474C39.2041 2.11163 38.1897 1.76107 37.3114 1.50235C37.2019 1.47001 37.094 1.43831 36.9891 1.40727C36.8841 1.37622 36.7803 1.351 36.6794 1.32383C36.4776 1.27144 36.2861 1.2184 36.105 1.17507C35.7411 1.09227 35.4228 1.01272 35.1524 0.963561C34.6132 0.852958 34.1149 0.772755 33.6668 0.708721C33.4425 0.680262 33.2309 0.653096 33.0325 0.627871C32.8341 0.609761 32.649 0.592297 32.4789 0.576774C32.3935 0.569659 32.3122 0.562544 32.2344 0.556076C32.1565 0.551548 32.0821 0.547668 32.0118 0.543787C31.8711 0.537319 31.7459 0.532144 31.6364 0.52697C31.4184 0.517268 31.2644 0.521795 31.1831 0.528264C31.1012 0.535378 31.092 0.546374 31.1606 0.561897C31.2292 0.578067 31.3768 0.593591 31.6093 0.625931C31.8417 0.657624 32.1594 0.68673 32.5677 0.745589C32.7718 0.773401 32.9996 0.799273 33.2499 0.841316C33.5002 0.881417 33.7752 0.918285 34.0728 0.975204C36.1287 1.31995 38.0006 1.87814 39.6648 2.56051C40.4976 2.90073 41.2801 3.26876 42.0142 3.65167C42.7466 4.0391 43.4294 4.44335 44.0666 4.85019C45.3353 5.67551 46.42 6.51441 47.3312 7.32938C48.2441 8.14177 48.9914 8.91728 49.6004 9.61518C50.2111 10.3111 50.6776 10.9372 51.0369 11.4547C51.2128 11.7173 51.3679 11.9469 51.4902 12.1571C51.6136 12.366 51.7128 12.5458 51.7889 12.6972C52.0842 13.311 52.0178 13.4578 51.6395 13.1467C51.5202 13.0471 51.3945 12.9456 51.2676 12.8356C51.1401 12.7269 51.0127 12.6092 50.8801 12.4902C50.6131 12.2541 50.342 11.9922 50.0554 11.7257C49.4862 11.1876 48.8836 10.5983 48.255 10.0156C47.6288 9.43084 46.9829 8.84549 46.3474 8.29635C45.7136 7.74463 45.0827 7.24012 44.5066 6.79254C43.3435 5.89801 42.5413 5.42714 42.1809 5.22534C41.9981 5.13026 41.9231 5.10439 41.956 5.14449C41.9883 5.18524 42.1296 5.28872 42.3706 5.46789C42.49 5.55521 42.6209 5.65158 42.7558 5.75054C42.8885 5.85274 43.024 5.95881 43.1543 6.06295C43.2189 6.11534 43.2829 6.16643 43.3446 6.21688C43.4058 6.26798 43.4634 6.31973 43.5182 6.36824C43.6278 6.46655 43.7235 6.5571 43.7979 6.63472C43.9467 6.7893 44.0055 6.89861 43.9167 6.90961C43.8273 6.92061 43.5851 6.84105 43.1289 6.63019C42.4623 6.32425 41.7467 5.95364 40.9405 5.53904C40.1343 5.12573 39.2364 4.66974 38.2041 4.2118C37.1719 3.75451 36.0053 3.29011 34.6651 2.8962C34.3306 2.79272 33.984 2.70475 33.6282 2.61032C33.45 2.56504 33.2683 2.52494 33.0844 2.4816C32.9921 2.46026 32.8999 2.43892 32.8064 2.41757C32.713 2.39881 32.6184 2.38006 32.5239 2.36065C32.3341 2.32443 32.1421 2.2811 31.9466 2.24876C31.7505 2.21577 31.5527 2.18278 31.3521 2.14915C30.9495 2.09223 30.5361 2.03208 30.1099 1.99262C29.2697 1.92147 28.4168 1.88461 27.5581 1.90401C26.7 1.92083 25.8367 1.98033 24.9757 2.08188C24.1142 2.18408 23.2561 2.33607 22.4066 2.52365C21.5566 2.71187 20.7158 2.94019 19.8912 3.2112C16.5857 4.27713 13.5518 5.97951 11.0669 7.92056C9.82067 8.88753 8.71403 9.92112 7.74982 10.9437C6.78965 11.9728 5.97366 12.9947 5.30471 13.9533C4.63519 14.9112 4.11214 15.8057 3.72173 16.5774C3.33132 17.3496 3.06605 17.9945 2.92015 18.4751C3.82784 16.49 4.99388 14.6163 6.33869 12.9268C7.68293 11.2354 9.20478 9.72902 10.8183 8.43541C12.4324 7.14181 14.1388 6.06165 15.8602 5.19558C17.5822 4.33016 19.3168 3.67043 21.0007 3.21249C22.6875 2.74744 24.2411 2.50295 25.5899 2.39881C26.9399 2.29015 28.0863 2.32508 28.9831 2.40916C29.2074 2.43374 29.4161 2.45897 29.6093 2.48419C29.7056 2.49583 29.7985 2.51006 29.8867 2.52623C29.9749 2.5424 30.0591 2.55793 30.1399 2.57216C30.3002 2.60385 30.4444 2.63166 30.5718 2.6653C30.6987 2.69893 30.8094 2.73192 30.9022 2.76426C31.2742 2.89232 31.3694 3.00745 31.1623 3.10059C30.7471 3.28817 29.7627 3.36966 28.3412 3.48803C26.9197 3.61415 25.0547 3.78038 22.8789 4.19498C22.8876 4.29459 22.8812 4.40907 22.7278 4.55137C22.6512 4.62252 22.5375 4.70013 22.3715 4.7881C22.206 4.87995 21.9874 4.98149 21.7002 5.09533C21.1287 5.33659 20.2822 5.63347 19.055 6.11598C17.8319 6.60691 16.2183 7.27117 14.1884 8.41213C13.1671 8.9839 12.1729 9.62812 11.2203 10.337C10.2676 11.0459 9.36163 11.8266 8.50931 12.6551C8.29363 12.8595 8.08948 13.0762 7.8813 13.2871C7.67485 13.5005 7.47648 13.7211 7.27522 13.9378C7.17776 14.049 7.0803 14.1609 6.98284 14.2715C6.88596 14.3828 6.78735 14.4927 6.6945 14.6078C6.50766 14.8362 6.31678 15.0593 6.13859 15.2935C5.41428 16.2171 4.75802 17.1776 4.17846 18.1581C3.02338 20.1225 2.18201 22.1631 1.65608 24.1081C1.12611 26.0543 0.910434 27.8983 0.900631 29.494C0.67342 31.5346 0.700524 33.607 0.965219 35.6509C0.678034 34.6956 0.438136 33.6665 0.268593 32.5695C0.0996268 31.4726 0.0050517 30.3083 0.000438288 29.0891C-0.0145553 26.6519 0.354518 23.9884 1.20396 21.2906Z" fill="#434343"/>
<path d="M24.7696 26.5375L24.0292 27.8137C23.3522 28.9482 22.8095 29.8737 22.4007 30.5904C21.9918 31.3077 21.6746 31.8905 21.4491 32.3393C21.2237 32.7882 21.0755 33.1349 21.0051 33.3788C20.9347 33.6233 20.8996 33.8393 20.9001 34.0281C20.9001 34.2332 20.9538 34.3981 21.0599 34.5236C21.166 34.6497 21.3038 34.7125 21.4734 34.7118C21.7559 34.7112 22.1192 34.5339 22.5639 34.1789C23.0085 33.8244 23.4952 33.3083 24.024 32.6304C24.5528 31.9532 25.1139 31.1259 25.7062 30.1486C26.2984 29.172 26.8832 28.0614 27.461 26.8163L30.5335 26.718C30.4067 26.9541 30.2267 27.2697 29.9943 27.6636C29.7619 28.0575 29.5007 28.487 29.2118 28.9514C28.9223 29.4165 28.6265 29.9087 28.3237 30.4287C28.0204 30.9487 27.7453 31.4487 27.4991 31.9293C27.2522 32.4099 27.0516 32.8587 26.8964 33.2759C26.7413 33.6938 26.664 34.0359 26.6646 34.3037C26.6646 34.5242 26.7073 34.6775 26.792 34.7642C26.8768 34.8509 26.9898 34.8936 27.1311 34.8936C27.371 34.8929 27.6501 34.783 27.9679 34.5618C28.2856 34.3412 28.6242 34.0534 28.984 33.6983C29.3438 33.3438 29.7106 32.9454 30.0843 32.5043C30.458 32.0632 30.8109 31.622 31.1425 31.1803C31.4735 30.7392 31.7803 30.3213 32.0629 29.9274C32.3449 29.5335 32.5709 29.2108 32.7399 28.9585L32.9308 29.1474C32.6909 29.463 32.4158 29.8369 32.1056 30.2702C31.7953 30.7036 31.4602 31.157 31.1004 31.6292C30.7406 32.102 30.3599 32.5709 29.9574 33.036C29.5555 33.501 29.1426 33.915 28.7193 34.2772C28.296 34.64 27.8687 34.9356 27.4385 35.1646C27.0077 35.3929 26.5804 35.508 26.1571 35.5087C25.8463 35.5093 25.5776 35.4543 25.3515 35.3444C25.1255 35.2344 24.9415 35.085 24.8002 34.8968C24.6589 34.7079 24.5522 34.4919 24.4819 34.2481C24.411 34.0042 24.3752 33.7565 24.3752 33.5042C24.3752 33.3154 24.396 33.1265 24.4381 32.9376C24.4802 32.7488 24.5222 32.5916 24.5649 32.4648L24.5228 32.4176C24.2126 32.8115 23.8948 33.1938 23.5707 33.5644C23.2461 33.935 22.9076 34.2662 22.5546 34.5579C22.2017 34.8496 21.8419 35.0824 21.4751 35.2558C21.1077 35.4291 20.7335 35.5164 20.3523 35.5171C19.7589 35.5177 19.3206 35.3256 19.0381 34.9401C18.7555 34.5553 18.6136 34.0631 18.613 33.4648C18.6125 33.1498 18.6759 32.7915 18.8028 32.3898C18.9296 31.9881 19.0917 31.5671 19.2889 31.1259C19.4861 30.6848 19.7081 30.2359 19.955 29.7787C20.2018 29.322 20.4376 28.8925 20.6637 28.4909C20.8892 28.0892 21.0974 27.727 21.2877 27.4036C21.478 27.0808 21.6221 26.8247 21.7213 26.6352L24.7696 26.5375Z" fill="#434343"/>
<path d="M42.4407 26.7025C42.2855 26.9548 42.0843 27.2782 41.838 27.6715C41.5912 28.0654 41.3265 28.4909 41.0445 28.9476C40.7625 29.4049 40.4805 29.8809 40.1985 30.3777C39.9165 30.8738 39.6593 31.3582 39.4269 31.831C39.1945 32.3038 39.0042 32.745 38.856 33.1544C38.7084 33.5645 38.6346 33.9105 38.6346 34.1938C38.6352 34.6504 38.7978 34.8788 39.1225 34.8781C39.4189 34.8775 39.7683 34.7203 40.1709 34.4047C40.5734 34.0897 41.014 33.668 41.4938 33.1395C41.973 32.6117 42.4741 31.9927 42.996 31.2838C43.5179 30.5749 44.0467 29.8266 44.583 29.0381L44.7105 29.1326C44.1465 29.9366 43.5963 30.7205 43.0606 31.4843C42.5243 32.2489 41.992 32.9261 41.4632 33.5172C40.9338 34.1084 40.405 34.5851 39.8756 34.948C39.3462 35.3108 38.8064 35.4926 38.2551 35.4932C37.7748 35.4939 37.4074 35.4078 37.1531 35.2352C36.8988 35.0625 36.7108 34.8458 36.5908 34.5864C36.4703 34.327 36.3994 34.0554 36.3781 33.7721C36.3567 33.4888 36.3458 33.2372 36.3452 33.0166L36.2817 32.9694C36.0557 33.2689 35.8129 33.5683 35.5517 33.8678C35.2904 34.1673 35.005 34.4396 34.6942 34.6834C34.3833 34.9279 34.0587 35.1252 33.7202 35.2753C33.3811 35.4253 33.0212 35.5003 32.6395 35.501C31.9613 35.5016 31.4492 35.2785 31.1026 34.8303C30.756 34.382 30.5825 33.6621 30.5813 32.6699C30.5807 31.9772 30.7353 31.2644 31.0449 30.5323C31.3546 29.7994 31.7958 29.13 32.3673 28.5233C32.9388 27.9166 33.6192 27.416 34.4104 27.0208C35.2011 26.6262 36.0695 26.4283 37.0159 26.427C37.5666 26.4264 37.987 26.579 38.2771 26.8856C38.5665 27.1922 38.7545 27.5738 38.8399 28.0304H38.882L39.4316 26.8015L42.4407 26.7025ZM34.0367 34.4596C34.3332 34.459 34.7143 34.2462 35.1803 33.8206C35.6463 33.395 36.1041 32.851 36.5557 32.1894C37.0066 31.5277 37.3947 30.8065 37.7188 30.0271C38.0429 29.2471 38.2044 28.5032 38.2038 27.795C38.2032 27.4328 38.1075 27.1618 37.9166 26.9807C37.7257 26.8002 37.5101 26.7097 37.2702 26.7103C36.9738 26.711 36.6733 26.8216 36.37 27.0421C36.0661 27.2633 35.7697 27.5589 35.4807 27.9289C35.1913 28.2995 34.9162 28.7173 34.6555 29.1817C34.3943 29.6468 34.1653 30.1189 33.9687 30.5995C33.7715 31.0801 33.6164 31.5561 33.5039 32.029C33.3909 32.5018 33.3355 32.919 33.3355 33.2805C33.3355 33.5483 33.3816 33.8115 33.4739 34.0716C33.5668 34.3303 33.7542 34.4603 34.0367 34.4596Z" fill="#434343"/>
<path d="M40.692 35.2066L45.0689 26.8409L48.0775 26.6954C47.0619 28.271 46.0891 29.8783 45.1583 31.5166L45.201 31.5638C45.5678 31.0438 45.9766 30.4843 46.4282 29.8854C46.8797 29.2864 47.3555 28.7308 47.8566 28.2186C48.3571 27.7063 48.8727 27.2768 49.4021 26.9295C49.9315 26.5828 50.4574 26.4088 50.9799 26.4075C51.5168 26.4069 51.9654 26.5595 52.3258 26.8661C52.6863 27.1727 52.8668 27.641 52.8673 28.2703C52.8679 28.7897 52.7237 29.3253 52.4348 29.877C52.1459 30.4287 51.8247 30.9681 51.4724 31.4959C51.1194 32.0244 50.7988 32.5282 50.5099 33.0088C50.221 33.4894 50.0768 33.9111 50.0768 34.2726C50.0768 34.4305 50.116 34.5676 50.1939 34.686C50.2717 34.8037 50.3951 34.8625 50.5647 34.8625C50.8755 34.8619 51.2284 34.7002 51.6234 34.3768C52.0185 34.054 52.4279 33.6556 52.8512 33.1828C53.1759 32.8206 53.4999 32.4306 53.8246 32.0127C54.1487 31.5955 54.452 31.1932 54.7346 30.8071C55.0166 30.4209 55.2703 30.0665 55.4964 29.7431C55.7219 29.4203 55.8983 29.1642 56.0252 28.9747L56.2161 29.0924C55.7363 29.8013 55.2248 30.5341 54.6821 31.2909C54.1389 32.047 53.5922 32.741 53.0421 33.371C52.4637 34.0333 51.9026 34.5495 51.3593 34.9201C50.8155 35.2907 50.2613 35.4763 49.6968 35.477C49.0613 35.4776 48.5844 35.2694 48.266 34.8528C47.9477 34.4363 47.7885 33.8969 47.7874 33.2358C47.7868 32.6692 47.9241 32.1298 48.1986 31.6175C48.4736 31.1059 48.7798 30.6247 49.1189 30.1758C49.4574 29.7269 49.7642 29.313 50.0393 28.9346C50.3144 28.5562 50.4516 28.2018 50.4516 27.8712C50.4511 27.4308 50.2602 27.2102 49.879 27.2109C49.6247 27.2115 49.3138 27.3577 48.9471 27.6487C48.5797 27.9405 48.1847 28.3227 47.7614 28.7955C47.3382 29.2683 46.908 29.7968 46.4708 30.3795C46.0337 30.963 45.6208 31.5457 45.2333 32.1285C44.8452 32.7119 44.5067 33.263 44.2178 33.783C43.9288 34.303 43.7137 34.728 43.573 35.0592L40.692 35.2066Z" fill="#434343"/>
<path d="M46.6645 9.0939C46.5371 9.16893 46.1317 9.41084 45.8658 9.75558C45.8185 9.81638 45.6449 10.0175 45.4864 10.2989C45.3422 10.555 45.1329 10.7594 45.0031 11.0272C44.912 11.1895 44.7788 11.3157 44.6871 11.4774C44.5135 11.8241 44.2667 12.1151 44.077 12.4495C43.6197 13.2878 43.0603 14.0529 42.618 14.9015C42.2143 15.6751 41.8245 16.4564 41.4836 17.2662C41.4514 17.3432 41.4196 17.4215 41.4041 17.5049C41.3908 17.5748 41.3816 17.6517 41.4537 17.6893C41.5171 17.7222 41.5782 17.6951 41.6307 17.6479C41.7034 17.5832 41.7385 17.4907 41.7795 17.4027C42.2731 16.3303 43.1399 15.8679 44.1514 15.6551C44.852 15.5076 45.559 15.5852 46.2631 15.6033C46.841 15.6188 47.4153 15.6285 47.9857 15.4791C48.1812 15.428 48.4222 15.3698 48.5479 15.6001C48.6731 15.8284 48.4701 15.9862 48.3582 16.1505C48.1887 16.4008 47.958 16.5903 47.7383 16.8775C48.1535 16.9454 48.5416 16.9687 48.9187 17.0528C49.0733 17.0871 49.2867 17.0612 49.3068 17.3089C49.3253 17.5347 49.1396 17.6032 48.992 17.6867C48.7775 17.807 48.5468 17.9008 48.3605 18.1336C48.5116 18.2397 48.6731 18.2177 48.8103 18.2753C48.9072 18.316 49.0208 18.3522 49.0393 18.4738C49.0612 18.62 48.9522 18.6976 48.8501 18.7642C48.7388 18.8367 48.6235 18.9007 48.4978 18.9356C47.3213 19.2629 46.1888 19.7079 45.1415 20.4039C43.7546 21.3262 42.0828 20.0378 41.7143 18.7345C41.6918 18.6536 41.6728 18.5721 41.652 18.4906C41.6117 18.3315 41.5436 18.2067 41.3724 18.1931C41.182 18.1789 41.0967 18.3089 41.035 18.4777C40.8758 18.9111 40.742 19.3541 40.614 19.7985C40.4433 20.3916 40.2853 20.9886 40.1163 21.5823C40.0056 21.9704 39.9531 22.3495 40.1608 22.7162C40.1608 22.7822 40.1411 22.8384 40.0915 22.8792C39.9433 22.8844 39.7888 22.8384 39.7825 23.1166C39.7761 23.4083 39.6677 23.689 39.6325 23.9813C39.6158 24.1178 39.5956 24.2627 39.4601 24.3351C39.3684 24.3319 39.3303 24.262 39.3015 24.1812C39.2652 23.4639 39.4514 22.7763 39.561 22.0797C39.5783 22.0105 39.6152 21.9497 39.6325 21.8812C39.6377 21.8553 39.67 21.8352 39.6694 21.8171C39.6671 21.7615 39.6936 21.8139 39.6429 21.8243C39.6141 21.898 39.5875 21.9724 39.5345 22.0312C39.4105 22.1651 39.3084 22.3288 39.1273 22.3818C39.046 22.3909 38.9791 22.3702 38.9463 22.279C38.9295 22.1483 39.012 22.0713 39.0824 21.9918C39.5697 21.4413 39.8805 20.7913 40.0477 20.0481C40.174 19.4874 40.3441 18.9389 40.5379 18.4014C40.6307 18.144 40.6221 17.9687 40.3978 17.7914C39.956 17.4415 39.7663 16.9306 39.7432 16.3381C39.7628 16.1712 39.7196 15.9849 39.8666 15.8562C39.9952 15.8342 40.0304 15.939 40.0714 16.0367C40.1584 16.329 40.1181 16.6524 40.2594 16.9344C40.3401 17.0961 40.426 17.2481 40.5529 17.3697C40.7259 17.5353 40.8562 17.5463 40.9543 17.2714C41.5125 15.71 42.3348 14.3052 43.1491 12.8964C43.5136 12.2458 43.9368 11.6404 44.3451 11.0233C44.5002 10.7245 44.7298 10.4839 44.8918 10.1902C44.9806 10.0641 45.0873 9.9535 45.1669 9.82285C45.1323 9.76075 45.1225 9.84678 45.0983 9.83966C44.6877 10.0958 44.2598 10.3157 43.8895 10.6417C43.7546 10.7471 43.6543 10.8965 43.517 10.9987C42.9986 11.2704 42.5989 11.7173 42.1659 12.1145C42.0915 12.1953 42.0153 12.2742 41.9375 12.3512C41.8591 12.4236 41.791 12.5077 41.723 12.5918C41.5875 12.7406 41.4606 12.8984 41.3268 13.0491C41.2155 13.1655 41.1411 13.311 41.0633 13.4533C40.9808 13.5956 40.8989 13.7373 40.8199 13.8822C40.8032 13.9158 40.7841 13.9475 40.764 13.9792C40.7449 14.0122 40.723 14.0426 40.6999 14.0723C40.6498 14.1318 40.5944 14.1816 40.516 14.1849C40.4572 14.1758 40.4168 14.1396 40.3903 14.0827C40.3263 13.7858 40.5425 13.6073 40.64 13.3783C40.7841 13.1138 40.9514 12.8673 41.1296 12.63C41.2593 12.4269 41.4243 12.2581 41.573 12.0737C41.663 11.9702 41.7506 11.8629 41.8389 11.762C41.6595 11.6921 41.479 11.762 41.3003 11.7529C41.0823 11.7451 40.8637 11.7536 40.6492 11.7025C40.3326 11.5492 40.0766 11.5783 39.9168 11.9735C39.8609 12.1112 39.7427 12.207 39.6337 12.3014C39.5131 12.39 39.4042 12.5116 39.2398 12.4825C39.1193 12.5097 38.9987 12.5368 38.8782 12.5633C38.7923 12.5349 38.7081 12.5983 38.6222 12.5718C38.5743 12.5756 38.5259 12.5795 38.478 12.5834C37.9936 12.6345 37.5894 12.3945 37.1914 12.1526C36.6471 11.8215 36.1707 11.3784 35.6506 11.0065C35.5842 10.969 35.5445 10.9049 35.5087 10.8364C35.3951 10.7478 35.2769 10.665 35.1696 10.568C35.0733 10.4813 35.097 10.359 35.2181 10.3041C35.2884 10.2724 35.3634 10.2497 35.4383 10.2336C35.5254 10.2148 35.6142 10.2083 35.7025 10.1961C35.7053 10.0686 35.6125 10.0628 35.5566 10.0253C35.2838 9.84419 35.0047 9.67344 34.7325 9.49104C34.6247 9.4186 34.5255 9.32804 34.4286 9.23814C34.36 9.17411 34.3819 9.07514 34.4661 9.03957C34.6368 8.96778 34.8138 8.93932 34.9949 8.94643C35.2763 8.95743 35.5571 8.97295 35.838 8.98912C35.8887 8.99171 35.9389 9.00658 35.9925 8.93673C35.8259 8.71746 35.6563 8.49496 35.4868 8.27246C35.4378 8.20843 35.383 8.14828 35.3403 8.07907C35.3057 8.02345 35.2636 7.95682 35.3115 7.88762C35.3553 7.82423 35.4285 7.82423 35.4874 7.83975C35.6609 7.88568 35.8374 7.92707 36.0023 7.99887C36.5496 8.23624 37.1136 8.41735 37.6741 8.61074C38.0149 8.72846 38.3523 8.86105 38.685 9.00335C38.9832 9.13077 39.2623 9.30282 39.5224 9.5085C39.6256 9.59 39.7254 9.67796 39.8228 9.76852C40.1642 10.0874 40.3591 10.4748 40.2767 10.989C40.2253 11.1624 40.3314 11.1986 40.4474 11.2348C40.6659 11.3027 40.8885 11.3221 41.1152 11.306C41.4058 11.2995 41.6849 11.2387 41.9473 11.0945C41.9819 11.0718 42.0182 11.0531 42.0557 11.0362C42.5932 10.7769 43.1254 10.5143 43.6127 10.1385C44.2828 9.62105 45.0089 9.20451 45.7413 8.80543C45.916 8.72328 46.0878 8.63338 46.2649 8.5577C46.3733 8.5176 46.4904 8.50984 46.5942 8.45163C46.6143 8.42899 46.6339 8.40635 46.6541 8.38371" fill="#434343"/>
</svg>
