<svg width="190" height="24" viewBox="0 0 190 24" fill="none" xmlns="http://www.w3.org/2000/svg">
<g clip-path="url(#clip0_757_984)">
<path d="M175.774 19.5187V18.6037H176.353C176.564 18.6037 176.757 18.5788 176.931 18.529C177.118 18.4668 177.261 18.3485 177.361 18.1743C177.473 17.9875 177.529 17.7137 177.529 17.3527V8.27799C177.529 7.92945 177.473 7.67426 177.361 7.51243C177.249 7.33816 177.106 7.22613 176.931 7.17633C176.757 7.12654 176.564 7.10165 176.353 7.10165H175.774V6.18671H179.639L186.267 15.8776V8.27799C186.267 7.92945 186.211 7.67426 186.099 7.51243C185.987 7.33816 185.844 7.22613 185.67 7.17633C185.496 7.12654 185.303 7.10165 185.091 7.10165H184.512V6.18671H189.311V7.10165H188.732C188.533 7.10165 188.34 7.13277 188.153 7.19501C187.967 7.2448 187.823 7.35683 187.724 7.53111C187.624 7.70538 187.575 7.97924 187.575 8.35268V19.5187H186.006L178.817 9.06223V17.3527C178.817 17.7137 178.867 17.9875 178.967 18.1743C179.079 18.3485 179.222 18.4668 179.396 18.529C179.583 18.5788 179.782 18.6037 179.994 18.6037H180.572V19.5187H175.774Z" fill="#434343"/>
<path d="M168.024 19.7054C166.518 19.7054 165.267 19.4191 164.271 18.8465C163.275 18.2739 162.534 17.4772 162.049 16.4564C161.563 15.4232 161.321 14.2158 161.321 12.834C161.321 11.4896 161.576 10.3071 162.086 9.28631C162.597 8.25311 163.356 7.45021 164.364 6.87759C165.385 6.29253 166.636 6 168.117 6C169.113 6 169.941 6.09336 170.601 6.28008C171.261 6.46681 171.752 6.72199 172.076 7.04564C172.412 7.3693 172.58 7.73029 172.58 8.12863C172.58 8.55187 172.387 8.90664 172.001 9.19295C171.628 9.47925 171.105 9.62241 170.433 9.62241C170.433 9.16183 170.346 8.74481 170.171 8.37137C170.009 7.98548 169.754 7.6805 169.406 7.45643C169.07 7.23237 168.622 7.12033 168.061 7.12033C167.09 7.12033 166.312 7.3444 165.727 7.79253C165.142 8.24066 164.713 8.88797 164.439 9.73444C164.178 10.5809 164.047 11.6141 164.047 12.834C164.047 14.0539 164.184 15.0871 164.458 15.9336C164.744 16.7676 165.198 17.4087 165.821 17.8568C166.443 18.2925 167.271 18.5104 168.304 18.5104C168.59 18.5104 168.864 18.4979 169.126 18.473C169.4 18.4481 169.655 18.4046 169.891 18.3423V15.5042C169.891 15.1556 169.829 14.888 169.705 14.7012C169.592 14.5145 169.431 14.3838 169.219 14.3091C169.02 14.2344 168.777 14.1971 168.491 14.1971H168.304V13.2822H173.794V14.1971H173.607C173.358 14.1971 173.146 14.2407 172.972 14.3278C172.798 14.4025 172.661 14.5394 172.561 14.7386C172.474 14.9253 172.431 15.2054 172.431 15.5788V18.7531C171.746 19.0768 171.049 19.3195 170.339 19.4813C169.63 19.6307 168.858 19.7054 168.024 19.7054Z" fill="#434343"/>
<path d="M152.7 19.5187V18.6037H153.279C153.503 18.6037 153.702 18.5788 153.876 18.529C154.05 18.4668 154.187 18.3485 154.287 18.1743C154.399 17.9875 154.455 17.7137 154.455 17.3527V8.35268C154.455 7.97924 154.399 7.70538 154.287 7.53111C154.187 7.35683 154.05 7.2448 153.876 7.19501C153.702 7.13277 153.503 7.10165 153.279 7.10165H152.7V6.18671H158.75V7.10165H158.171C157.959 7.10165 157.76 7.13277 157.573 7.19501C157.399 7.2448 157.262 7.35683 157.162 7.53111C157.063 7.70538 157.013 7.97924 157.013 8.35268V17.3527C157.013 17.7137 157.063 17.9875 157.162 18.1743C157.262 18.3485 157.399 18.4668 157.573 18.529C157.76 18.5788 157.959 18.6037 158.171 18.6037H158.75V19.5187H152.7Z" fill="#434343"/>
<path d="M145.337 19.7054C144.578 19.7054 143.937 19.6369 143.414 19.5C142.891 19.3506 142.468 19.1515 142.144 18.9025C141.821 18.6535 141.584 18.3734 141.435 18.0622C141.285 17.7386 141.211 17.4149 141.211 17.0913C141.211 16.7303 141.291 16.4378 141.453 16.2137C141.615 15.9772 141.833 15.8029 142.107 15.6909C142.393 15.5788 142.698 15.5228 143.022 15.5228C143.034 16.1577 143.14 16.7116 143.339 17.1847C143.538 17.6577 143.825 18.0249 144.198 18.2863C144.584 18.5353 145.045 18.6598 145.58 18.6598C146.352 18.6598 146.949 18.4668 147.372 18.0809C147.808 17.6826 148.026 17.1598 148.026 16.5125C148.026 16.0768 147.92 15.7033 147.709 15.3921C147.497 15.0809 147.167 14.7946 146.719 14.5332C146.271 14.2718 145.692 13.9979 144.982 13.7116C144.372 13.4627 143.843 13.195 143.395 12.9087C142.947 12.6224 142.586 12.3174 142.312 11.9938C142.038 11.6701 141.833 11.3154 141.696 10.9295C141.572 10.5311 141.509 10.0892 141.509 9.60374C141.509 8.8693 141.702 8.23444 142.088 7.69917C142.474 7.15145 142.997 6.73444 143.657 6.44813C144.316 6.14938 145.069 6 145.916 6C146.762 6 147.466 6.09959 148.026 6.29876C148.586 6.48548 149.003 6.74066 149.277 7.06432C149.563 7.38797 149.706 7.74274 149.706 8.12863C149.706 8.55187 149.538 8.90042 149.202 9.17427C148.866 9.43569 148.368 9.56639 147.709 9.56639C147.709 9.20539 147.64 8.83195 147.503 8.44606C147.379 8.06017 147.167 7.73652 146.868 7.4751C146.582 7.20124 146.19 7.06432 145.692 7.06432C145.306 7.06432 144.957 7.139 144.646 7.28838C144.348 7.42531 144.111 7.63693 143.937 7.92324C143.762 8.1971 143.675 8.5332 143.675 8.93154C143.675 9.34232 143.762 9.70332 143.937 10.0145C144.111 10.3257 144.416 10.6245 144.852 10.9108C145.287 11.1971 145.904 11.5021 146.7 11.8257C147.509 12.1494 148.169 12.4979 148.679 12.8714C149.202 13.2324 149.588 13.6494 149.837 14.1224C150.099 14.583 150.229 15.1245 150.229 15.7469C150.229 16.5436 150.024 17.2407 149.613 17.8382C149.215 18.4232 148.648 18.8838 147.914 19.2199C147.192 19.5436 146.333 19.7054 145.337 19.7054Z" fill="#434343"/>
<path d="M128.203 19.5187V18.6037H128.782C128.994 18.6037 129.187 18.5788 129.361 18.529C129.535 18.4792 129.678 18.3734 129.79 18.2116C129.902 18.0373 129.958 17.7821 129.958 17.446V8.35268C129.958 7.97924 129.902 7.70538 129.79 7.53111C129.691 7.35683 129.554 7.2448 129.38 7.19501C129.205 7.13277 129.006 7.10165 128.782 7.10165H128.203V6.18671H138.193L138.286 9.56638H137.11L137.017 8.70745C136.992 8.4087 136.923 8.15351 136.811 7.94189C136.712 7.73028 136.568 7.56223 136.382 7.43774C136.195 7.31326 135.952 7.25102 135.653 7.25102H132.517V12.0311H136.961V13.0768H132.517V18.4543H136.195C136.494 18.4543 136.736 18.3921 136.923 18.2676C137.122 18.1307 137.278 17.9564 137.39 17.7448C137.502 17.5207 137.577 17.2718 137.614 16.9979L137.745 16.139H138.921L138.79 19.5187H128.203Z" fill="#434343"/>
<path d="M113.229 19.5187V18.6037H113.808C114.032 18.6037 114.231 18.5788 114.405 18.529C114.58 18.4668 114.717 18.3485 114.816 18.1743C114.928 17.9875 114.984 17.7137 114.984 17.3527V8.27799C114.984 7.92945 114.928 7.67426 114.816 7.51243C114.704 7.33816 114.561 7.22613 114.387 7.17633C114.212 7.12654 114.019 7.10165 113.808 7.10165H113.229V6.18671H119.223C120.567 6.18671 121.712 6.43567 122.658 6.9336C123.617 7.41907 124.351 8.14729 124.862 9.11824C125.372 10.0892 125.627 11.2842 125.627 12.7033C125.627 14.0602 125.385 15.249 124.899 16.2697C124.426 17.2904 123.717 18.0871 122.771 18.6597C121.824 19.2324 120.636 19.5187 119.204 19.5187H113.229ZM118.793 18.4357C119.702 18.4357 120.455 18.2116 121.053 17.7635C121.663 17.3029 122.117 16.6431 122.416 15.7842C122.727 14.9253 122.883 13.8921 122.883 12.6846C122.883 11.4772 122.727 10.4751 122.416 9.67841C122.117 8.86928 121.663 8.26555 121.053 7.86721C120.455 7.45642 119.708 7.25102 118.812 7.25102H117.524V18.4357H118.793Z" fill="#434343"/>
<path d="M91.9603 19.5187V18.6037H92.5392C92.7508 18.6037 92.9437 18.5788 93.118 18.529C93.3047 18.4668 93.4479 18.3485 93.5475 18.1743C93.6595 17.9875 93.7155 17.7137 93.7155 17.3527V8.27799C93.7155 7.92945 93.6595 7.67426 93.5475 7.51243C93.4354 7.33816 93.2923 7.22613 93.118 7.17633C92.9437 7.12654 92.7508 7.10165 92.5392 7.10165H91.9603V6.18671H95.8255L102.454 15.8776V8.27799C102.454 7.92945 102.398 7.67426 102.286 7.51243C102.174 7.33816 102.031 7.22613 101.857 7.17633C101.682 7.12654 101.489 7.10165 101.278 7.10165H100.699V6.18671H105.498V7.10165H104.919C104.72 7.10165 104.527 7.13277 104.34 7.19501C104.153 7.2448 104.01 7.35683 103.911 7.53111C103.811 7.70538 103.761 7.97924 103.761 8.35268V19.5187H102.193L95.0039 9.06223V17.3527C95.0039 17.7137 95.0537 17.9875 95.1533 18.1743C95.2653 18.3485 95.4085 18.4668 95.5827 18.529C95.7695 18.5788 95.9686 18.6037 96.1802 18.6037H96.7591V19.5187H91.9603Z" fill="#434343"/>
<path d="M76.7362 19.5187V18.6037H77.0163C77.2528 18.6037 77.452 18.5664 77.6138 18.4917C77.7756 18.417 77.925 18.2801 78.0619 18.0809C78.1989 17.8817 78.342 17.5892 78.4914 17.2033L82.5806 6.18671H84.7092L88.7424 17.39C88.8545 17.7137 88.9727 17.9626 89.0972 18.1369C89.2341 18.3112 89.3835 18.4357 89.5453 18.5104C89.7196 18.5726 89.9126 18.6037 90.1242 18.6037H90.4229V19.5187H84.6532V18.6037H85.2694C85.5184 18.6037 85.73 18.5415 85.9043 18.417C86.091 18.2925 86.1843 18.0934 86.1843 17.8195C86.1843 17.7324 86.1719 17.6452 86.147 17.5581C86.1346 17.4585 86.1159 17.3714 86.091 17.2967C86.0785 17.2095 86.0536 17.1286 86.0163 17.0539L85.3441 15.0934H80.6574L80.0599 16.8485C80.0225 16.9481 79.9852 17.0539 79.9478 17.166C79.9229 17.278 79.898 17.39 79.8731 17.5021C79.8607 17.6141 79.8545 17.7137 79.8545 17.8008C79.8545 18.0747 79.9478 18.2801 80.1345 18.417C80.3213 18.5415 80.5578 18.6037 80.8441 18.6037H81.4789V19.5187H76.7362ZM81.0308 14.0477H84.9707L83.925 10.8921C83.8254 10.5809 83.7196 10.2572 83.6076 9.92115C83.508 9.58505 83.4084 9.25517 83.3088 8.93152C83.2217 8.60787 83.1408 8.30289 83.0661 8.01658C83.0163 8.21575 82.9541 8.42737 82.8794 8.65144C82.8171 8.8755 82.7487 9.1058 82.674 9.34231C82.6117 9.57882 82.537 9.82156 82.4499 10.0705C82.3752 10.307 82.2943 10.5436 82.2072 10.7801L81.0308 14.0477Z" fill="#434343"/>
<path d="M69.439 19.7054C68.3934 19.7054 67.4971 19.5622 66.7502 19.2759C66.0033 18.9896 65.4307 18.5353 65.0324 17.9129C64.634 17.2904 64.4349 16.4751 64.4349 15.4668V8.27799C64.4349 7.92945 64.3789 7.67426 64.2668 7.51243C64.1548 7.33816 64.0116 7.22613 63.8374 7.17633C63.6631 7.12654 63.4701 7.10165 63.2585 7.10165H62.6797V6.18671H68.7295V7.10165H68.1506C67.939 7.10165 67.7399 7.13277 67.5531 7.19501C67.3789 7.2448 67.2357 7.35683 67.1237 7.53111C67.0241 7.70538 66.9743 7.97924 66.9743 8.35268V15.5975C66.9743 16.307 67.0988 16.8734 67.3477 17.2967C67.5967 17.7075 67.939 18.0062 68.3747 18.1929C68.8104 18.3672 69.3145 18.4543 69.8872 18.4543C70.5096 18.4543 71.0324 18.3485 71.4556 18.1369C71.8913 17.9253 72.215 17.6079 72.4266 17.1846C72.6507 16.7614 72.7627 16.251 72.7627 15.6535V8.27799C72.7627 7.92945 72.7067 7.67426 72.5946 7.51243C72.4826 7.33816 72.3394 7.22613 72.1652 7.17633C71.9909 7.12654 71.798 7.10165 71.5863 7.10165H71.0075V6.18671H75.8249V7.10165H75.2274C75.0282 7.10165 74.8353 7.13277 74.6486 7.19501C74.4619 7.2448 74.3187 7.35683 74.2191 7.53111C74.1195 7.70538 74.0697 7.97924 74.0697 8.35268V15.6909C74.0697 16.5124 73.9017 17.2282 73.5656 17.8382C73.2295 18.4357 72.7191 18.8963 72.0345 19.2199C71.3498 19.5436 70.4847 19.7054 69.439 19.7054Z" fill="#434343"/>
<path d="M54 24V22.9917H54.2614C54.722 22.9917 55.1328 22.8859 55.4938 22.6743C55.8548 22.4751 56.1411 22.1265 56.3527 21.6286C56.5768 21.1431 56.6888 20.4709 56.6888 19.612V8.27799C56.6888 7.92945 56.6328 7.67426 56.5207 7.51243C56.4087 7.33816 56.2656 7.22613 56.0913 7.17633C55.917 7.12654 55.7241 7.10165 55.5124 7.10165H54.9336V6.18671H61.0021V7.10165H60.4232C60.2116 7.10165 60.0125 7.13277 59.8257 7.19501C59.639 7.2448 59.4896 7.35683 59.3776 7.53111C59.278 7.70538 59.2282 7.97924 59.2282 8.35268V19.5934C59.2282 20.4398 59.1037 21.1431 58.8548 21.7033C58.6058 22.2759 58.2635 22.7241 57.8278 23.0477C57.3921 23.3838 56.888 23.6265 56.3154 23.7759C55.7427 23.9253 55.1515 24 54.5415 24H54Z" fill="#434343"/>
<path d="M13.9624 6.78703C14.089 6.98495 14.2125 7.24238 14.3323 7.56017C14.452 7.87797 14.5125 8.17808 14.5125 8.46052C14.5129 8.9978 14.3833 9.48505 14.1242 9.92315C13.8646 10.3617 13.5312 10.733 13.1235 11.0369C12.7159 11.3414 12.2628 11.5785 11.7642 11.7484C11.2652 11.9188 10.7696 12.0041 10.2779 12.0046C9.85611 12.005 9.46607 11.9244 9.10736 11.7622C8.74866 11.6005 8.43886 11.3815 8.17884 11.1064C7.91839 10.8313 7.71415 10.51 7.56611 10.1426C7.41808 9.77568 7.34385 9.38717 7.34342 8.9771C7.34256 8.22853 7.53479 7.56405 7.92096 6.98452C8.3067 6.40498 8.82289 5.89918 9.46951 5.46755C10.1153 5.03592 10.8674 4.67112 11.7247 4.3736C12.5816 4.07607 13.4848 3.82425 14.4339 3.61813C15.3826 3.41245 16.3455 3.25247 17.3225 3.13777C18.2995 3.02394 19.231 2.9377 20.1167 2.88035C21.0023 2.823 21.8175 2.78677 22.5628 2.77168C23.3077 2.75702 23.9196 2.74883 24.3976 2.7484C24.51 2.7484 24.6645 2.72684 24.8614 2.68415C25.0579 2.64146 25.2622 2.59877 25.4729 2.55608C25.6835 2.51339 25.8839 2.4707 26.0736 2.42845C26.2632 2.38576 26.4142 2.36463 26.5271 2.3642C27.0047 2.36377 27.2441 2.49054 27.2445 2.74495C27.2445 2.91441 27.1673 3.04161 27.0128 3.12656C26.8579 3.21151 26.6472 3.2542 26.3804 3.25463C26.1409 3.25506 25.8848 3.23393 25.6106 3.1921C25.3364 3.14985 25.0652 3.11535 24.7983 3.08689C24.6014 3.11578 24.3203 3.20418 23.9552 3.35294C23.5896 3.50171 23.1824 3.73542 22.7328 4.05364C22.2831 4.37187 21.8124 4.78927 21.3211 5.30542C20.8294 5.822 20.3591 6.45457 19.9103 7.204C18.3948 9.74895 17.2195 11.7635 16.385 13.2481C15.55 14.7328 14.9922 15.7155 14.7116 16.1958C16.0185 15.9117 17.1848 15.3912 18.2107 14.634C19.2358 13.8773 20.1699 12.9467 21.0121 11.8442L21.2022 11.9287C20.8933 12.353 20.5286 12.795 20.1072 13.2546C19.6859 13.7143 19.2049 14.1532 18.6642 14.5702C18.1232 14.9876 17.5122 15.3662 16.8308 15.706C16.149 16.0458 15.3938 16.3084 14.5648 16.4929C13.9332 17.5533 13.2312 18.536 12.4593 19.4411C11.687 20.3457 10.8511 21.1279 9.95265 21.7859C9.05373 22.4439 8.09474 22.9571 7.07568 23.3257C6.05662 23.694 4.98478 23.879 3.86016 23.8803C3.42465 23.8807 2.98184 23.8315 2.53131 23.7337C2.0812 23.6353 1.67701 23.4767 1.3183 23.258C0.959591 23.039 0.667388 22.7535 0.442122 22.4008C0.216856 22.0477 0.104008 21.6169 0.10315 21.1085C0.102721 20.529 0.270491 20.0383 0.607747 19.6351C0.944573 19.2319 1.41184 18.8956 2.00912 18.6269C2.60639 18.3579 3.31952 18.1345 4.14893 17.9569C4.97791 17.7792 5.87769 17.6192 6.84784 17.4769C7.88792 17.3204 8.80873 17.1923 9.60982 17.0923C10.4109 16.9927 11.0223 16.8931 11.4441 16.7935C11.8651 16.1148 12.2684 15.4257 12.6546 14.7259C13.0403 14.026 13.4295 13.3193 13.8225 12.6052C14.2151 11.8916 14.6223 11.1844 15.0432 10.4846C15.4642 9.78474 15.9061 9.10948 16.3695 8.45923C17.5624 6.83317 18.8157 5.59519 20.1295 4.74615C21.4429 3.89712 22.8169 3.33052 24.2504 3.04593V3.00367C24.0251 3.0041 23.642 3.00798 23.1009 3.01574C22.5594 3.0235 21.9235 3.05239 21.1924 3.10285C20.4612 3.1533 19.6704 3.22832 18.82 3.32793C17.9691 3.42797 17.1153 3.57372 16.258 3.76517C15.4007 3.95705 14.5713 4.1981 13.7702 4.48873C12.9691 4.77936 12.2632 5.13682 11.6518 5.56155C11.0408 5.98629 10.5491 6.48476 10.1775 7.05739C9.80548 7.63003 9.62011 8.29106 9.62097 9.03962C9.62183 9.70367 9.81921 10.2155 10.2131 10.5756C10.607 10.9356 11.1206 11.115 11.7531 11.1141C12.0762 11.1137 12.389 11.0391 12.691 10.8903C12.9931 10.7416 13.26 10.5437 13.4917 10.2961C13.7234 10.0486 13.9092 9.75887 14.0495 9.42641C14.1894 9.09439 14.2597 8.75158 14.2593 8.39843C14.2589 7.97456 14.1036 7.4873 13.7938 6.93665L13.9624 6.78703ZM2.38027 21.4871C2.38113 22.1231 2.5785 22.6384 2.9724 23.0334C3.36672 23.4284 3.88677 23.6259 4.53339 23.625C5.37696 23.6241 6.13213 23.3969 6.79978 22.9441C7.467 22.4909 8.07071 21.9325 8.61135 21.2676C9.15156 20.6027 9.64328 19.8921 10.0852 19.1362C10.5272 18.3799 10.9447 17.6973 11.3377 17.0897C10.8177 17.1751 10.2972 17.2536 9.77759 17.3247C9.25754 17.3963 8.74093 17.4743 8.22775 17.5597C7.71458 17.6451 7.19796 17.7482 6.67792 17.8689C6.15788 17.9892 5.63784 18.1487 5.11779 18.3475C4.78054 18.4752 4.45015 18.6343 4.12705 18.8253C3.80352 19.0163 3.51261 19.2427 3.25259 19.5044C2.99299 19.7662 2.78232 20.0628 2.62098 20.3953C2.46051 20.7273 2.37984 21.0913 2.38027 21.4871Z" fill="#434343"/>
<path fill-rule="evenodd" clip-rule="evenodd" d="M0.895813 14.1937C1.28241 13.0726 1.80031 11.9864 2.41046 10.9459C3.02833 9.91061 3.73975 8.92101 4.53869 8.00427C6.13272 6.16563 8.04383 4.59476 10.1292 3.35722C12.2149 2.11751 14.4749 1.20466 16.7855 0.648411C17.363 0.509133 17.9444 0.395296 18.5258 0.297413C19.1081 0.205136 19.6912 0.132263 20.2734 0.0818126C21.4384 -0.0143453 22.5986 -0.0272813 23.7378 0.0511973C26.0175 0.203842 28.211 0.697568 30.2092 1.45691C30.2718 1.48063 30.3345 1.50305 30.3967 1.5272C30.4585 1.55178 30.5203 1.57679 30.582 1.60137C30.7052 1.65138 30.8288 1.69968 30.9506 1.75056C31.1931 1.85621 31.4363 1.95668 31.6728 2.06879C32.1495 2.28439 32.6094 2.52241 33.06 2.76388C33.2827 2.88979 33.5066 3.0101 33.7225 3.14118C33.831 3.20586 33.9392 3.27054 34.0469 3.33479C34.1533 3.40163 34.2588 3.46804 34.3644 3.53444C34.4172 3.56764 34.4699 3.60085 34.5223 3.63405C34.5742 3.66854 34.6257 3.70261 34.6776 3.7371C34.7806 3.80567 34.8836 3.87423 34.9857 3.94236C35.0865 4.01307 35.1869 4.08336 35.2873 4.15321C35.3873 4.2235 35.4877 4.29292 35.5842 4.3658C36.3673 4.94016 37.0946 5.54427 37.7601 6.1708C38.4252 6.79777 39.0315 7.44328 39.5803 8.09482C40.6787 9.39791 41.5441 10.7239 42.2135 11.9821C43.0309 13.506 43.5587 14.9298 43.9075 16.1919C44.2568 17.4553 44.4318 18.5592 44.5125 19.4945C44.594 20.4306 44.5842 21.199 44.5417 21.8156C44.5297 21.97 44.5185 22.1149 44.5039 22.2503C44.4876 22.3861 44.4709 22.5129 44.4537 22.631C44.4447 22.6901 44.4361 22.7466 44.428 22.8018C44.4185 22.8566 44.4082 22.9092 44.3984 22.9596C44.3782 23.0605 44.3585 23.1537 44.3383 23.2382C44.3001 23.4081 44.2559 23.5461 44.2156 23.656C44.1753 23.766 44.1366 23.847 44.1015 23.9031C44.0307 24.0148 43.9714 24.0255 43.9303 23.9579C43.8891 23.8902 43.8659 23.744 43.8668 23.5392C43.8685 23.4365 43.871 23.3197 43.8809 23.1903C43.8899 23.061 43.9092 22.9187 43.9294 22.7664C43.9496 22.6147 43.9667 22.4745 43.9822 22.3456C43.998 22.2162 44.0049 22.0989 44.0135 21.9911C44.0212 21.8838 44.0272 21.7863 44.0315 21.6988C44.0345 21.6113 44.0345 21.5336 44.0341 21.4651C44.0315 21.1895 44.0079 21.0567 43.9723 21.0123C43.938 20.9679 43.8964 21.0106 43.856 21.0843C43.8161 21.1581 43.7741 21.2633 43.7453 21.3435C43.4909 21.785 43.2394 21.7238 43.0052 21.3763C42.7679 21.0278 42.5396 20.3901 42.2779 19.6497C42.0187 18.9085 41.7269 18.0633 41.427 17.2773C41.1271 16.4916 40.8177 15.7663 40.5924 15.242C40.1449 14.1929 39.7347 13.3175 39.6051 12.8609C39.5391 12.6341 39.5472 12.5103 39.6498 12.5315C39.751 12.5534 39.9536 12.7164 40.2552 13.0791C39.8862 12.4827 39.5597 11.9705 39.2838 11.5406C39.2168 11.4315 39.1503 11.3297 39.0885 11.2322C39.0267 11.1348 38.9701 11.0408 38.9165 10.9524C38.8062 10.7778 38.7152 10.6195 38.6389 10.482C38.3303 9.93476 38.2926 9.68854 38.5487 9.8041C38.6775 9.86145 38.8332 9.98909 38.9997 10.1322C39.0834 10.2034 39.1636 10.2832 39.2451 10.3599C39.3262 10.4367 39.406 10.5121 39.479 10.5816C39.7686 10.861 39.9874 11.0248 39.933 10.6769C39.9441 10.5691 39.9248 10.4276 39.878 10.256C39.8274 10.087 39.7506 9.88603 39.6442 9.66224C39.4305 9.21552 39.101 8.6735 38.665 8.08534C38.2291 7.49718 37.6842 6.86504 37.0508 6.23764C36.4192 5.60852 35.6937 4.99061 34.9162 4.41625C34.14 3.83973 33.3037 3.31798 32.4636 2.86177C32.3593 2.80312 32.2533 2.74922 32.1478 2.69489C32.0422 2.64056 31.9371 2.58666 31.8328 2.53319C31.7268 2.48231 31.6217 2.43143 31.517 2.38098C31.4123 2.33053 31.3085 2.27964 31.2034 2.23394C30.9935 2.14037 30.788 2.04507 30.5812 1.96142C30.4782 1.91873 30.3761 1.87604 30.2753 1.83421C30.1731 1.79454 30.0719 1.7553 29.9719 1.7165C29.1699 1.40776 28.4152 1.17405 27.7617 1.00156C27.6802 0.980005 27.5999 0.958876 27.5219 0.938178C27.4438 0.91748 27.3665 0.900664 27.2914 0.882553C27.1413 0.847626 26.9988 0.812267 26.8641 0.783377C26.5933 0.728183 26.3565 0.675145 26.1552 0.642374C25.7541 0.568639 25.3833 0.51517 25.0499 0.472481C24.883 0.453508 24.7256 0.435397 24.5779 0.418581C24.4303 0.406507 24.2926 0.394865 24.166 0.384516C24.1025 0.379773 24.042 0.375029 23.9841 0.370717C23.9262 0.367699 23.8708 0.365112 23.8185 0.362524C23.7138 0.358212 23.6207 0.354763 23.5391 0.351313C23.377 0.344845 23.2624 0.347864 23.2019 0.352176C23.141 0.356919 23.1341 0.364249 23.1852 0.374598C23.2362 0.385378 23.3461 0.395727 23.519 0.417287C23.6919 0.438416 23.9283 0.45782 24.2321 0.497059C24.384 0.515601 24.5535 0.532849 24.7397 0.560877C24.9259 0.587612 25.1306 0.61219 25.352 0.650136C26.8817 0.879966 28.2745 1.25209 29.5128 1.70701C30.1324 1.93382 30.7146 2.17917 31.2608 2.43445C31.8058 2.69274 32.3138 2.96224 32.7879 3.23346C33.7319 3.78367 34.539 4.34294 35.217 4.88626C35.8962 5.42784 36.4523 5.94485 36.9054 6.41012C37.3598 6.87409 37.7069 7.2915 37.9742 7.63646C38.1051 7.81152 38.2205 7.9646 38.3115 8.10474C38.4033 8.24402 38.4771 8.36389 38.5337 8.46479C38.7534 8.874 38.7041 8.97189 38.4226 8.76448C38.3338 8.69807 38.2402 8.63038 38.1458 8.55707C38.051 8.48463 37.9562 8.40615 37.8575 8.32681C37.6588 8.16942 37.4572 7.99478 37.2439 7.81713C36.8204 7.45837 36.372 7.06555 35.9043 6.67703C35.4384 6.28723 34.9578 5.89699 34.4849 5.5309C34.0134 5.16309 33.544 4.82675 33.1153 4.52836C32.2499 3.93201 31.653 3.61809 31.3849 3.48356C31.2488 3.42017 31.1931 3.40292 31.2175 3.42966C31.2415 3.45682 31.3467 3.52582 31.526 3.64526C31.6148 3.70347 31.7122 3.76772 31.8126 3.83369C31.9113 3.90182 32.0122 3.97254 32.1091 4.04196C32.1572 4.07689 32.2048 4.11096 32.2507 4.14459C32.2962 4.17865 32.3391 4.21315 32.3799 4.24549C32.4614 4.31103 32.5326 4.3714 32.588 4.42315C32.6987 4.5262 32.7425 4.59908 32.6764 4.60641C32.6099 4.61374 32.4297 4.5607 32.0903 4.42013C31.5942 4.21617 31.0618 3.96909 30.4619 3.69269C29.8621 3.41715 29.194 3.11316 28.4259 2.80787C27.6579 2.50301 26.7898 2.1934 25.7927 1.9308C25.5438 1.86181 25.2859 1.80317 25.0212 1.74021C24.8886 1.71003 24.7534 1.68329 24.6166 1.6544C24.5479 1.64017 24.4793 1.62594 24.4098 1.61171C24.3402 1.59921 24.2699 1.5867 24.1995 1.57377C24.0583 1.54962 23.9155 1.52073 23.77 1.49917C23.6241 1.47718 23.4769 1.45519 23.3276 1.43277C23.0281 1.39482 22.7205 1.35472 22.4034 1.32842C21.7782 1.28098 21.1436 1.2564 20.5047 1.26934C19.8662 1.28055 19.2239 1.32022 18.5833 1.38792C17.9422 1.45605 17.3038 1.55738 16.6717 1.68243C16.0393 1.80791 15.4137 1.96012 14.8001 2.1408C12.3406 2.85142 10.0832 3.98634 8.23434 5.28037C7.30711 5.92502 6.4837 6.61408 5.76628 7.29581C5.05187 7.98185 4.44472 8.66315 3.94699 9.30219C3.44883 9.9408 3.05966 10.5371 2.76917 11.0516C2.47868 11.5664 2.28131 11.9963 2.17275 12.3167C2.84812 10.9934 3.71572 9.74417 4.71633 8.61787C5.71651 7.49028 6.84885 6.48601 8.04941 5.62361C9.2504 4.76121 10.52 4.0411 11.8008 3.46372C13.0821 2.88678 14.3727 2.44695 15.6257 2.14166C16.8807 1.83163 18.0366 1.66863 19.0403 1.59921C20.0447 1.52677 20.8977 1.55005 21.565 1.60611C21.7319 1.62249 21.8872 1.63931 22.0309 1.65613C22.1026 1.66389 22.1717 1.67338 22.2373 1.68416C22.303 1.69494 22.3656 1.70528 22.4257 1.71477C22.545 1.7359 22.6522 1.75444 22.7471 1.77686C22.8415 1.79929 22.9239 1.82128 22.9929 1.84284C23.2697 1.92822 23.3405 2.00497 23.1864 2.06706C22.8775 2.19211 22.1451 2.24644 21.0874 2.32535C20.0297 2.40944 18.6421 2.52026 17.0232 2.79665C17.0296 2.86306 17.0249 2.93938 16.9107 3.03425C16.8537 3.08168 16.7691 3.13342 16.6456 3.19207C16.5224 3.2533 16.3598 3.321 16.1461 3.39689C15.7209 3.55772 15.091 3.75565 14.1779 4.07732C13.2679 4.4046 12.0673 4.84745 10.5569 5.60809C9.79705 5.98927 9.05732 6.41874 8.34848 6.89134C7.63964 7.36394 6.96556 7.8844 6.33138 8.43677C6.17091 8.57303 6.01901 8.71748 5.86411 8.85805C5.7105 9.00035 5.5629 9.14739 5.41315 9.29184C5.34064 9.366 5.26812 9.4406 5.19561 9.51434C5.12352 9.5885 5.05015 9.66181 4.98107 9.73856C4.84205 9.89078 4.70002 10.0395 4.56744 10.1956C4.02852 10.8114 3.54022 11.4517 3.109 12.1054C2.24956 13.415 1.62353 14.7754 1.23221 16.072C0.837888 17.3695 0.677412 18.5989 0.670118 19.6627C0.501061 21.0231 0.521228 22.4047 0.718175 23.7673C0.504493 23.1304 0.325997 22.4443 0.199848 21.713C0.0741277 20.9817 0.00375874 20.2055 0.00032611 19.3927C-0.0108299 17.768 0.263781 15.9923 0.895813 14.1937Z" fill="#434343"/>
<path d="M18.4298 17.6917L17.8789 18.5424C17.3752 19.2987 16.9714 19.9158 16.6672 20.3936C16.363 20.8718 16.127 21.2603 15.9592 21.5595C15.7914 21.8588 15.6812 22.0899 15.6288 22.2525C15.5765 22.4155 15.5503 22.5595 15.5507 22.6854C15.5507 22.8221 15.5906 22.932 15.6696 23.0157C15.7485 23.0998 15.8511 23.1416 15.9772 23.1412C16.1875 23.1407 16.4578 23.0226 16.7886 22.7859C17.1194 22.5496 17.4816 22.2055 17.875 21.7536C18.2685 21.3021 18.686 20.7506 19.1267 20.099C19.5673 19.4479 20.0024 18.7076 20.4324 17.8775L22.7185 17.812C22.6241 17.9693 22.4902 18.1798 22.3173 18.4424C22.1444 18.705 21.95 18.9913 21.735 19.3009C21.5196 19.6109 21.2995 19.9391 21.0743 20.2858C20.8486 20.6324 20.6439 20.9658 20.4607 21.2861C20.277 21.6065 20.1277 21.9058 20.0123 22.1839C19.8969 22.4625 19.8394 22.6906 19.8398 22.8691C19.8398 23.0161 19.8715 23.1183 19.9346 23.1761C19.9977 23.2339 20.0818 23.2623 20.1869 23.2623C20.3654 23.2619 20.5731 23.1886 20.8095 23.0411C21.0459 22.8941 21.2978 22.7022 21.5656 22.4655C21.8333 22.2292 22.1062 21.9636 22.3842 21.6695C22.6623 21.3754 22.9249 21.0813 23.1716 20.7868C23.4179 20.4927 23.6462 20.2142 23.8564 19.9516C24.0662 19.689 24.2344 19.4738 24.3601 19.3056L24.5022 19.4315C24.3237 19.642 24.119 19.8912 23.8882 20.1801C23.6573 20.469 23.408 20.7713 23.1403 21.0861C22.8725 21.4013 22.5893 21.7139 22.2898 22.0239C21.9908 22.334 21.6835 22.6099 21.3686 22.8514C21.0537 23.0933 20.7357 23.2904 20.4156 23.443C20.0951 23.5952 19.7772 23.672 19.4622 23.6724C19.2309 23.6728 19.031 23.6362 18.8628 23.5629C18.6946 23.4896 18.5577 23.39 18.4526 23.2645C18.3475 23.1386 18.2681 22.9946 18.2157 22.832C18.163 22.6694 18.1364 22.5043 18.1364 22.3361C18.1364 22.2102 18.1518 22.0843 18.1831 21.9584C18.2144 21.8325 18.2458 21.7277 18.2775 21.6432L18.2462 21.6117C18.0154 21.8743 17.7789 22.1291 17.5378 22.3762C17.2962 22.6233 17.0443 22.8441 16.7818 23.0385C16.5192 23.233 16.2514 23.3882 15.9785 23.5038C15.7052 23.6194 15.4267 23.6776 15.1431 23.678C14.7016 23.6784 14.3755 23.5504 14.1652 23.2934C13.955 23.0368 13.8494 22.7087 13.849 22.3098C13.8486 22.0998 13.8958 21.8609 13.9902 21.5932C14.0846 21.3254 14.2051 21.0447 14.3519 20.7506C14.4986 20.4565 14.6638 20.1573 14.8475 19.8524C15.0311 19.548 15.2066 19.2617 15.3748 18.9939C15.5426 18.7261 15.6975 18.4846 15.8391 18.269C15.9807 18.0539 16.0879 17.8831 16.1617 17.7568L18.4298 17.6917Z" fill="#434343"/>
<path d="M31.5782 17.8016C31.4627 17.9698 31.313 18.1854 31.1298 18.4476C30.9461 18.7102 30.7492 18.9939 30.5394 19.2983C30.3295 19.6032 30.1197 19.9205 29.9099 20.2517C29.7001 20.5824 29.5087 20.9054 29.3358 21.2206C29.1629 21.5358 29.0213 21.8299 28.911 22.1028C28.8012 22.3762 28.7462 22.6069 28.7462 22.7958C28.7467 23.1002 28.8677 23.2524 29.1092 23.252C29.3298 23.2516 29.5898 23.1468 29.8893 22.9364C30.1888 22.7264 30.5166 22.4452 30.8736 22.0929C31.2302 21.7411 31.603 21.3284 31.9914 20.8558C32.3797 20.3832 32.7731 19.8843 33.1722 19.3587L33.267 19.4216C32.8474 19.9576 32.438 20.4802 32.0394 20.9895C31.6404 21.4992 31.2443 21.9506 30.8509 22.3447C30.457 22.7389 30.0635 23.0567 29.6696 23.2986C29.2757 23.5405 28.8741 23.6616 28.4639 23.6621C28.1065 23.6625 27.8332 23.6051 27.6439 23.49C27.4547 23.3749 27.3148 23.2304 27.2256 23.0575C27.1359 22.8846 27.0831 22.7035 27.0672 22.5146C27.0514 22.3258 27.0432 22.158 27.0428 22.011L26.9956 21.9795C26.8274 22.1792 26.6468 22.3788 26.4524 22.5785C26.258 22.7781 26.0456 22.9596 25.8143 23.1222C25.5831 23.2852 25.3415 23.4167 25.0896 23.5168C24.8373 23.6168 24.5696 23.6668 24.2855 23.6672C23.7809 23.6677 23.3999 23.5189 23.142 23.2201C22.8842 22.9213 22.755 22.4413 22.7542 21.7799C22.7537 21.3181 22.8687 20.8429 23.0991 20.3548C23.3295 19.8662 23.6578 19.4199 24.083 19.0154C24.5082 18.611 25.0145 18.2772 25.6032 18.0138C26.1915 17.7507 26.8377 17.6188 27.5418 17.6179C27.9516 17.6175 28.2644 17.7193 28.4802 17.9236C28.6956 18.128 28.8355 18.3824 28.899 18.6869H28.9303L29.3392 17.8676L31.5782 17.8016ZM25.3252 22.973C25.5457 22.9726 25.8294 22.8307 26.1761 22.547C26.5227 22.2633 26.8634 21.9006 27.1994 21.4595C27.5349 21.0184 27.8237 20.5376 28.0649 20.018C28.306 19.498 28.4261 19.0021 28.4257 18.5299C28.4253 18.2884 28.3541 18.1078 28.212 17.987C28.07 17.8667 27.9095 17.8064 27.731 17.8068C27.5105 17.8072 27.2869 17.881 27.0612 18.028C26.8351 18.1755 26.6146 18.3725 26.3996 18.6192C26.1842 18.8662 25.9795 19.1448 25.7856 19.4544C25.5912 19.7644 25.4209 20.0792 25.2746 20.3996C25.1278 20.72 25.0124 21.0373 24.9287 21.3526C24.8446 21.6678 24.8034 21.9459 24.8034 22.1869C24.8034 22.3654 24.8378 22.5409 24.9064 22.7143C24.9755 22.8868 25.1149 22.9734 25.3252 22.973Z" fill="#434343"/>
<path d="M30.277 23.471L33.5337 17.8939L35.7722 17.7969C35.0166 18.8473 34.2927 19.9188 33.6002 21.011L33.6319 21.0425C33.9048 20.6958 34.2091 20.3228 34.545 19.9235C34.881 19.5243 35.235 19.1539 35.6079 18.8123C35.9803 18.4708 36.3639 18.1845 36.7578 17.953C37.1517 17.7218 37.543 17.6058 37.9317 17.605C38.3312 17.6046 38.665 17.7063 38.9332 17.9107C39.2014 18.1151 39.3357 18.4273 39.3361 18.8468C39.3365 19.1931 39.2293 19.5501 39.0143 19.9179C38.7993 20.2858 38.5603 20.6454 38.2982 20.9972C38.0356 21.3495 37.797 21.6854 37.582 22.0058C37.3671 22.3262 37.2598 22.6073 37.2598 22.8484C37.2598 22.9536 37.289 23.045 37.3469 23.1239C37.4048 23.2024 37.4967 23.2416 37.6228 23.2416C37.8541 23.2412 38.1167 23.1334 38.4106 22.9178C38.7045 22.7026 39.0092 22.437 39.3241 22.1218C39.5657 21.8803 39.8068 21.6203 40.0484 21.3418C40.2895 21.0636 40.5152 20.7954 40.7255 20.538C40.9353 20.2806 41.1241 20.0443 41.2923 19.8287C41.4601 19.6135 41.5914 19.4428 41.6857 19.3164L41.8278 19.3949C41.4708 19.8675 41.0902 20.356 40.6864 20.8606C40.2822 21.3646 39.8755 21.8273 39.4661 22.2473C39.0358 22.6888 38.6183 23.0329 38.2141 23.28C37.8095 23.5271 37.3971 23.6509 36.977 23.6513C36.5042 23.6517 36.1493 23.5129 35.9125 23.2352C35.6756 22.9575 35.5572 22.5979 35.5564 22.1572C35.5559 21.7794 35.6581 21.4198 35.8623 21.0783C36.067 20.7372 36.2948 20.4164 36.5471 20.1172C36.799 19.8179 37.0272 19.5419 37.2319 19.2897C37.4366 19.0374 37.5387 18.8011 37.5387 18.5808C37.5383 18.2871 37.3963 18.1401 37.1126 18.1405C36.9234 18.141 36.6921 18.2384 36.4192 18.4325C36.1459 18.6269 35.852 18.8818 35.5371 19.197C35.2221 19.5122 34.902 19.8645 34.5768 20.253C34.2515 20.6419 33.9443 21.0304 33.656 21.419C33.3672 21.8079 33.1153 22.1753 32.9004 22.522C32.6854 22.8687 32.5253 23.152 32.4207 23.3727L30.277 23.471Z" fill="#434343"/>
<path d="M34.7209 6.06258C34.6261 6.1126 34.3244 6.27387 34.1266 6.5037C34.0914 6.54423 33.9623 6.67834 33.8443 6.86591C33.737 7.03666 33.5813 7.17292 33.4847 7.35144C33.4169 7.45967 33.3178 7.54376 33.2496 7.65156C33.1204 7.88268 32.9368 8.07672 32.7956 8.29965C32.4554 8.85849 32.0392 9.3686 31.7101 9.93434C31.4097 10.4501 31.1196 10.9709 30.8661 11.5108C30.842 11.5621 30.8184 11.6143 30.8068 11.6699C30.797 11.7165 30.7901 11.7678 30.8437 11.7928C30.8909 11.8148 30.9364 11.7967 30.9755 11.7652C31.0295 11.7221 31.0557 11.6604 31.0862 11.6018C31.4535 10.8869 32.0984 10.5785 32.851 10.4367C33.3723 10.3384 33.8984 10.3901 34.4223 10.4022C34.8522 10.4125 35.2796 10.419 35.7039 10.3194C35.8494 10.2853 36.0287 10.2465 36.1223 10.4C36.2154 10.5522 36.0643 10.6575 35.9811 10.767C35.855 10.9339 35.6833 11.0602 35.5198 11.2517C35.8288 11.2969 36.1176 11.3125 36.3982 11.3685C36.5132 11.3914 36.6719 11.3741 36.6869 11.5393C36.7007 11.6898 36.5625 11.7355 36.4527 11.7911C36.293 11.8713 36.1214 11.9338 35.9828 12.089C36.0952 12.1598 36.2154 12.1451 36.3175 12.1835C36.3896 12.2106 36.4741 12.2348 36.4879 12.3159C36.5042 12.4133 36.4231 12.4651 36.3471 12.5095C36.2643 12.5578 36.1785 12.6005 36.0849 12.6237C35.2096 12.8419 34.3669 13.1386 33.5877 13.6026C32.5558 14.2175 31.3119 13.3585 31.0377 12.4896C31.021 12.4357 31.0068 12.3814 30.9914 12.3271C30.9613 12.221 30.9107 12.1378 30.7832 12.1287C30.6417 12.1192 30.5782 12.2059 30.5322 12.3184C30.4138 12.6074 30.3143 12.9027 30.219 13.199C30.092 13.5944 29.9744 13.9924 29.8487 14.3882C29.7663 14.6469 29.7273 14.8996 29.8818 15.1441C29.8818 15.1881 29.8672 15.2256 29.8303 15.2528C29.72 15.2562 29.605 15.2256 29.6003 15.411C29.5956 15.6055 29.5149 15.7926 29.4887 15.9875C29.4763 16.0785 29.4613 16.1751 29.3604 16.2234C29.2922 16.2212 29.2639 16.1747 29.2424 16.1208C29.2154 15.6426 29.354 15.1842 29.4355 14.7198C29.4484 14.6737 29.4758 14.6331 29.4887 14.5874C29.4926 14.5702 29.5166 14.5568 29.5162 14.5447C29.5145 14.5077 29.5342 14.5426 29.4964 14.5495C29.475 14.5986 29.4553 14.6482 29.4158 14.6875C29.3235 14.7767 29.2476 14.8858 29.1128 14.9212C29.0523 14.9272 29.0026 14.9134 28.9781 14.8526C28.9657 14.7655 29.027 14.7142 29.0794 14.6612C29.4419 14.2942 29.6732 13.8609 29.7977 13.3654C29.8916 12.9916 30.0182 12.6259 30.1624 12.2676C30.2315 12.0959 30.225 11.9791 30.0581 11.8609C29.7294 11.6277 29.5883 11.287 29.5711 10.892C29.5857 10.7808 29.5535 10.6566 29.6629 10.5708C29.7586 10.5561 29.7848 10.626 29.8152 10.6911C29.88 10.886 29.85 11.1016 29.9551 11.2896C30.0152 11.3974 30.0791 11.4987 30.1735 11.5798C30.3023 11.6902 30.3992 11.6975 30.4722 11.5143C30.8875 10.4733 31.4994 9.53677 32.1052 8.59761C32.3764 8.16382 32.6914 7.76022 32.9951 7.34885C33.1106 7.14964 33.2813 6.98923 33.4019 6.79347C33.468 6.70938 33.5474 6.63565 33.6066 6.54854C33.5808 6.50715 33.5735 6.5645 33.5555 6.55976C33.25 6.73051 32.9316 6.87712 32.6562 7.09445C32.5558 7.16473 32.4811 7.26434 32.379 7.33247C31.9933 7.51357 31.6959 7.81153 31.3737 8.07629C31.3183 8.13019 31.2617 8.1828 31.2037 8.23411C31.1454 8.2824 31.0948 8.33846 31.0441 8.39452C30.9433 8.49369 30.8489 8.59891 30.7494 8.69938C30.6665 8.77699 30.6112 8.87401 30.5533 8.96888C30.4919 9.06374 30.431 9.15817 30.3722 9.25476C30.3597 9.27719 30.3456 9.29831 30.3306 9.31944C30.3164 9.34143 30.3001 9.3617 30.2829 9.38154C30.2456 9.42121 30.2044 9.45441 30.1461 9.45656C30.1023 9.45053 30.0723 9.42638 30.0525 9.38843C30.0049 9.19051 30.1658 9.0715 30.2383 8.91886C30.3456 8.7425 30.47 8.57821 30.6026 8.41996C30.6991 8.28456 30.8219 8.17202 30.9326 8.04912C30.9995 7.98013 31.0647 7.90855 31.1304 7.84129C30.9969 7.79472 30.8626 7.84129 30.7296 7.83525C30.5674 7.83007 30.4048 7.83568 30.2452 7.80161C30.0096 7.69942 29.8191 7.71882 29.7003 7.98229C29.6586 8.07413 29.5707 8.13795 29.4896 8.20091C29.3999 8.25998 29.3188 8.34105 29.1965 8.32164C29.1068 8.33975 29.0172 8.35786 28.9275 8.37554C28.8636 8.35657 28.8009 8.39883 28.737 8.38115C28.7014 8.38374 28.6653 8.38632 28.6297 8.38891C28.2693 8.42298 27.9685 8.263 27.6724 8.10173C27.2674 7.88096 26.913 7.58558 26.5259 7.33764C26.4766 7.31263 26.447 7.26994 26.4204 7.22424C26.3358 7.16516 26.2479 7.10997 26.1681 7.04529C26.0964 6.98751 26.114 6.90601 26.2041 6.86936C26.2565 6.84823 26.3122 6.83314 26.368 6.82236C26.4328 6.80985 26.4989 6.80554 26.5645 6.79735C26.5667 6.7124 26.4976 6.70852 26.456 6.68351C26.253 6.56277 26.0454 6.44894 25.8428 6.32734C25.7626 6.27904 25.6888 6.21868 25.6167 6.15874C25.5657 6.11605 25.582 6.05008 25.6446 6.02636C25.7716 5.9785 25.9033 5.95952 26.0381 5.96427C26.2475 5.9716 26.4564 5.98195 26.6654 5.99273C26.7031 5.99445 26.7405 6.00437 26.7804 5.9578C26.6564 5.81162 26.5302 5.66329 26.4041 5.51496C26.3676 5.47227 26.3268 5.43217 26.2951 5.38603C26.2693 5.34894 26.238 5.30453 26.2736 5.25839C26.3062 5.21613 26.3607 5.21613 26.4045 5.22648C26.5337 5.2571 26.665 5.28469 26.7877 5.33256C27.1949 5.49081 27.6145 5.61154 28.0316 5.74047C28.2852 5.81895 28.5362 5.90735 28.7837 6.00221C29.0056 6.08716 29.2132 6.20186 29.4068 6.33898C29.4836 6.39331 29.5578 6.45196 29.6303 6.51232C29.8843 6.72491 30.0294 6.98319 29.968 7.326C29.9298 7.44156 30.0088 7.46571 30.095 7.48986C30.2576 7.53513 30.4233 7.54807 30.5919 7.53729C30.8081 7.53298 31.0158 7.49244 31.211 7.39629C31.2368 7.38119 31.2638 7.36869 31.2917 7.35748C31.6916 7.18457 32.0876 7.0095 32.4502 6.75897C32.9488 6.41401 33.489 6.13632 34.0339 5.87027C34.164 5.8155 34.2918 5.75557 34.4236 5.70512C34.5042 5.67838 34.5913 5.67321 34.6686 5.6344C34.6836 5.61931 34.6982 5.60421 34.7132 5.58912" fill="#434343"/>
</g>
<defs>
<clipPath id="clip0_757_984">
<rect width="190" height="24" fill="white"/>
</clipPath>
</defs>
</svg>
