<svg width="116" height="77" viewBox="0 0 116 77" fill="none" xmlns="http://www.w3.org/2000/svg">
<g clip-path="url(#clip0_756_939)">
<path d="M104.346 73V72.216H104.842C105.024 72.216 105.189 72.1947 105.338 72.152C105.498 72.0987 105.621 71.9973 105.706 71.848C105.802 71.688 105.85 71.4533 105.85 71.144V63.368C105.85 63.0693 105.802 62.8507 105.706 62.712C105.61 62.5627 105.488 62.4667 105.338 62.424C105.189 62.3813 105.024 62.36 104.842 62.36H104.346V61.576H107.658L113.338 69.88V63.368C113.338 63.0693 113.29 62.8507 113.194 62.712C113.098 62.5627 112.976 62.4667 112.826 62.424C112.677 62.3813 112.512 62.36 112.33 62.36H111.834V61.576H115.946V62.36H115.45C115.28 62.36 115.114 62.3867 114.954 62.44C114.794 62.4827 114.672 62.5787 114.586 62.728C114.501 62.8773 114.458 63.112 114.458 63.432V73H113.114L106.954 64.04V71.144C106.954 71.4533 106.997 71.688 107.082 71.848C107.178 71.9973 107.301 72.0987 107.45 72.152C107.61 72.1947 107.781 72.216 107.962 72.216H108.458V73H104.346Z" fill="white"/>
<path d="M97.7058 73.16C96.4151 73.16 95.3431 72.9147 94.4898 72.424C93.6365 71.9333 93.0018 71.2507 92.5858 70.376C92.1698 69.4907 91.9618 68.456 91.9618 67.272C91.9618 66.12 92.1805 65.1067 92.6178 64.232C93.0551 63.3467 93.7058 62.6587 94.5698 62.168C95.4445 61.6667 96.5165 61.416 97.7858 61.416C98.6391 61.416 99.3485 61.496 99.9138 61.656C100.479 61.816 100.9 62.0347 101.178 62.312C101.466 62.5893 101.61 62.8987 101.61 63.24C101.61 63.6027 101.444 63.9067 101.114 64.152C100.794 64.3973 100.346 64.52 99.7698 64.52C99.7698 64.1253 99.6951 63.768 99.5458 63.448C99.4071 63.1173 99.1885 62.856 98.8898 62.664C98.6018 62.472 98.2178 62.376 97.7378 62.376C96.9058 62.376 96.2391 62.568 95.7378 62.952C95.2365 63.336 94.8685 63.8907 94.6338 64.616C94.4098 65.3413 94.2978 66.2267 94.2978 67.272C94.2978 68.3173 94.4151 69.2027 94.6498 69.928C94.8951 70.6427 95.2845 71.192 95.8178 71.576C96.3511 71.9493 97.0605 72.136 97.9458 72.136C98.1911 72.136 98.4258 72.1253 98.6498 72.104C98.8845 72.0827 99.1031 72.0453 99.3058 71.992V69.56C99.3058 69.2613 99.2525 69.032 99.1458 68.872C99.0498 68.712 98.9111 68.6 98.7298 68.536C98.5591 68.472 98.3511 68.44 98.1058 68.44H97.9458V67.656H102.65V68.44H102.49C102.276 68.44 102.095 68.4773 101.946 68.552C101.796 68.616 101.679 68.7333 101.594 68.904C101.519 69.064 101.482 69.304 101.482 69.624V72.344C100.895 72.6213 100.298 72.8293 99.6898 72.968C99.0818 73.096 98.4205 73.16 97.7058 73.16Z" fill="white"/>
<path d="M84.5746 73V72.216H85.0706C85.2626 72.216 85.4332 72.1947 85.5826 72.152C85.7319 72.0987 85.8493 71.9973 85.9346 71.848C86.0306 71.688 86.0786 71.4533 86.0786 71.144V63.432C86.0786 63.112 86.0306 62.8773 85.9346 62.728C85.8493 62.5787 85.7319 62.4827 85.5826 62.44C85.4332 62.3867 85.2626 62.36 85.0706 62.36H84.5746V61.576H89.7586V62.36H89.2626C89.0812 62.36 88.9106 62.3867 88.7506 62.44C88.6013 62.4827 88.4839 62.5787 88.3986 62.728C88.3132 62.8773 88.2706 63.112 88.2706 63.432V71.144C88.2706 71.4533 88.3132 71.688 88.3986 71.848C88.4839 71.9973 88.6013 72.0987 88.7506 72.152C88.9106 72.1947 89.0812 72.216 89.2626 72.216H89.7586V73H84.5746Z" fill="white"/>
<path d="M78.2656 73.16C77.6149 73.16 77.0656 73.1013 76.6176 72.984C76.1696 72.856 75.8069 72.6853 75.5296 72.472C75.2523 72.2587 75.0496 72.0187 74.9216 71.752C74.7936 71.4747 74.7296 71.1973 74.7296 70.92C74.7296 70.6107 74.7989 70.36 74.9376 70.168C75.0763 69.9653 75.2629 69.816 75.4976 69.72C75.7429 69.624 76.0043 69.576 76.2816 69.576C76.2923 70.12 76.3829 70.5947 76.5536 71C76.7243 71.4053 76.9696 71.72 77.2896 71.944C77.6203 72.1573 78.0149 72.264 78.4736 72.264C79.1349 72.264 79.6469 72.0987 80.0096 71.768C80.3829 71.4267 80.5696 70.9787 80.5696 70.424C80.5696 70.0507 80.4789 69.7307 80.2976 69.464C80.1163 69.1973 79.8336 68.952 79.4496 68.728C79.0656 68.504 78.5696 68.2693 77.9616 68.024C77.4389 67.8107 76.9856 67.5813 76.6016 67.336C76.2176 67.0907 75.9083 66.8293 75.6736 66.552C75.4389 66.2747 75.2629 65.9707 75.1456 65.64C75.0389 65.2987 74.9856 64.92 74.9856 64.504C74.9856 63.8747 75.1509 63.3307 75.4816 62.872C75.8123 62.4027 76.2603 62.0453 76.8256 61.8C77.3909 61.544 78.0363 61.416 78.7616 61.416C79.4869 61.416 80.0896 61.5013 80.5696 61.672C81.0496 61.832 81.4069 62.0507 81.6416 62.328C81.8869 62.6053 82.0096 62.9093 82.0096 63.24C82.0096 63.6027 81.8656 63.9013 81.5776 64.136C81.2896 64.36 80.8629 64.472 80.2976 64.472C80.2976 64.1627 80.2389 63.8427 80.1216 63.512C80.0149 63.1813 79.8336 62.904 79.5776 62.68C79.3323 62.4453 78.9963 62.328 78.5696 62.328C78.2389 62.328 77.9403 62.392 77.6736 62.52C77.4176 62.6373 77.2149 62.8187 77.0656 63.064C76.9163 63.2987 76.8416 63.5867 76.8416 63.928C76.8416 64.28 76.9163 64.5893 77.0656 64.856C77.2149 65.1227 77.4763 65.3787 77.8496 65.624C78.2229 65.8693 78.7509 66.1307 79.4336 66.408C80.1269 66.6853 80.6923 66.984 81.1296 67.304C81.5776 67.6133 81.9083 67.9707 82.1216 68.376C82.3456 68.7707 82.4576 69.2347 82.4576 69.768C82.4576 70.4507 82.2816 71.048 81.9296 71.56C81.5883 72.0613 81.1029 72.456 80.4736 72.744C79.8549 73.0213 79.1189 73.16 78.2656 73.16Z" fill="white"/>
<path d="M63.584 73V72.216H64.08C64.2613 72.216 64.4266 72.1947 64.576 72.152C64.7253 72.1093 64.848 72.0187 64.944 71.88C65.04 71.7307 65.088 71.512 65.088 71.224V63.432C65.088 63.112 65.04 62.8773 64.944 62.728C64.8587 62.5787 64.7413 62.4827 64.592 62.44C64.4426 62.3867 64.272 62.36 64.08 62.36H63.584V61.576H72.144L72.224 64.472H71.216L71.136 63.736C71.1147 63.48 71.056 63.2613 70.96 63.08C70.8747 62.8987 70.752 62.7547 70.592 62.648C70.432 62.5413 70.224 62.488 69.968 62.488H67.28V66.584H71.088V67.48H67.28V72.088H70.432C70.688 72.088 70.896 72.0347 71.056 71.928C71.2267 71.8107 71.36 71.6613 71.456 71.48C71.552 71.288 71.616 71.0747 71.648 70.84L71.76 70.104H72.768L72.656 73H63.584Z" fill="white"/>
<path d="M50.7528 73V72.216H51.2488C51.4408 72.216 51.6115 72.1947 51.7608 72.152C51.9101 72.0987 52.0275 71.9973 52.1128 71.848C52.2088 71.688 52.2568 71.4533 52.2568 71.144V63.368C52.2568 63.0693 52.2088 62.8507 52.1128 62.712C52.0168 62.5627 51.8941 62.4667 51.7448 62.424C51.5955 62.3813 51.4301 62.36 51.2488 62.36H50.7528V61.576H55.8888C57.0408 61.576 58.0221 61.7893 58.8328 62.216C59.6541 62.632 60.2835 63.256 60.7208 64.088C61.1581 64.92 61.3768 65.944 61.3768 67.16C61.3768 68.3227 61.1688 69.3413 60.7528 70.216C60.3475 71.0907 59.7395 71.7733 58.9288 72.264C58.1181 72.7547 57.0995 73 55.8728 73H50.7528ZM55.5208 72.072C56.2995 72.072 56.9448 71.88 57.4568 71.496C57.9795 71.1013 58.3688 70.536 58.6248 69.8C58.8915 69.064 59.0248 68.1787 59.0248 67.144C59.0248 66.1093 58.8915 65.2507 58.6248 64.568C58.3688 63.8747 57.9795 63.3573 57.4568 63.016C56.9448 62.664 56.3048 62.488 55.5368 62.488H54.4328V72.072H55.5208Z" fill="white"/>
<path d="M32.5277 73V72.216H33.0237C33.205 72.216 33.3704 72.1947 33.5197 72.152C33.6797 72.0987 33.8024 71.9973 33.8877 71.848C33.9837 71.688 34.0317 71.4533 34.0317 71.144V63.368C34.0317 63.0693 33.9837 62.8507 33.8877 62.712C33.7917 62.5627 33.669 62.4667 33.5197 62.424C33.3704 62.3813 33.205 62.36 33.0237 62.36H32.5277V61.576H35.8397L41.5197 69.88V63.368C41.5197 63.0693 41.4717 62.8507 41.3757 62.712C41.2797 62.5627 41.157 62.4667 41.0077 62.424C40.8584 62.3813 40.693 62.36 40.5117 62.36H40.0157V61.576H44.1277V62.36H43.6317C43.461 62.36 43.2957 62.3867 43.1357 62.44C42.9757 62.4827 42.853 62.5787 42.7677 62.728C42.6824 62.8773 42.6397 63.112 42.6397 63.432V73H41.2957L35.1357 64.04V71.144C35.1357 71.4533 35.1784 71.688 35.2637 71.848C35.3597 71.9973 35.4824 72.0987 35.6317 72.152C35.7917 72.1947 35.9624 72.216 36.1437 72.216H36.6397V73H32.5277Z" fill="white"/>
<path d="M19.4822 73V72.216H19.7222C19.9248 72.216 20.0955 72.184 20.2342 72.12C20.3728 72.056 20.5008 71.9387 20.6182 71.768C20.7355 71.5973 20.8582 71.3467 20.9862 71.016L24.4902 61.576H26.3142L29.7702 71.176C29.8662 71.4533 29.9675 71.6667 30.0742 71.816C30.1915 71.9653 30.3195 72.072 30.4582 72.136C30.6075 72.1893 30.7728 72.216 30.9542 72.216H31.2102V73H26.2662V72.216H26.7942C27.0075 72.216 27.1888 72.1627 27.3382 72.056C27.4982 71.9493 27.5782 71.7787 27.5782 71.544C27.5782 71.4693 27.5675 71.3947 27.5462 71.32C27.5355 71.2347 27.5195 71.16 27.4982 71.096C27.4875 71.0213 27.4662 70.952 27.4342 70.888L26.8582 69.208H22.8422L22.3302 70.712C22.2982 70.7973 22.2662 70.888 22.2342 70.984C22.2128 71.08 22.1915 71.176 22.1702 71.272C22.1595 71.368 22.1542 71.4533 22.1542 71.528C22.1542 71.7627 22.2342 71.9387 22.3942 72.056C22.5542 72.1627 22.7568 72.216 23.0022 72.216H23.5462V73H19.4822ZM23.1622 68.312H26.5382L25.6422 65.608C25.5568 65.3413 25.4662 65.064 25.3702 64.776C25.2848 64.488 25.1995 64.2053 25.1142 63.928C25.0395 63.6507 24.9702 63.3893 24.9062 63.144C24.8635 63.3147 24.8102 63.496 24.7462 63.688C24.6928 63.88 24.6342 64.0773 24.5702 64.28C24.5168 64.4827 24.4528 64.6907 24.3782 64.904C24.3142 65.1067 24.2448 65.3093 24.1702 65.512L23.1622 68.312Z" fill="white"/>
<path d="M13.2294 73.16C12.3334 73.16 11.5654 73.0373 10.9254 72.792C10.2854 72.5467 9.79471 72.1573 9.45338 71.624C9.11204 71.0907 8.94138 70.392 8.94138 69.528V63.368C8.94138 63.0693 8.89338 62.8507 8.79738 62.712C8.70138 62.5627 8.57871 62.4667 8.42938 62.424C8.28004 62.3813 8.11471 62.36 7.93338 62.36H7.43738V61.576H12.6214V62.36H12.1254C11.944 62.36 11.7734 62.3867 11.6134 62.44C11.464 62.4827 11.3414 62.5787 11.2454 62.728C11.16 62.8773 11.1174 63.112 11.1174 63.432V69.64C11.1174 70.248 11.224 70.7333 11.4374 71.096C11.6507 71.448 11.944 71.704 12.3174 71.864C12.6907 72.0133 13.1227 72.088 13.6134 72.088C14.1467 72.088 14.5947 71.9973 14.9574 71.816C15.3307 71.6347 15.608 71.3627 15.7894 71C15.9814 70.6373 16.0774 70.2 16.0774 69.688V63.368C16.0774 63.0693 16.0294 62.8507 15.9334 62.712C15.8374 62.5627 15.7147 62.4667 15.5654 62.424C15.416 62.3813 15.2507 62.36 15.0694 62.36H14.5734V61.576H18.7014V62.36H18.1894C18.0187 62.36 17.8534 62.3867 17.6934 62.44C17.5334 62.4827 17.4107 62.5787 17.3254 62.728C17.24 62.8773 17.1974 63.112 17.1974 63.432V69.72C17.1974 70.424 17.0534 71.0373 16.7654 71.56C16.4774 72.072 16.04 72.4667 15.4534 72.744C14.8667 73.0213 14.1254 73.16 13.2294 73.16Z" fill="white"/>
<path d="M0 76.84V75.976H0.223999C0.618666 75.976 0.970665 75.8853 1.28 75.704C1.58933 75.5333 1.83467 75.2347 2.016 74.808C2.208 74.392 2.304 73.816 2.304 73.08V63.368C2.304 63.0693 2.256 62.8507 2.16 62.712C2.064 62.5627 1.94133 62.4667 1.792 62.424C1.64267 62.3813 1.47733 62.36 1.296 62.36H0.799999V61.576H6V62.36H5.504C5.32267 62.36 5.152 62.3867 4.992 62.44C4.832 62.4827 4.704 62.5787 4.608 62.728C4.52267 62.8773 4.48 63.112 4.48 63.432V73.064C4.48 73.7893 4.37333 74.392 4.16 74.872C3.94667 75.3627 3.65333 75.7467 3.28 76.024C2.90667 76.312 2.47467 76.52 1.984 76.648C1.49333 76.776 0.986665 76.84 0.463999 76.84H0Z" fill="white"/>
<path d="M40.8181 14.0083C41.0793 14.4168 41.3344 14.9482 41.5815 15.6041C41.8286 16.26 41.9534 16.8795 41.9534 17.4624C41.9543 18.5713 41.6869 19.577 41.152 20.4813C40.6162 21.3864 39.928 22.1527 39.0867 22.7801C38.2454 23.4085 37.3102 23.898 36.2811 24.2486C35.2511 24.6002 34.2282 24.7764 33.2133 24.7773C32.3428 24.7782 31.5377 24.6117 30.7974 24.2771C30.057 23.9433 29.4176 23.4912 28.8809 22.9234C28.3433 22.3556 27.9218 21.6925 27.6162 20.9343C27.3107 20.1769 27.1575 19.375 27.1566 18.5286C27.1548 16.9836 27.5516 15.6121 28.3486 14.416C29.1448 13.2198 30.2102 12.1758 31.5448 11.285C32.8777 10.3941 34.4302 9.64113 36.1996 9.02704C37.9682 8.41294 39.8324 7.89318 41.7914 7.46777C43.7495 7.04324 45.7368 6.71305 47.7533 6.47631C49.7699 6.24135 51.6925 6.06336 53.5204 5.94499C55.3483 5.82662 57.031 5.75186 58.5693 5.72071C60.1067 5.69045 61.3696 5.67354 62.3562 5.67265C62.5882 5.67265 62.9071 5.62815 63.3135 5.54004C63.7192 5.45193 64.1407 5.36382 64.5755 5.27571C65.0104 5.1876 65.424 5.09949 65.8154 5.01227C66.2068 4.92416 66.5186 4.88055 66.7515 4.87966C67.7372 4.87877 68.2314 5.14043 68.2322 5.66553C68.2322 6.0153 68.0728 6.27784 67.754 6.45317C67.4343 6.6285 66.9995 6.71661 66.4486 6.7175C65.9545 6.71839 65.4257 6.67478 64.8598 6.58845C64.2939 6.50123 63.7342 6.43003 63.1834 6.37129C62.7769 6.43092 62.1968 6.61337 61.4431 6.92042C60.6886 7.22747 59.8481 7.70985 58.92 8.36666C57.9919 9.02348 57.0204 9.88499 56.0064 10.9503C54.9914 12.0165 54.0208 13.3221 53.0945 14.869C49.9665 20.1217 47.5408 24.2798 45.8183 27.344C44.0949 30.4083 42.9436 32.4366 42.3644 33.428C45.0619 32.8415 47.469 31.7673 49.5865 30.2045C51.7023 28.6425 53.6302 26.7219 55.3687 24.4462L55.761 24.6206C55.1234 25.4964 54.3706 26.4086 53.501 27.3574C52.6313 28.3061 51.6385 29.2121 50.5226 30.0727C49.4059 30.9342 48.1448 31.7157 46.7384 32.417C45.3312 33.1183 43.7725 33.6603 42.0615 34.0412C40.7579 36.2297 39.309 38.258 37.7158 40.1261C36.1217 41.9933 34.3965 43.6078 32.542 44.9659C30.6867 46.324 28.7073 47.3831 26.604 48.1441C24.5007 48.9041 22.2884 49.2859 19.9672 49.2886C19.0683 49.2895 18.1544 49.188 17.2245 48.986C16.2954 48.7831 15.4612 48.4556 14.7208 48.0043C13.9805 47.5522 13.3774 46.963 12.9124 46.235C12.4475 45.5061 12.2145 44.617 12.2128 43.5677C12.2119 42.3716 12.5582 41.3587 13.2543 40.5266C13.9495 39.6945 14.9139 39.0003 16.1467 38.4458C17.3794 37.8904 18.8513 37.4294 20.5632 37.0627C22.2742 36.6961 24.1314 36.3659 26.1337 36.0722C28.2805 35.7491 30.181 35.4848 31.8344 35.2783C33.4879 35.0727 34.7499 34.8671 35.6204 34.6615C36.4892 33.2607 37.3217 31.8385 38.1187 30.394C38.9149 28.9496 39.7182 27.4909 40.5294 26.017C41.3397 24.5441 42.1802 23.0845 43.0489 21.64C43.9177 20.1956 44.8299 18.8018 45.7864 17.4597C48.2484 14.1036 50.8353 11.5484 53.547 9.79599C56.2579 8.04359 59.0936 6.87414 62.0524 6.28674V6.19952C61.5875 6.20041 60.7966 6.20842 59.6799 6.22444C58.5622 6.24046 57.2498 6.30009 55.7407 6.40422C54.2316 6.50835 52.5994 6.66321 50.8441 6.8688C49.0879 7.07528 47.3256 7.3761 45.5561 7.77125C43.7867 8.1673 42.0748 8.66481 40.4213 9.26466C38.7679 9.86452 37.3111 10.6023 36.0491 11.479C34.7879 12.3556 33.773 13.3844 33.0061 14.5664C32.2383 15.7483 31.8557 17.1126 31.8574 18.6577C31.8592 20.0283 32.2666 21.0847 33.0796 21.8278C33.8926 22.571 34.9527 22.9412 36.2581 22.9394C36.9249 22.9385 37.5705 22.7846 38.194 22.4775C38.8175 22.1705 39.3683 21.762 39.8466 21.2511C40.3248 20.7403 40.7083 20.1422 40.9979 19.456C41.2866 18.7707 41.4318 18.0631 41.4309 17.3342C41.43 16.4594 41.1094 15.4537 40.47 14.3172L40.8181 14.0083ZM16.9127 44.3491C16.9145 45.6619 17.3219 46.7254 18.1349 47.5406C18.9487 48.3559 20.0221 48.7635 21.3567 48.7617C23.0978 48.7599 24.6565 48.2909 26.0345 47.3564C27.4117 46.421 28.6577 45.2685 29.7736 43.8961C30.8886 42.5238 31.9035 41.057 32.8157 39.4969C33.7279 37.9358 34.5896 36.527 35.4008 35.273C34.3274 35.4492 33.2532 35.6112 32.1807 35.758C31.1073 35.9058 30.0411 36.0668 28.9819 36.2431C27.9227 36.4193 26.8564 36.632 25.783 36.8812C24.7097 37.1295 23.6363 37.4588 22.5629 37.8691C21.8668 38.1325 21.1849 38.4609 20.5181 38.8552C19.8503 39.2495 19.2499 39.7167 18.7132 40.2569C18.1774 40.7972 17.7425 41.4095 17.4095 42.0957C17.0783 42.781 16.9118 43.5321 16.9127 44.3491Z" fill="white"/>
<path fill-rule="evenodd" clip-rule="evenodd" d="M13.8489 29.2957C14.6469 26.9817 15.7158 24.7398 16.9752 22.5923C18.2504 20.4554 19.7188 18.4129 21.3678 16.5207C24.6579 12.7258 28.6024 9.48354 32.9065 6.92926C37.2114 4.37052 41.876 2.48641 46.645 1.33831C47.837 1.05084 49.037 0.815886 50.237 0.613857C51.4388 0.423399 52.6424 0.27299 53.8441 0.16886C56.2486 -0.0296086 58.6433 -0.0563084 60.9946 0.105671C65.6998 0.420729 70.2271 1.43977 74.3514 3.00705C74.4807 3.056 74.61 3.10228 74.7384 3.15212C74.8659 3.20285 74.9935 3.25447 75.121 3.3052C75.3752 3.40844 75.6302 3.50812 75.8817 3.61314C76.3821 3.83119 76.8843 4.03856 77.3722 4.26995C78.3561 4.71495 79.3055 5.20623 80.2354 5.70462C80.695 5.9645 81.1573 6.21281 81.6028 6.48337C81.8269 6.61687 82.05 6.75037 82.2723 6.88298C82.492 7.02093 82.7098 7.15799 82.9277 7.29504C83.0366 7.36357 83.1455 7.4321 83.2536 7.50063C83.3607 7.57183 83.467 7.64214 83.5742 7.71334C83.7867 7.85485 83.9993 7.99636 84.21 8.13698C84.4182 8.28294 84.6254 8.42801 84.8326 8.57219C85.039 8.71725 85.2462 8.86054 85.4455 9.01095C87.0617 10.1964 88.5628 11.4433 89.9364 12.7365C91.3091 14.0305 92.5605 15.3628 93.6932 16.7076C95.9604 19.3972 97.7467 22.1339 99.1282 24.7309C100.815 27.8762 101.905 30.8149 102.625 33.4199C103.345 36.0276 103.707 38.306 103.873 40.2364C104.042 42.1686 104.021 43.7545 103.934 45.0272C103.909 45.3459 103.886 45.6449 103.856 45.9244C103.822 46.2047 103.787 46.4664 103.752 46.7102C103.733 46.8322 103.716 46.9487 103.699 47.0627C103.679 47.1757 103.658 47.2843 103.638 47.3884C103.596 47.5967 103.555 47.7889 103.514 47.9633C103.435 48.314 103.344 48.5988 103.26 48.8257C103.177 49.0527 103.098 49.22 103.025 49.3357C102.879 49.5662 102.757 49.5885 102.672 49.4487C102.587 49.309 102.539 49.0073 102.54 48.5846C102.544 48.3727 102.549 48.1315 102.57 47.8645C102.588 47.5975 102.628 47.3038 102.67 46.9897C102.711 46.6764 102.747 46.3872 102.779 46.121C102.811 45.854 102.826 45.612 102.843 45.3895C102.859 45.1679 102.872 44.9667 102.881 44.7861C102.887 44.6054 102.887 44.4452 102.886 44.3037C102.881 43.735 102.832 43.4609 102.758 43.3692C102.687 43.2775 102.602 43.3656 102.518 43.5178C102.436 43.67 102.349 43.8872 102.29 44.0527C101.765 44.9641 101.246 44.8377 100.762 44.1203C100.272 43.4012 99.8013 42.0849 99.2611 40.5568C98.7261 39.0269 98.1239 37.2825 97.5049 35.6601C96.8858 34.0385 96.2473 32.5415 95.7824 31.4593C94.8587 29.2939 94.012 27.4872 93.7446 26.5447C93.6082 26.0766 93.625 25.8212 93.8367 25.8648C94.0457 25.9102 94.4637 26.2466 95.0863 26.9951C94.3246 25.7642 93.6507 24.7069 93.0812 23.8196C92.9431 23.5944 92.8058 23.3844 92.6783 23.1832C92.5508 22.9821 92.4339 22.7881 92.3232 22.6056C92.0956 22.2452 91.9078 21.9185 91.7502 21.6346C91.1134 20.5052 91.0355 19.997 91.5642 20.2356C91.8299 20.3539 92.1513 20.6174 92.495 20.9128C92.6677 21.0597 92.8333 21.2243 93.0015 21.3828C93.1689 21.5412 93.3336 21.6969 93.4842 21.8402C94.082 22.4169 94.5336 22.7551 94.4212 22.0369C94.4442 21.8144 94.4043 21.5225 94.3078 21.1683C94.2033 20.8194 94.0448 20.4047 93.8252 19.9428C93.3841 19.0207 92.704 17.902 91.8042 16.688C90.9044 15.4741 89.7797 14.1694 88.4725 12.8744C87.1689 11.5759 85.6713 10.3006 84.0666 9.11508C82.4645 7.92516 80.7384 6.84827 79.0044 5.90665C78.7892 5.78561 78.5705 5.67436 78.3526 5.56223C78.1347 5.45009 77.9178 5.33884 77.7026 5.22848C77.4838 5.12346 77.2668 5.01844 77.0507 4.91431C76.8347 4.81018 76.6203 4.70516 76.4034 4.61082C75.9703 4.41769 75.5461 4.221 75.1192 4.04835C74.9067 3.96024 74.6959 3.87213 74.4878 3.7858C74.277 3.70392 74.068 3.62293 73.8617 3.54283C72.2064 2.90559 70.6487 2.42322 69.2999 2.06722C69.1316 2.02272 68.966 1.97911 68.8048 1.93639C68.6436 1.89367 68.4842 1.85896 68.3292 1.82158C68.0193 1.74949 67.7252 1.67651 67.4472 1.61688C66.8883 1.50296 66.3995 1.39349 65.9841 1.32585C65.1561 1.17366 64.3909 1.0633 63.7028 0.975195C63.3583 0.936035 63.0333 0.898655 62.7286 0.863946C62.424 0.839026 62.1397 0.814996 61.8784 0.793636C61.7473 0.783846 61.6225 0.774056 61.5029 0.765156C61.3834 0.758926 61.2691 0.753586 61.1611 0.748246C60.945 0.739346 60.7528 0.732226 60.5845 0.725107C60.2498 0.711757 60.0133 0.717987 59.8884 0.726887C59.7627 0.736677 59.7485 0.751806 59.8539 0.773166C59.9593 0.795416 60.186 0.816776 60.5429 0.861276C60.8998 0.904885 61.3878 0.944935 62.0148 1.02592C62.3283 1.06419 62.6781 1.09979 63.0625 1.15764C63.4468 1.21282 63.8693 1.26355 64.3263 1.34187C67.4835 1.81624 70.3582 2.5843 72.9141 3.52325C74.1929 3.99139 75.3947 4.49779 76.522 5.02467C77.6468 5.55778 78.6953 6.11402 79.6739 6.67383C81.6223 7.80946 83.2881 8.96378 84.6874 10.0852C86.0893 11.203 87.2371 12.2701 88.1723 13.2304C89.1101 14.1881 89.8266 15.0496 90.3783 15.7616C90.6485 16.1229 90.8867 16.4388 91.0744 16.7281C91.264 17.0156 91.4163 17.263 91.5332 17.4712C91.9866 18.3158 91.8848 18.5179 91.3038 18.0898C91.1205 17.9527 90.9274 17.813 90.7326 17.6617C90.5369 17.5122 90.3412 17.3502 90.1375 17.1864C89.7274 16.8616 89.3112 16.5011 88.871 16.1345C87.9969 15.394 87.0715 14.5832 86.1061 13.7813C85.1444 12.9768 84.1525 12.1713 83.1765 11.4157C82.2033 10.6566 81.2344 9.96236 80.3497 9.34648C78.5634 8.11562 77.3315 7.4677 76.778 7.19002C76.4972 7.0592 76.3821 7.0236 76.4326 7.07878C76.4822 7.13485 76.6992 7.27724 77.0693 7.52377C77.2527 7.64392 77.4537 7.77653 77.6609 7.9127C77.8646 8.05332 78.0728 8.19928 78.2729 8.34257C78.3721 8.41466 78.4704 8.48497 78.5652 8.55439C78.659 8.6247 78.7476 8.6959 78.8317 8.76264C79 8.89792 79.147 9.02252 79.2612 9.12932C79.4897 9.34203 79.5801 9.49244 79.4437 9.50757C79.3064 9.5227 78.9345 9.41323 78.2339 9.12309C77.2102 8.70213 76.1111 8.19216 74.873 7.62167C73.6349 7.05297 72.256 6.42552 70.6708 5.7954C69.0855 5.16618 67.2939 4.52716 65.2358 3.98516C64.7221 3.84276 64.1899 3.72172 63.6435 3.59178C63.3698 3.52948 63.0908 3.4743 62.8083 3.41467C62.6666 3.3853 62.5249 3.35593 62.3815 3.32656C62.238 3.30075 62.0927 3.27494 61.9475 3.24824C61.6561 3.1984 61.3612 3.13877 61.061 3.09427C60.7599 3.04888 60.4561 3.00349 60.1479 2.95721C59.5298 2.87889 58.8948 2.79612 58.2403 2.74183C56.95 2.64393 55.6402 2.5932 54.3215 2.6199C53.0037 2.64304 51.6779 2.72492 50.3557 2.86465C49.0326 3.00527 47.7148 3.21442 46.4103 3.47252C45.1049 3.73151 43.8137 4.04568 42.5473 4.41858C37.4709 5.88529 32.8117 8.22776 28.9956 10.8986C27.0818 12.2292 25.3823 13.6514 23.9015 15.0585C22.427 16.4744 21.1739 17.8806 20.1465 19.1996C19.1183 20.5177 18.3151 21.7486 17.7155 22.8103C17.116 23.873 16.7086 24.7603 16.4845 25.4216C17.8785 22.6902 19.6692 20.1119 21.7344 17.7872C23.7988 15.4599 26.1359 13.3871 28.6139 11.6071C31.0927 9.82708 33.7133 8.34079 36.3568 7.14909C39.0013 5.95827 41.6652 5.05048 44.2512 4.42036C46.8416 3.78046 49.2274 3.44404 51.2989 3.30075C53.3721 3.15123 55.1327 3.19929 56.5098 3.31499C56.8543 3.34881 57.1749 3.38352 57.4716 3.41823C57.6195 3.43425 57.7621 3.45383 57.8976 3.47608C58.0331 3.49833 58.1624 3.51969 58.2864 3.53927C58.5326 3.58288 58.754 3.62115 58.9497 3.66743C59.1445 3.71371 59.3146 3.7591 59.4572 3.8036C60.0284 3.97982 60.1745 4.13823 59.8566 4.26639C59.2189 4.52449 57.7072 4.63663 55.5241 4.7995C53.3411 4.97305 50.477 5.20178 47.1356 5.77226C47.1489 5.90932 47.1392 6.06685 46.9036 6.26265C46.7858 6.36055 46.6113 6.46735 46.3563 6.58839C46.1021 6.71477 45.7665 6.8545 45.3254 7.01114C44.4478 7.3431 43.1477 7.75161 41.2631 8.41555C39.3847 9.09105 36.9068 10.0051 33.7894 11.575C32.221 12.3618 30.6942 13.2482 29.2312 14.2237C27.7681 15.1991 26.3768 16.2733 25.0679 17.4134C24.7367 17.6946 24.4232 17.9928 24.1035 18.2829C23.7864 18.5766 23.4818 18.8801 23.1727 19.1782C23.023 19.3313 22.8733 19.4853 22.7237 19.6375C22.5749 19.7906 22.4235 19.9419 22.2809 20.1003C21.9939 20.4145 21.7008 20.7215 21.4271 21.0437C20.3148 22.3146 19.307 23.6362 18.4169 24.9855C16.6431 27.6884 15.3509 30.4963 14.5433 33.1725C13.7294 35.8505 13.3982 38.3879 13.3831 40.5835C13.0342 43.3914 13.0758 46.243 13.4823 49.0554C13.0413 47.7408 12.6729 46.3249 12.4125 44.8154C12.153 43.306 12.0078 41.704 12.0007 40.0264C11.9776 36.6729 12.5444 33.0079 13.8489 29.2957Z" fill="white"/>
<path d="M50.039 36.5154L48.9019 38.2713C47.8622 39.8324 47.0288 41.106 46.4009 42.0921C45.773 43.0791 45.286 43.881 44.9397 44.4986C44.5934 45.1163 44.3658 45.5933 44.2578 45.9288C44.1497 46.2653 44.0957 46.5625 44.0966 46.8224C44.0966 47.1045 44.1789 47.3315 44.3419 47.5041C44.5048 47.6777 44.7165 47.764 44.9769 47.7631C45.4108 47.7622 45.9688 47.5184 46.6516 47.0298C47.3344 46.542 48.0818 45.8318 48.8939 44.8991C49.7061 43.9673 50.5678 42.829 51.4773 41.4842C52.3868 40.1403 53.2848 38.6122 54.1722 36.899L58.8907 36.7637C58.6959 37.0885 58.4196 37.5228 58.0627 38.0649C57.7058 38.6069 57.3046 39.1978 56.8609 39.8368C56.4163 40.4767 55.962 41.154 55.4971 41.8696C55.0312 42.5851 54.6088 43.2731 54.2307 43.9344C53.8516 44.5956 53.5434 45.2133 53.3052 45.7873C53.067 46.3623 52.9483 46.8331 52.9492 47.2015C52.9492 47.505 53.0147 47.7159 53.1449 47.8352C53.2751 47.9545 53.4487 48.0132 53.6656 48.0132C54.034 48.0123 54.4627 47.861 54.9507 47.5566C55.4386 47.2532 55.9585 46.8571 56.5111 46.3685C57.0637 45.8808 57.627 45.3325 58.2009 44.7256C58.7747 44.1186 59.3167 43.5116 59.826 42.9038C60.3343 42.2968 60.8054 41.7218 61.2394 41.1798C61.6725 40.6378 62.0196 40.1937 62.2791 39.8466L62.5722 40.1065C62.2038 40.5408 61.7814 41.0552 61.3049 41.6515C60.8285 42.2478 60.3139 42.8717 59.7613 43.5214C59.2087 44.172 58.6242 44.8172 58.006 45.4571C57.3887 46.0971 56.7546 46.6666 56.1046 47.165C55.4546 47.6643 54.7983 48.0711 54.1377 48.3861C53.4761 48.7003 52.8199 48.8587 52.1698 48.8596C51.6925 48.8605 51.2798 48.7848 50.9326 48.6335C50.5855 48.4822 50.303 48.2766 50.086 48.0177C49.869 47.7578 49.7052 47.4605 49.5971 47.125C49.4882 46.7895 49.4333 46.4486 49.4333 46.1015C49.4333 45.8416 49.4652 45.5817 49.5298 45.3219C49.5945 45.062 49.6591 44.8457 49.7246 44.6713L49.66 44.6063C49.1835 45.1483 48.6956 45.6743 48.1979 46.1843C47.6993 46.6942 47.1794 47.1499 46.6374 47.5513C46.0954 47.9527 45.5428 48.2731 44.9795 48.5116C44.4154 48.7501 43.8406 48.8703 43.2552 48.8712C42.3439 48.8721 41.6709 48.6077 41.2369 48.0773C40.803 47.5477 40.5851 46.8705 40.5842 46.0472C40.5833 45.6138 40.6808 45.1207 40.8756 44.568C41.0704 44.0154 41.3193 43.436 41.6222 42.829C41.9251 42.222 42.266 41.6044 42.6451 40.9751C43.0241 40.3468 43.3863 39.7558 43.7335 39.2032C44.0798 38.6505 44.3995 38.1521 44.6917 37.7071C44.984 37.263 45.2054 36.9105 45.3577 36.6498L50.039 36.5154Z" fill="white"/>
<path d="M77.1769 36.7423C76.9386 37.0894 76.6296 37.5344 76.2514 38.0755C75.8724 38.6175 75.4659 39.2032 75.0328 39.8315C74.5997 40.4607 74.1667 41.1158 73.7336 41.7993C73.3005 42.4819 72.9056 43.1485 72.5487 43.7991C72.1918 44.4497 71.8995 45.0567 71.6719 45.62C71.4452 46.1843 71.3318 46.6604 71.3318 47.0502C71.3327 47.6786 71.5825 47.9927 72.0811 47.9919C72.5363 47.991 73.0729 47.7747 73.6911 47.3404C74.3093 46.9069 74.9859 46.3267 75.7227 45.5995C76.4586 44.8733 77.2282 44.0216 78.0297 43.0462C78.8312 42.0707 79.6433 41.041 80.4669 39.9561L80.6627 40.086C79.7965 41.1923 78.9516 42.271 78.1289 43.3221C77.3053 44.374 76.4879 45.3058 75.6758 46.1193C74.8628 46.9328 74.0507 47.5887 73.2377 48.088C72.4247 48.5873 71.5957 48.8373 70.7491 48.8382C70.0114 48.8391 69.4472 48.7208 69.0567 48.4831C68.6661 48.2455 68.3774 47.9473 68.1932 47.5905C68.0081 47.2336 67.8992 46.8598 67.8664 46.47C67.8337 46.0801 67.8168 45.7339 67.8159 45.4304L67.7185 45.3655C67.3714 45.7775 66.9985 46.1896 66.5973 46.6017C66.1962 47.0137 65.7578 47.3884 65.2804 47.724C64.8031 48.0604 64.3045 48.3318 63.7846 48.5383C63.2639 48.7448 62.7113 48.848 62.125 48.8489C61.0835 48.8498 60.2971 48.5428 59.7648 47.926C59.2326 47.3092 58.966 46.3187 58.9642 44.9534C58.9634 44.0002 59.2007 43.0195 59.6763 42.012C60.1518 41.0036 60.8293 40.0825 61.707 39.2477C62.5846 38.4128 63.6296 37.724 64.8447 37.1802C66.0589 36.6373 67.3926 36.365 68.8459 36.3632C69.6917 36.3623 70.3373 36.5723 70.7827 36.9942C71.2273 37.4161 71.516 37.9411 71.6471 38.5695H71.7118L72.5557 36.8785L77.1769 36.7423ZM64.2708 47.416C64.726 47.4151 65.3114 47.1223 66.027 46.5367C66.7426 45.9511 67.4458 45.2026 68.1392 44.2921C68.8317 43.3817 69.4278 42.3893 69.9255 41.3169C70.4232 40.2436 70.6712 39.2201 70.6703 38.2455C70.6694 37.7471 70.5224 37.3742 70.2292 37.125C69.9361 36.8767 69.6049 36.7521 69.2365 36.753C68.7813 36.7539 68.3199 36.9061 67.854 37.2096C67.3873 37.5139 66.9321 37.9207 66.4884 38.4298C66.0438 38.9397 65.6214 39.5147 65.2211 40.1537C64.8199 40.7936 64.4683 41.4433 64.1663 42.1045C63.8634 42.7658 63.6252 43.4208 63.4525 44.0714C63.2789 44.722 63.1939 45.2961 63.1939 45.7936C63.1939 46.162 63.2648 46.5243 63.4065 46.882C63.5491 47.238 63.8369 47.4169 64.2708 47.416Z" fill="white"/>
<path d="M74.4912 48.444L81.213 36.9328L85.8333 36.7326C84.2737 38.9006 82.7797 41.1122 81.3503 43.3666L81.4158 43.4315C81.9791 42.716 82.607 41.9461 83.3004 41.122C83.9938 40.2979 84.7245 39.5334 85.4941 38.8285C86.2628 38.1236 87.0545 37.5327 87.8675 37.0547C88.6805 36.5777 89.4882 36.3383 90.2906 36.3365C91.1151 36.3356 91.8041 36.5457 92.3576 36.9675C92.9111 37.3894 93.1883 38.0337 93.1892 38.8997C93.1901 39.6144 92.9687 40.3513 92.525 41.1104C92.0813 41.8696 91.588 42.6119 91.0469 43.3381C90.5049 44.0652 90.0125 44.7585 89.5688 45.4198C89.1251 46.0811 88.9037 46.6613 88.9037 47.1588C88.9037 47.376 88.9639 47.5647 89.0835 47.7275C89.203 47.8895 89.3925 47.9705 89.6529 47.9705C90.1303 47.9696 90.6723 47.7471 91.2789 47.3021C91.8855 46.858 92.5143 46.3098 93.1644 45.6592C93.663 45.1608 94.1607 44.6241 94.6593 44.0492C95.157 43.4751 95.6228 42.9216 96.0568 42.3902C96.4899 41.8589 96.8795 41.3712 97.2267 40.9262C97.573 40.4821 97.844 40.1297 98.0388 39.8689L98.3319 40.0309C97.5951 41.0063 96.8096 42.0147 95.9762 43.056C95.1419 44.0964 94.3024 45.0513 93.4575 45.9182C92.5692 46.8295 91.7075 47.5398 90.8733 48.0497C90.0382 48.5597 89.1871 48.8151 88.3201 48.816C87.3441 48.8169 86.6117 48.5303 86.1229 47.9572C85.634 47.384 85.3896 46.6417 85.3878 45.7322C85.3869 44.9525 85.5977 44.2103 86.0192 43.5054C86.4417 42.8014 86.9119 42.1393 87.4327 41.5216C87.9525 40.904 88.4237 40.3344 88.8461 39.8137C89.2686 39.2931 89.4793 38.8053 89.4793 38.3506C89.4784 37.7445 89.1853 37.441 88.5999 37.4419C88.2094 37.4428 87.732 37.6439 87.1688 38.0444C86.6046 38.4458 85.998 38.9718 85.3479 39.6224C84.6979 40.273 84.0372 41.0001 83.3659 41.802C82.6946 42.6047 82.0606 43.4066 81.4654 44.2085C80.8694 45.0113 80.3495 45.7696 79.9058 46.4851C79.4622 47.2007 79.1318 47.7854 78.9157 48.2411L74.4912 48.444Z" fill="white"/>
<path d="M83.6635 12.5131C83.4678 12.6163 82.8452 12.9492 82.4369 13.4236C82.3643 13.5072 82.0977 13.784 81.8542 14.1711C81.6328 14.5236 81.3113 14.8048 81.1121 15.1733C80.9721 15.3967 80.7676 15.5702 80.6267 15.7927C80.3602 16.2698 79.9811 16.6703 79.6898 17.1304C78.9875 18.2838 78.1284 19.3367 77.4492 20.5043C76.8292 21.5688 76.2306 22.6439 75.7072 23.7582C75.6576 23.8641 75.6089 23.9718 75.5849 24.0866C75.5646 24.1827 75.5504 24.2886 75.6611 24.3402C75.7585 24.3856 75.8524 24.3482 75.933 24.2833C76.0446 24.1943 76.0986 24.067 76.1615 23.946C76.9196 22.4703 78.2506 21.834 79.804 21.5412C80.88 21.3383 81.9658 21.4451 83.0471 21.47C83.9345 21.4914 84.8166 21.5047 85.6925 21.2991C85.9927 21.2288 86.3629 21.1487 86.5559 21.4655C86.7481 21.7797 86.4364 21.9969 86.2646 22.2229C86.0042 22.5674 85.6499 22.8281 85.3125 23.2233C85.9502 23.3167 86.5462 23.3488 87.1254 23.4645C87.3627 23.5116 87.6904 23.476 87.7214 23.8169C87.7497 24.1275 87.4646 24.2219 87.2379 24.3367C86.9084 24.5022 86.5542 24.6312 86.2681 24.9516C86.5001 25.0976 86.7481 25.0673 86.9589 25.1466C87.1077 25.2026 87.2821 25.2525 87.3105 25.4198C87.3441 25.6209 87.1767 25.7277 87.02 25.8194C86.8491 25.9191 86.6719 26.0072 86.4789 26.0552C84.6722 26.5056 82.9329 27.1179 81.3246 28.0755C79.1947 29.3447 76.6273 27.5718 76.0614 25.7785C76.0269 25.6672 75.9976 25.5551 75.9658 25.4429C75.9038 25.224 75.7993 25.0522 75.5362 25.0335C75.244 25.0139 75.1129 25.1928 75.0182 25.4251C74.7737 26.0214 74.5683 26.6311 74.3717 27.2425C74.1095 28.0586 73.8669 28.8801 73.6074 29.6971C73.4373 30.2311 73.3567 30.7526 73.6756 31.2573C73.6756 31.348 73.6455 31.4255 73.5693 31.4815C73.3417 31.4887 73.1043 31.4255 73.0946 31.8082C73.0849 32.2096 72.9184 32.5958 72.8643 32.9981C72.8387 33.1859 72.8077 33.3852 72.5995 33.4849C72.4587 33.4805 72.4003 33.3843 72.356 33.2731C72.3002 32.2861 72.5863 31.34 72.7545 30.3815C72.7811 30.2863 72.8378 30.2026 72.8643 30.1083C72.8723 30.0727 72.9219 30.0451 72.921 30.0202C72.9175 29.9436 72.9582 30.0157 72.8803 30.03C72.836 30.1314 72.7953 30.2338 72.7138 30.3148C72.5234 30.499 72.3666 30.7242 72.0885 30.7971C71.9637 30.8096 71.8609 30.7811 71.8105 30.6556C71.7848 30.4758 71.9114 30.3699 72.0195 30.2605C72.7678 29.5031 73.2452 28.6086 73.502 27.586C73.6959 26.8144 73.9572 26.0597 74.2548 25.3201C74.3973 24.9659 74.3841 24.7247 74.0396 24.4808C73.3612 23.9994 73.0698 23.2963 73.0344 22.481C73.0645 22.2514 72.9981 21.9951 73.2239 21.818C73.4214 21.7877 73.4754 21.9319 73.5383 22.0663C73.672 22.4686 73.61 22.9136 73.827 23.3016C73.951 23.5241 74.0829 23.7332 74.2778 23.9006C74.5435 24.1284 74.7436 24.1435 74.8942 23.7653C75.7514 21.6168 77.0143 19.6838 78.2648 17.7454C78.8245 16.85 79.4746 16.017 80.1016 15.1679C80.3398 14.7568 80.6923 14.4257 80.9411 14.0216C81.0775 13.8481 81.2414 13.6959 81.3636 13.5161C81.3104 13.4307 81.2954 13.549 81.2582 13.5393C80.6276 13.8917 79.9705 14.1943 79.4019 14.6428C79.1947 14.7879 79.0406 14.9935 78.8298 15.1341C78.0337 15.5079 77.4199 16.1229 76.7548 16.6694C76.6406 16.7806 76.5237 16.8892 76.4041 16.9951C76.2837 17.0948 76.1792 17.2105 76.0747 17.3262C75.8666 17.5309 75.6717 17.748 75.4663 17.9554C75.2954 18.1156 75.1811 18.3159 75.0616 18.5116C74.9349 18.7074 74.8092 18.9024 74.6878 19.1017C74.6621 19.148 74.6329 19.1916 74.6019 19.2352C74.5727 19.2806 74.539 19.3224 74.5036 19.3634C74.4266 19.4453 74.3416 19.5138 74.2211 19.5182C74.1308 19.5058 74.0688 19.4559 74.028 19.3776C73.9297 18.9691 74.2618 18.7235 74.4115 18.4084C74.6329 18.0444 74.8897 17.7053 75.1634 17.3787C75.3627 17.0992 75.6159 16.8669 75.8444 16.6133C75.9826 16.4709 76.1172 16.3232 76.2527 16.1843C75.9773 16.0882 75.7001 16.1843 75.4255 16.1719C75.0908 16.1612 74.7551 16.1727 74.4257 16.1024C73.9395 15.8915 73.5463 15.9316 73.301 16.4753C73.2151 16.6649 73.0335 16.7966 72.8661 16.9266C72.681 17.0485 72.5136 17.2158 72.2612 17.1758C72.0762 17.2131 71.8911 17.2505 71.706 17.287C71.574 17.2479 71.4447 17.3351 71.3128 17.2986C71.2392 17.3039 71.1649 17.3093 71.0913 17.3146C70.3474 17.3849 69.7266 17.0547 69.1155 16.7219C68.2795 16.2662 67.548 15.6565 66.7492 15.1448C66.6473 15.0932 66.5862 15.0051 66.5313 14.9107C66.3569 14.7888 66.1753 14.6749 66.0106 14.5414C65.8627 14.4221 65.899 14.2539 66.085 14.1783C66.193 14.1347 66.3081 14.1035 66.4233 14.0813C66.557 14.0554 66.6934 14.0465 66.8289 14.0296C66.8333 13.8543 66.6907 13.8463 66.6048 13.7947C66.1859 13.5455 65.7573 13.3105 65.3393 13.0595C65.1737 12.9599 65.0214 12.8353 64.8726 12.7116C64.7672 12.6234 64.8008 12.4873 64.9301 12.4383C65.1923 12.3395 65.4642 12.3004 65.7422 12.3102C66.1744 12.3253 66.6057 12.3467 67.037 12.3689C67.1149 12.3725 67.192 12.3929 67.2744 12.2968C67.0184 11.9951 66.758 11.689 66.4977 11.3828C66.4224 11.2947 66.3383 11.2119 66.2727 11.1167C66.2196 11.0401 66.1549 10.9485 66.2284 10.8532C66.2958 10.766 66.4082 10.766 66.4986 10.7874C66.7651 10.8506 67.0361 10.9075 67.2894 11.0063C68.1299 11.333 68.996 11.5822 69.8568 11.8483C70.3802 12.0102 70.8983 12.1927 71.4093 12.3885C71.8671 12.5638 72.2958 12.8006 72.6952 13.0836C72.8537 13.1957 73.0069 13.3168 73.1566 13.4414C73.6809 13.8801 73.9802 14.4132 73.8536 15.1208C73.7748 15.3593 73.9377 15.4091 74.1157 15.459C74.4514 15.5524 74.7932 15.5791 75.1413 15.5569C75.5876 15.548 76.0162 15.4643 76.4192 15.2658C76.4723 15.2347 76.5281 15.2089 76.5857 15.1857C77.4111 14.8289 78.2285 14.4675 78.9768 13.9504C80.0059 13.2384 81.1209 12.6653 82.2457 12.1162C82.514 12.0031 82.7779 11.8794 83.0498 11.7753C83.2163 11.7201 83.3961 11.7094 83.5555 11.6293C83.5865 11.5982 83.6166 11.567 83.6476 11.5359" fill="white"/>
</g>
<defs>
<clipPath id="clip0_756_939">
<rect width="116" height="77" fill="white"/>
</clipPath>
</defs>
</svg>
