<svg width="121" height="89" viewBox="0 0 121 89" fill="none" xmlns="http://www.w3.org/2000/svg">
<path d="M5.25098 64.8831V75.2366C5.25098 76.3265 4.94629 77.1819 4.33691 77.803C3.7334 78.43 2.89844 78.7435 1.83203 78.7435C1.63867 78.7435 1.41602 78.7318 1.16406 78.7083C0.912109 78.6849 0.750977 78.6673 0.680664 78.6556L0.838867 77.3021H1.74414C2.30664 77.3021 2.7168 77.1585 2.97461 76.8714C3.23242 76.5843 3.36133 76.1595 3.36133 75.597V64.8831L1.83203 64.5228V63.5384L6.78027 63.4417V64.5228L5.25098 64.8831ZM19.4805 70.9124C19.4805 72.6761 19.1084 74.0032 18.3643 74.8939C17.6201 75.7786 16.3428 76.221 14.5322 76.221C12.8154 76.221 11.5908 75.8109 10.8584 74.9905C10.126 74.1702 9.75977 72.9017 9.75977 71.1849V64.8831L8.23047 64.5228V63.5384L13.3633 63.4417V64.5228L11.6494 64.8831V71.1849C11.6494 72.0872 11.752 72.7903 11.957 73.2943C12.1621 73.7982 12.4785 74.1585 12.9062 74.3753C13.3398 74.5862 13.9111 74.6917 14.6201 74.6917C15.376 74.6917 15.9648 74.5716 16.3867 74.3314C16.8145 74.0911 17.1221 73.6985 17.3096 73.1536C17.4971 72.6087 17.5908 71.8616 17.5908 70.9124V64.8831L15.877 64.5228V63.5384L21.0098 63.4417V64.5228L19.4805 64.8831V70.9124ZM26.5029 63.5384L28.3047 63.4417L32.3037 74.6214L33.7979 74.9642V76.0452H28.5771V74.9642L30.2471 74.6214L29.5615 72.6263H24.8857L24.1826 74.6214L25.8701 74.9642V76.0452H20.9219V74.9642L22.3984 74.6214L26.5029 63.5384ZM27.2588 65.7708L25.3691 71.1849H29.0781L27.2588 65.7708ZM38.9131 74.9642V76.0452H34.0527V74.9642L35.582 74.6038V64.8831L34.0527 64.5228V63.5384L37.832 63.4417L43.7734 73.5052V64.8831L42.2441 64.5228V63.5384L46.9199 63.4417V64.5228L45.3906 64.8831V76.0452H43.1406L37.1992 66.1312V74.6038L38.9131 74.9642ZM54.0391 64.8831L52.5098 64.5228V63.5384L55.9287 63.4417H58.1787C59.9541 63.4417 61.3428 63.9749 62.3447 65.0413C63.3467 66.1019 63.8477 67.6107 63.8477 69.5677C63.8477 70.8743 63.6045 72.0169 63.1182 72.9954C62.6377 73.9739 61.9463 74.7269 61.0439 75.2542C60.1416 75.7816 59.0986 76.0452 57.915 76.0452H52.5098V74.9642L54.0391 74.6038V64.8831ZM58.0029 74.6038C59.1807 74.6038 60.1035 74.1937 60.7715 73.3734C61.4453 72.553 61.7822 71.3138 61.7822 69.6556C61.7822 68.0384 61.457 66.8401 60.8066 66.0609C60.1621 65.2757 59.2568 64.8831 58.0908 64.8831H55.9287V74.6038H58.0029ZM73.3135 68.7591V70.1917H69.1738V74.6038H73.3135L73.6738 72.8021H74.8428V76.0452H65.7461V74.9642L67.2754 74.6038V64.8831L65.7461 64.5228V63.5384L69.1738 63.4417H74.6582V66.5091H73.4893L73.041 64.8831H69.1738V68.7591H73.3135ZM78.9824 74.2435C79.0293 74.2669 79.1377 74.3167 79.3076 74.3929C79.4775 74.4632 79.709 74.5306 80.002 74.595C80.2949 74.6595 80.6143 74.6917 80.96 74.6917C81.6807 74.6917 82.3193 74.5218 82.876 74.1819C83.4385 73.8421 83.7197 73.3704 83.7197 72.7669C83.7197 72.3802 83.5996 72.0579 83.3594 71.8001C83.1191 71.5364 82.8203 71.3226 82.4629 71.1585C82.1113 70.9944 81.625 70.7982 81.0039 70.5696C80.1895 70.2825 79.5303 70.013 79.0264 69.761C78.5283 69.5091 78.1006 69.1458 77.7432 68.6712C77.3916 68.1966 77.2158 67.5872 77.2158 66.8431C77.2158 65.6536 77.6201 64.7601 78.4287 64.1624C79.2432 63.5648 80.2627 63.2659 81.4873 63.2659C81.9912 63.2659 82.5244 63.3216 83.0869 63.4329C83.6494 63.5384 84.1299 63.6497 84.5283 63.7669C84.9268 63.8782 85.1787 63.9515 85.2842 63.9866L85.1963 67.0452H84.0273L83.4121 65.1204C83.3652 65.1087 83.251 65.0765 83.0693 65.0237C82.8877 64.9651 82.6533 64.9124 82.3662 64.8655C82.0791 64.8187 81.792 64.7952 81.5049 64.7952C80.7373 64.7952 80.1455 64.9681 79.7295 65.3138C79.3135 65.6536 79.1055 66.0638 79.1055 66.5443C79.1055 66.931 79.2256 67.2562 79.4658 67.5198C79.7061 67.7776 80.0049 67.9915 80.3623 68.1614C80.7256 68.3314 81.2324 68.5306 81.8828 68.7591C82.6621 69.0345 83.3008 69.2952 83.7988 69.5413C84.2969 69.7874 84.7188 70.136 85.0645 70.5872C85.416 71.0325 85.5918 71.598 85.5918 72.2835C85.5918 73.1448 85.3809 73.8743 84.959 74.472C84.5371 75.0638 83.9688 75.5032 83.2539 75.7903C82.5449 76.0775 81.7568 76.221 80.8896 76.221C80.3271 76.221 79.7734 76.1683 79.2285 76.0628C78.6836 75.9573 78.2295 75.8489 77.8662 75.7376C77.5088 75.6204 77.2803 75.5443 77.1807 75.5091V72.3538H78.6221L78.9824 74.2435ZM87.4727 74.9642L89.002 74.6038V64.8831L87.4727 64.5228V63.5384L92.4209 63.4417V64.5228L90.8916 64.8831V74.6038L92.4209 74.9642V76.0452H87.4727V74.9642ZM104.664 75.1487C104.664 75.1722 104.438 75.2776 103.987 75.4651C103.542 75.6468 102.977 75.8196 102.291 75.9837C101.605 76.1419 100.867 76.221 100.076 76.221C98.2539 76.221 96.8389 75.6878 95.8311 74.6214C94.8232 73.555 94.3193 72.0198 94.3193 70.0159C94.3193 68.6507 94.5654 67.4612 95.0576 66.4476C95.5498 65.428 96.2471 64.6429 97.1494 64.0921C98.0576 63.5413 99.124 63.2659 100.349 63.2659C100.935 63.2659 101.526 63.3333 102.124 63.4681C102.728 63.597 103.258 63.7435 103.715 63.9075C104.172 64.0657 104.4 64.1507 104.4 64.1624L104.312 67.1331H103.135L102.599 65.1556C102.54 65.1321 102.399 65.0941 102.177 65.0413C101.954 64.9827 101.661 64.9271 101.298 64.8743C100.94 64.8216 100.562 64.7952 100.164 64.7952C98.9512 64.7952 98.0166 65.2376 97.3604 66.1224C96.71 67.0013 96.3848 68.2698 96.3848 69.928C96.3848 71.4984 96.7422 72.6849 97.457 73.4876C98.1719 74.2903 99.1357 74.6917 100.349 74.6917C100.718 74.6917 101.087 74.6595 101.456 74.595C101.831 74.5306 102.145 74.4632 102.396 74.3929C102.648 74.3167 102.807 74.2669 102.871 74.2435V71.2903L101.342 70.93V69.9456L106.018 69.8489V70.93L104.664 71.2903V75.1487ZM112.319 74.9642V76.0452H107.459V74.9642L108.988 74.6038V64.8831L107.459 64.5228V63.5384L111.238 63.4417L117.18 73.5052V64.8831L115.65 64.5228V63.5384L120.326 63.4417V64.5228L118.797 64.8831V76.0452H116.547L110.605 66.1312V74.6038L112.319 74.9642Z" fill="#434343"/>
<path d="M44.7224 15.232C44.9646 15.6548 45.2012 16.2047 45.4303 16.8835C45.6594 17.5624 45.7752 18.2034 45.7752 18.8067C45.776 19.9544 45.528 20.9952 45.032 21.931C44.5351 22.8677 43.8971 23.6608 43.1169 24.3101C42.3368 24.9604 41.4696 25.467 40.5153 25.8299C39.5602 26.1937 38.6117 26.3761 37.6706 26.377C36.8634 26.3779 36.1169 26.2057 35.4304 25.8594C34.7438 25.514 34.1509 25.0461 33.6533 24.4584C33.1548 23.8708 32.7639 23.1846 32.4806 22.3998C32.1972 21.616 32.0552 20.7861 32.0544 19.9102C32.0527 18.3112 32.4206 16.8918 33.1597 15.6539C33.898 14.416 34.8859 13.3355 36.1235 12.4135C37.3594 11.4916 38.799 10.7123 40.4398 10.0768C42.0797 9.44124 43.8084 8.90334 45.6249 8.46306C47.4406 8.02371 49.2834 7.68199 51.1533 7.43698C53.0232 7.19382 54.8061 7.00961 56.501 6.8871C58.196 6.7646 59.7563 6.68723 61.1828 6.65499C62.6084 6.62368 63.7794 6.60618 64.6943 6.60526C64.9094 6.60526 65.2051 6.5592 65.582 6.46802C65.9581 6.37683 66.349 6.28564 66.7522 6.19446C67.1555 6.10327 67.539 6.01208 67.9019 5.92182C68.2649 5.83063 68.554 5.7855 68.77 5.78458C69.684 5.78366 70.1422 6.05445 70.143 6.59789C70.143 6.95987 69.9952 7.23159 69.6996 7.41304C69.4031 7.59449 68.9999 7.68568 68.4891 7.6866C68.0309 7.68752 67.5406 7.64238 67.0159 7.55304C66.4911 7.46278 65.9721 7.38909 65.4613 7.3283C65.0844 7.39001 64.5465 7.57883 63.8476 7.8966C63.1479 8.21437 62.3686 8.71359 61.508 9.39335C60.6473 10.0731 59.7465 10.9647 58.8062 12.0672C57.8651 13.1707 56.965 14.5219 56.106 16.1227C53.2055 21.5589 50.9562 25.8621 49.359 29.0334C47.7609 32.2047 46.6933 34.3038 46.1562 35.3299C48.6576 34.7229 50.8897 33.6111 52.8532 31.9937C54.8151 30.3773 56.6029 28.3896 58.2149 26.0344L58.5787 26.2149C57.9874 27.1213 57.2894 28.0654 56.483 29.0472C55.6765 30.0291 54.756 30.9667 53.7212 31.8574C52.6857 32.749 51.5163 33.5577 50.2122 34.2835C48.9073 35.0093 47.4619 35.5703 45.8754 35.9645C44.6665 38.2294 43.323 40.3285 41.8457 42.2619C40.3675 44.1943 38.7678 45.8651 37.0481 47.2707C35.3277 48.6762 33.4923 49.7723 31.5419 50.5598C29.5915 51.3464 27.5401 51.7416 25.3877 51.7443C24.5542 51.7452 23.7067 51.6402 22.8444 51.4312C21.983 51.2212 21.2094 50.8822 20.5229 50.4152C19.8363 49.9473 19.2771 49.3376 18.846 48.5841C18.4148 47.8298 18.1988 46.9096 18.1972 45.8237C18.1964 44.5857 18.5175 43.5376 19.163 42.6764C19.8076 41.8151 20.7019 41.0967 21.845 40.5229C22.9882 39.9481 24.353 39.471 25.9404 39.0915C27.527 38.712 29.2491 38.3703 31.1059 38.0664C33.0965 37.732 34.8588 37.4585 36.392 37.2448C37.9252 37.032 39.0954 36.8192 39.9027 36.6065C40.7083 35.1567 41.4802 33.6848 42.2193 32.1899C42.9576 30.695 43.7024 29.1854 44.4547 27.6601C45.2061 26.1357 45.9854 24.6251 46.791 23.1302C47.5966 21.6353 48.4425 20.1929 49.3294 18.804C51.6124 15.3306 54.0111 12.6862 56.5257 10.8726C59.0394 9.059 61.6689 7.84871 64.4126 7.2408V7.15053C63.9815 7.15145 63.2481 7.15974 62.2126 7.17632C61.1762 7.1929 59.9592 7.25461 58.5598 7.36238C57.1605 7.47014 55.647 7.63041 54.0193 7.84318C52.3909 8.05687 50.7567 8.36819 49.1159 8.77715C47.4751 9.18703 45.8877 9.70191 44.3545 10.3227C42.8213 10.9435 41.4704 11.7071 40.3002 12.6143C39.1307 13.5216 38.1896 14.5864 37.4785 15.8095C36.7665 17.0327 36.4117 18.4447 36.4133 20.0437C36.415 21.4622 36.7928 22.5555 37.5466 23.3246C38.3005 24.0937 39.2835 24.4769 40.494 24.475C41.1123 24.4741 41.711 24.3147 42.2891 23.997C42.8673 23.6792 43.3781 23.2564 43.8215 22.7277C44.265 22.199 44.6206 21.5801 44.8891 20.8699C45.1568 20.1607 45.2915 19.4284 45.2907 18.6741C45.2898 17.7687 44.9926 16.7279 44.3996 15.5516L44.7224 15.232ZM22.5554 46.6324C22.557 47.9909 22.9348 49.0916 23.6887 49.9353C24.4434 50.779 25.4387 51.2009 26.6762 51.1991C28.2907 51.1972 29.7361 50.7118 31.0139 49.7447C32.2909 48.7766 33.4463 47.5838 34.481 46.1635C35.5149 44.7432 36.4561 43.2253 37.3019 41.6107C38.1478 39.9951 38.9468 38.537 39.699 37.2393C38.7037 37.4216 37.7076 37.5893 36.7131 37.7412C35.7178 37.8941 34.729 38.0609 33.7469 38.2432C32.7647 38.4256 31.776 38.6457 30.7807 38.9036C29.7853 39.1606 28.79 39.5014 27.7947 39.926C27.1492 40.1987 26.5169 40.5385 25.8985 40.9466C25.2793 41.3546 24.7226 41.8382 24.2249 42.3973C23.7281 42.9564 23.3249 43.5901 23.0161 44.3002C22.7089 45.0094 22.5546 45.7868 22.5554 46.6324Z" fill="#434343"/>
<path fill-rule="evenodd" clip-rule="evenodd" d="M19.7145 31.0532C20.4544 28.6584 21.4456 26.3382 22.6134 24.1156C23.7959 21.9041 25.1575 19.7903 26.6866 17.8321C29.7374 13.9046 33.3951 10.5492 37.3862 7.90567C41.3781 5.25758 45.7034 3.30767 50.1256 2.11948C51.231 1.82198 52.3437 1.57881 53.4565 1.36973C54.5709 1.17262 55.6869 1.01696 56.8013 0.909193C59.0309 0.703794 61.2514 0.676161 63.4318 0.843797C67.7949 1.16986 71.9929 2.22449 75.8173 3.8465C75.9372 3.89716 76.0571 3.94505 76.1762 3.99663C76.2944 4.04913 76.4127 4.10256 76.5309 4.15506C76.7666 4.2619 77.0031 4.36506 77.2364 4.47375C77.7003 4.69941 78.166 4.91402 78.6184 5.1535C79.5308 5.61404 80.4112 6.12247 81.2734 6.63827C81.6996 6.90723 82.1283 7.1642 82.5414 7.44421C82.7492 7.58237 82.9561 7.72053 83.1622 7.85777C83.3659 8.00054 83.5679 8.14239 83.7699 8.28423C83.8709 8.35515 83.9719 8.42608 84.0721 8.497C84.1715 8.57068 84.27 8.64345 84.3694 8.71713C84.5665 8.86359 84.7636 9.01004 84.959 9.15557C85.152 9.30662 85.3442 9.45676 85.5363 9.60597C85.7277 9.75611 85.9199 9.9044 86.1046 10.0601C87.6033 11.2869 88.9953 12.5774 90.269 13.9157C91.5419 15.2549 92.7023 16.6338 93.7526 18.0255C95.8549 20.809 97.5113 23.6413 98.7924 26.329C100.357 29.5841 101.367 32.6254 102.035 35.3214C102.703 38.0202 103.038 40.3781 103.192 42.3759C103.348 44.3756 103.33 46.0169 103.248 47.3341C103.225 47.6638 103.204 47.9733 103.176 48.2625C103.145 48.5527 103.113 48.8235 103.08 49.0758C103.063 49.202 103.046 49.3227 103.031 49.4406C103.013 49.5575 102.993 49.6699 102.974 49.7777C102.935 49.9932 102.898 50.1922 102.859 50.3727C102.786 50.7356 102.701 51.0303 102.624 51.2652C102.547 51.5001 102.473 51.6733 102.406 51.793C102.27 52.0316 102.157 52.0546 102.078 51.91C101.999 51.7654 101.955 51.4531 101.957 51.0156C101.96 50.7964 101.965 50.5468 101.984 50.2705C102.001 49.9941 102.038 49.6902 102.076 49.365C102.115 49.0408 102.148 48.7415 102.177 48.4661C102.208 48.1897 102.221 47.9392 102.237 47.709C102.252 47.4796 102.264 47.2714 102.272 47.0845C102.278 46.8975 102.278 46.7317 102.277 46.5852C102.272 45.9967 102.227 45.713 102.159 45.6181C102.093 45.5232 102.013 45.6144 101.936 45.7719C101.86 45.9294 101.779 46.1542 101.724 46.3255C101.237 47.2687 100.756 47.1379 100.307 46.3955C99.8534 45.6513 99.4165 44.289 98.9155 42.7075C98.4195 41.1242 97.8611 39.3189 97.2871 37.6398C96.7131 35.9616 96.121 34.4123 95.6898 33.2923C94.8333 31.0513 94.0482 29.1816 93.8002 28.2061C93.6737 27.7217 93.6893 27.4573 93.8856 27.5024C94.0794 27.5494 94.467 27.8976 95.0443 28.6722C94.3381 27.3984 93.7132 26.3041 93.1851 25.3858C93.057 25.1528 92.9297 24.9354 92.8115 24.7272C92.6932 24.5191 92.5848 24.3183 92.4822 24.1295C92.2711 23.7564 92.097 23.4184 91.9508 23.1246C91.3604 21.9557 91.2881 21.4298 91.7784 21.6766C92.0247 21.7991 92.3228 22.0718 92.6415 22.3776C92.8016 22.5296 92.9552 22.7 93.1112 22.8639C93.2664 23.0279 93.4192 23.189 93.5588 23.3373C94.1131 23.9342 94.5319 24.2842 94.4276 23.5409C94.449 23.3106 94.412 23.0085 94.3225 22.6419C94.2256 22.2809 94.0786 21.8516 93.8749 21.3736C93.466 20.4194 92.8353 19.2616 92.0009 18.0052C91.1666 16.7489 90.1236 15.3986 88.9115 14.0584C87.7027 12.7146 86.314 11.3947 84.826 10.1678C83.3404 8.93635 81.7399 7.82185 80.1319 6.84736C79.9324 6.72209 79.7295 6.60696 79.5275 6.4909C79.3255 6.37484 79.1243 6.25971 78.9248 6.1455C78.7219 6.03681 78.5207 5.92812 78.3203 5.82036C78.12 5.71259 77.9212 5.60391 77.72 5.50627C77.3185 5.3064 76.9251 5.10284 76.5293 4.92415C76.3322 4.83297 76.1367 4.74178 75.9438 4.65244C75.7483 4.5677 75.5545 4.48388 75.3632 4.40098C73.8283 3.7415 72.3838 3.24227 71.1331 2.87384C70.9771 2.82779 70.8235 2.78266 70.674 2.73845C70.5246 2.69423 70.3768 2.65831 70.233 2.61963C69.9456 2.54502 69.673 2.46949 69.4151 2.40778C68.8969 2.28988 68.4436 2.17659 68.0585 2.10659C67.2906 1.94909 66.5811 1.83487 65.943 1.74369C65.6236 1.70316 65.3222 1.66447 65.0397 1.62855C64.7572 1.60276 64.4936 1.57789 64.2513 1.55579C64.1298 1.54565 64.014 1.53552 63.9031 1.52631C63.7923 1.51986 63.6863 1.51434 63.5861 1.50881C63.3858 1.4996 63.2076 1.49223 63.0515 1.48486C62.7411 1.47105 62.5219 1.4775 62.4061 1.48671C62.2895 1.49684 62.2763 1.5125 62.374 1.5346C62.4718 1.55763 62.682 1.57973 63.0129 1.62579C63.3439 1.67092 63.7964 1.71237 64.3778 1.79619C64.6685 1.83579 64.9929 1.87264 65.3493 1.93251C65.7057 1.98961 66.0974 2.04211 66.5212 2.12317C69.4488 2.6141 72.1144 3.40899 74.4845 4.38072C75.6703 4.8652 76.7847 5.3893 77.8301 5.93457C78.873 6.48629 79.8453 7.06197 80.7528 7.64132C82.5594 8.81661 84.1042 10.0112 85.4017 11.1718C86.7016 12.3287 87.7659 13.433 88.6331 14.4269C89.5028 15.4179 90.1672 16.3095 90.6788 17.0464C90.9292 17.4204 91.1502 17.7473 91.3243 18.0467C91.5 18.3442 91.6412 18.6003 91.7496 18.8158C92.1701 19.6899 92.0757 19.899 91.5369 19.4559C91.367 19.3141 91.1879 19.1695 91.0073 19.0129C90.8258 18.8582 90.6443 18.6905 90.4554 18.521C90.0752 18.1849 89.6892 17.8118 89.2811 17.4323C88.4705 16.666 87.6124 15.8269 86.7172 14.997C85.8254 14.1644 84.9057 13.3308 84.0007 12.5488C83.0982 11.7631 82.1998 11.0447 81.3794 10.4073C79.723 9.13346 78.5807 8.46292 78.0674 8.17554C77.8071 8.04015 77.7003 8.0033 77.7471 8.06041C77.7931 8.11844 77.9943 8.26581 78.3376 8.52095C78.5076 8.64529 78.694 8.78253 78.8862 8.92346C79.075 9.06899 79.268 9.22004 79.4536 9.36833C79.5456 9.44294 79.6368 9.51571 79.7246 9.58755C79.8117 9.66031 79.8938 9.734 79.9718 9.80308C80.1278 9.94308 80.2642 10.072 80.3701 10.1826C80.582 10.4027 80.6657 10.5584 80.5393 10.574C80.412 10.5897 80.0671 10.4764 79.4175 10.1761C78.4682 9.74045 77.449 9.21267 76.301 8.62226C75.1529 8.0337 73.8743 7.38434 72.4043 6.73222C70.9344 6.08102 69.273 5.41969 67.3645 4.85876C66.8882 4.71139 66.3947 4.58612 65.888 4.45164C65.6343 4.38717 65.3756 4.33006 65.1136 4.26835C64.9822 4.23795 64.8508 4.20756 64.7178 4.17716C64.5847 4.15045 64.4501 4.12374 64.3154 4.09611C64.0452 4.04453 63.7717 3.98282 63.4934 3.93676C63.2141 3.88979 62.9325 3.84281 62.6467 3.79492C62.0735 3.71386 61.4847 3.6282 60.8778 3.57202C59.6813 3.4707 58.4667 3.4182 57.2439 3.44583C56.022 3.46978 54.7926 3.55452 53.5665 3.69913C52.3396 3.84466 51.1177 4.06111 49.908 4.32822C48.6976 4.59625 47.5002 4.92139 46.3259 5.30732C41.6187 6.82525 37.2983 9.24952 33.7597 12.0137C31.9851 13.3907 30.4092 14.8625 29.0361 16.3188C27.6688 17.7842 26.5067 19.2395 25.5541 20.6045C24.6007 21.9686 23.8559 23.2425 23.2999 24.3413C22.7439 25.4411 22.3662 26.3594 22.1584 27.0437C23.451 24.217 25.1115 21.5486 27.0266 19.1428C28.9408 16.7342 31.108 14.589 33.4058 12.7468C35.7043 10.9047 38.1343 9.36649 40.5856 8.13317C43.0378 6.90078 45.508 5.96128 47.9059 5.30916C50.308 4.64691 52.5203 4.29874 54.4411 4.15045C56.3636 3.99571 57.9962 4.04545 59.2731 4.16519C59.5926 4.20019 59.8899 4.23611 60.165 4.27203C60.3021 4.28861 60.4343 4.30888 60.56 4.3319C60.6856 4.35493 60.8055 4.37704 60.9205 4.3973C61.1488 4.44243 61.3541 4.48204 61.5356 4.52993C61.7162 4.57783 61.8739 4.6248 62.0061 4.67086C62.5358 4.85323 62.6713 5.01718 62.3765 5.14982C61.7852 5.41693 60.3834 5.53298 58.3591 5.70154C56.3348 5.88115 53.679 6.11786 50.5806 6.70827C50.5929 6.85012 50.5839 7.01315 50.3654 7.21579C50.2562 7.3171 50.0944 7.42763 49.8579 7.5529C49.6222 7.68369 49.311 7.8283 48.902 7.99041C48.0882 8.33397 46.8827 8.75674 45.1351 9.44386C43.3933 10.143 41.0956 11.0889 38.2049 12.7137C36.7506 13.5279 35.3348 14.4453 33.9781 15.4548C32.6215 16.4643 31.3314 17.576 30.1176 18.7559C29.8105 19.047 29.5198 19.3555 29.2233 19.6558C28.9293 19.9598 28.6468 20.2738 28.3602 20.5824C28.2214 20.7408 28.0827 20.9002 27.9439 21.0577C27.8059 21.2161 27.6655 21.3727 27.5333 21.5366C27.2672 21.8618 26.9954 22.1795 26.7416 22.513C25.7102 23.8283 24.7756 25.1961 23.9503 26.5924C22.3054 29.3897 21.1073 32.2957 20.3583 35.0654C19.6036 37.8369 19.2965 40.4629 19.2825 42.7352C18.959 45.6411 18.9976 48.5923 19.3745 51.5029C18.9655 50.1424 18.6239 48.677 18.3825 47.1149C18.1419 45.5527 18.0072 43.8948 18.0006 42.1586C17.9793 38.688 18.5048 34.895 19.7145 31.0532Z" fill="#434343"/>
<path d="M53.2731 38.525L52.2186 40.3423C51.2545 41.9579 50.4818 43.2759 49.8995 44.2965C49.3173 45.3179 48.8656 46.1478 48.5445 46.7871C48.2234 47.4263 48.0124 47.92 47.9122 48.2672C47.812 48.6154 47.7619 48.923 47.7627 49.192C47.7627 49.484 47.8391 49.7188 47.9902 49.8975C48.1413 50.0771 48.3376 50.1665 48.579 50.1656C48.9814 50.1646 49.4988 49.9123 50.1319 49.4066C50.7651 48.9018 51.4582 48.1668 52.2112 47.2015C52.9643 46.2372 53.7633 45.0591 54.6067 43.6674C55.4501 42.2766 56.2828 40.6951 57.1057 38.922L61.4811 38.782C61.3004 39.1182 61.0442 39.5677 60.7133 40.1286C60.3823 40.6895 60.0103 41.3011 59.5989 41.9625C59.1866 42.6247 58.7653 43.3257 58.3342 44.0662C57.9022 44.8067 57.5105 45.5187 57.1599 46.2031C56.8084 46.8875 56.5226 47.5267 56.3017 48.1208C56.0808 48.7158 55.9708 49.203 55.9716 49.5844C55.9716 49.8984 56.0323 50.1167 56.1531 50.2402C56.2738 50.3636 56.4347 50.4244 56.6359 50.4244C56.9776 50.4235 57.375 50.2669 57.8275 49.9519C58.28 49.6378 58.7621 49.2279 59.2745 48.7222C59.7869 48.2175 60.3092 47.6501 60.8414 47.0219C61.3735 46.3938 61.8761 45.7656 62.3483 45.1365C62.8197 44.5083 63.2566 43.9133 63.659 43.3524C64.0605 42.7914 64.3824 42.3318 64.6231 41.9726L64.8949 42.2416C64.5533 42.691 64.1615 43.2234 63.7197 43.8405C63.2779 44.4577 62.8008 45.1033 62.2883 45.7757C61.7759 46.449 61.2339 47.1168 60.6607 47.7791C60.0883 48.4413 59.5003 49.0308 58.8976 49.5466C58.2948 50.0633 57.6863 50.4842 57.0736 50.8103C56.4602 51.1354 55.8517 51.2994 55.2489 51.3003C54.8063 51.3012 54.4236 51.223 54.1017 51.0664C53.7798 50.9098 53.5178 50.697 53.3166 50.429C53.1154 50.16 52.9635 49.8524 52.8633 49.5051C52.7623 49.1579 52.7114 48.8051 52.7114 48.4459C52.7114 48.177 52.7409 47.908 52.8009 47.639C52.8608 47.3701 52.9208 47.1463 52.9815 46.9657L52.9216 46.8985C52.4798 47.4594 52.0273 48.0038 51.5658 48.5316C51.1034 49.0593 50.6214 49.5309 50.1188 49.9463C49.6162 50.3617 49.1038 50.6933 48.5815 50.9402C48.0584 51.187 47.5254 51.3114 46.9826 51.3123C46.1376 51.3132 45.5134 51.0397 45.111 50.4907C44.7086 49.9427 44.5066 49.2417 44.5058 48.3897C44.505 47.9412 44.5953 47.4309 44.776 46.8589C44.9566 46.2869 45.1874 45.6873 45.4683 45.0591C45.7491 44.431 46.0653 43.7917 46.4168 43.1405C46.7682 42.4902 47.1041 41.8787 47.426 41.3067C47.7471 40.7347 48.0436 40.2189 48.3146 39.7583C48.5856 39.2987 48.7909 38.934 48.9321 38.6641L53.2731 38.525Z" fill="#434343"/>
<path d="M78.4374 38.7601C78.2165 39.1193 77.9299 39.5798 77.5792 40.1398C77.2277 40.7008 76.8508 41.3068 76.4492 41.9571C76.0476 42.6083 75.6461 43.2862 75.2445 43.9936C74.8429 44.7001 74.4767 45.3899 74.1457 46.0633C73.8148 46.7366 73.5438 47.3647 73.3327 47.9478C73.1225 48.5317 73.0174 49.0245 73.0174 49.4279C73.0182 50.0782 73.2498 50.4034 73.7121 50.4024C74.1342 50.4015 74.6319 50.1777 75.2051 49.7282C75.7783 49.2796 76.4057 48.6791 77.0889 47.9266C77.7714 47.175 78.485 46.2935 79.2282 45.284C79.9714 44.2745 80.7245 43.2088 81.4882 42.0861L81.6697 42.2205C80.8665 43.3654 80.0831 44.4818 79.3202 45.5696C78.5565 46.6583 77.7985 47.6226 77.0454 48.4645C76.2915 49.3064 75.5385 49.9852 74.7846 50.5019C74.0307 51.0186 73.2621 51.2775 72.477 51.2784C71.7929 51.2793 71.2698 51.1568 70.9077 50.9109C70.5455 50.6649 70.2778 50.3564 70.107 49.987C69.9354 49.6177 69.8343 49.2308 69.804 48.8274C69.7736 48.424 69.758 48.0657 69.7572 47.7516L69.6668 47.6843C69.3449 48.1108 68.9992 48.5373 68.6272 48.9637C68.2552 49.3902 67.8487 49.7779 67.406 50.1252C66.9634 50.4734 66.501 50.7543 66.019 50.968C65.5361 51.1817 65.0237 51.2885 64.48 51.2894C63.5143 51.2903 62.7851 50.9726 62.2915 50.3343C61.798 49.696 61.5508 48.6708 61.5491 47.2579C61.5483 46.2714 61.7684 45.2564 62.2094 44.2137C62.6504 43.1702 63.2786 42.2168 64.0924 41.3529C64.9063 40.4889 65.8753 39.776 67.002 39.2132C68.1279 38.6514 69.3646 38.3695 70.7122 38.3677C71.4965 38.3668 72.0951 38.5841 72.5082 39.0207C72.9205 39.4573 73.1882 40.0007 73.3097 40.651H73.3697L74.1523 38.901L78.4374 38.7601ZM66.4698 49.8065C66.8919 49.8056 67.4348 49.5025 68.0983 48.8965C68.7618 48.2904 69.4139 47.5158 70.0569 46.5735C70.6991 45.6313 71.2518 44.6043 71.7133 43.4944C72.1748 42.3836 72.4047 41.3243 72.4039 40.3158C72.4031 39.8 72.2668 39.414 71.995 39.1561C71.7231 38.8991 71.416 38.7702 71.0744 38.7711C70.6523 38.772 70.2244 38.9295 69.7925 39.2436C69.3597 39.5586 68.9376 39.9796 68.5262 40.5064C68.1139 41.0342 67.7222 41.6292 67.351 42.2905C66.979 42.9528 66.653 43.6252 66.3729 44.3095C66.0921 44.9939 65.8712 45.6718 65.711 46.3451C65.5501 47.0184 65.4712 47.6125 65.4712 48.1274C65.4712 48.5087 65.5369 48.8836 65.6683 49.2539C65.8006 49.6223 66.0674 49.8074 66.4698 49.8065Z" fill="#434343"/>
<path d="M75.9471 50.8702L82.1801 38.957L86.4644 38.7498C85.0183 40.9935 83.6329 43.2824 82.3074 45.6155L82.3682 45.6827C82.8905 44.9422 83.4727 44.1454 84.1157 43.2925C84.7588 42.4396 85.4363 41.6484 86.1499 40.9189C86.8627 40.1894 87.5969 39.5778 88.3507 39.0832C89.1046 38.5895 89.8536 38.3417 90.5976 38.3399C91.3621 38.339 92.001 38.5564 92.5143 38.9929C93.0276 39.4295 93.2846 40.0964 93.2854 40.9926C93.2862 41.7322 93.0809 42.4949 92.6695 43.2805C92.2581 44.0662 91.8007 44.8344 91.2989 45.586C90.7963 46.3385 90.3397 47.056 89.9283 47.7404C89.5169 48.4247 89.3116 49.0253 89.3116 49.5402C89.3116 49.7649 89.3674 49.9602 89.4783 50.1287C89.5891 50.2964 89.7649 50.3802 90.0063 50.3802C90.4489 50.3793 90.9515 50.149 91.5141 49.6885C92.0766 49.2288 92.6596 48.6615 93.2624 47.9882C93.7248 47.4724 94.1863 46.9169 94.6486 46.3219C95.1101 45.7278 95.5421 45.1549 95.9445 44.6051C96.3461 44.0552 96.7074 43.5504 97.0293 43.0899C97.3504 42.6303 97.6017 42.2655 97.7824 41.9956L98.0542 42.1633C97.3709 43.1728 96.6425 44.2164 95.8698 45.294C95.0962 46.3708 94.3177 47.3591 93.5342 48.2562C92.7106 49.1994 91.9115 49.9344 91.1379 50.4622C90.3635 50.9899 89.5743 51.2543 88.7704 51.2552C87.8654 51.2561 87.1863 50.9595 86.733 50.3664C86.2796 49.7732 86.053 49.005 86.0513 48.0637C86.0505 47.2568 86.246 46.4886 86.6369 45.7592C87.0286 45.0306 87.4647 44.3453 87.9475 43.7061C88.4296 43.0669 88.8665 42.4774 89.2582 41.9385C89.6499 41.3997 89.8454 40.895 89.8454 40.4243C89.8445 39.797 89.5727 39.483 89.0299 39.4839C88.6677 39.4848 88.2251 39.693 87.7028 40.1074C87.1797 40.5229 86.6172 41.0672 86.0144 41.7405C85.4116 42.4138 84.799 43.1663 84.1765 43.9962C83.554 44.827 82.9661 45.6569 82.4142 46.4868C81.8615 47.3176 81.3795 48.1024 80.968 48.8429C80.5566 49.5835 80.2503 50.1886 80.0499 50.6602L75.9471 50.8702Z" fill="#434343"/>
<path d="M84.4523 13.6846C84.2708 13.7914 83.6935 14.1359 83.3149 14.6268C83.2476 14.7134 83.0004 14.9999 82.7746 15.4005C82.5693 15.7653 82.2712 16.0564 82.0864 16.4377C81.9566 16.6689 81.7669 16.8485 81.6364 17.0787C81.3892 17.5724 81.0377 17.9869 80.7675 18.4631C80.1163 19.6568 79.3197 20.7465 78.6899 21.9549C78.115 23.0565 77.5599 24.1692 77.0745 25.3224C77.0285 25.432 76.9834 25.5434 76.9612 25.6622C76.9423 25.7617 76.9292 25.8713 77.0318 25.9247C77.1222 25.9717 77.2092 25.933 77.2839 25.8658C77.3874 25.7737 77.4375 25.642 77.4958 25.5167C78.1988 23.9896 79.4331 23.331 80.8735 23.028C81.8712 22.818 82.878 22.9285 83.8807 22.9543C84.7036 22.9764 85.5215 22.9902 86.3337 22.7774C86.6121 22.7047 86.9554 22.6218 87.1344 22.9497C87.3126 23.2748 87.0235 23.4996 86.8642 23.7335C86.6228 24.09 86.2943 24.3598 85.9814 24.7688C86.5727 24.8655 87.1254 24.8987 87.6624 25.0184C87.8825 25.0672 88.1864 25.0304 88.2151 25.3831C88.2414 25.7046 87.977 25.8022 87.7667 25.9211C87.4612 26.0924 87.1327 26.2259 86.8675 26.5575C87.0827 26.7086 87.3126 26.6773 87.508 26.7592C87.646 26.8173 87.8078 26.8688 87.8341 27.042C87.8653 27.2502 87.7101 27.3607 87.5647 27.4556C87.4062 27.5587 87.242 27.6499 87.0629 27.6997C85.3877 28.1657 83.7748 28.7994 82.2835 29.7905C80.3085 31.1039 77.9278 29.2692 77.403 27.4132C77.371 27.2981 77.3439 27.182 77.3143 27.066C77.2568 26.8394 77.1599 26.6616 76.916 26.6423C76.645 26.622 76.5235 26.8071 76.4356 27.0475C76.209 27.6646 76.0185 28.2956 75.8361 28.9284C75.5931 29.773 75.3681 30.6231 75.1274 31.4687C74.9698 32.0213 74.895 32.5611 75.1907 33.0833C75.1907 33.1773 75.1627 33.2574 75.0921 33.3154C74.8811 33.3228 74.661 33.2574 74.652 33.6535C74.6429 34.0689 74.4885 34.4686 74.4384 34.8849C74.4146 35.0793 74.3859 35.2856 74.1929 35.3888C74.0623 35.3842 74.0081 35.2847 73.9671 35.1696C73.9153 34.1481 74.1806 33.169 74.3366 32.177C74.3612 32.0784 74.4138 31.9919 74.4384 31.8942C74.4458 31.8574 74.4918 31.8288 74.491 31.803C74.4877 31.7238 74.5255 31.7984 74.4532 31.8132C74.4122 31.9182 74.3744 32.0241 74.2988 32.1079C74.1223 32.2986 73.9769 32.5316 73.7191 32.6071C73.6033 32.62 73.508 32.5906 73.4612 32.4607C73.4374 32.2746 73.5548 32.165 73.655 32.0517C74.3489 31.2679 74.7916 30.3422 75.0297 29.2839C75.2096 28.4853 75.4518 27.7043 75.7277 26.9388C75.86 26.5723 75.8476 26.3226 75.5282 26.0703C74.8991 25.572 74.629 24.8443 74.5961 24.0006C74.624 23.763 74.5624 23.4977 74.7719 23.3144C74.955 23.2831 75.0051 23.4323 75.0634 23.5714C75.1874 23.9877 75.1299 24.4483 75.3311 24.8498C75.4461 25.0801 75.5684 25.2966 75.7491 25.4697C75.9955 25.7055 76.1811 25.7212 76.3207 25.3297C77.1156 23.1063 78.2866 21.1057 79.4462 19.0996C79.9652 18.173 80.568 17.3109 81.1494 16.4322C81.3703 16.0066 81.6971 15.664 81.9279 15.2458C82.0544 15.0662 82.2063 14.9087 82.3196 14.7226C82.2703 14.6342 82.2564 14.7567 82.2219 14.7466C81.6372 15.1113 81.0279 15.4245 80.5006 15.8887C80.3085 16.0389 80.1656 16.2516 79.9701 16.3972C79.2319 16.784 78.6628 17.4205 78.046 17.986C77.9401 18.1011 77.8317 18.2135 77.7208 18.3231C77.6091 18.4263 77.5122 18.546 77.4153 18.6658C77.2224 18.8776 77.0417 19.1023 76.8512 19.317C76.6927 19.4827 76.5867 19.69 76.4759 19.8926C76.3584 20.0953 76.2418 20.297 76.1293 20.5033C76.1055 20.5512 76.0784 20.5963 76.0497 20.6415C76.0226 20.6884 75.9914 20.7317 75.9585 20.7741C75.8871 20.8588 75.8082 20.9298 75.6965 20.9344C75.6128 20.9215 75.5553 20.8699 75.5175 20.7888C75.4264 20.3661 75.7343 20.1118 75.8731 19.7858C76.0784 19.4091 76.3166 19.0581 76.5703 18.7201C76.7551 18.4309 76.9899 18.1905 77.2018 17.928C77.3299 17.7806 77.4548 17.6277 77.5804 17.484C77.325 17.3845 77.068 17.484 76.8134 17.4711C76.503 17.4601 76.1917 17.472 75.8862 17.3993C75.4354 17.181 75.0708 17.2224 74.8433 17.7852C74.7636 17.9814 74.5953 18.1177 74.4401 18.2522C74.2684 18.3784 74.1132 18.5515 73.8792 18.5101C73.7076 18.5488 73.5359 18.5875 73.3643 18.6252C73.2419 18.5847 73.122 18.675 72.9997 18.6372C72.9315 18.6427 72.8625 18.6483 72.7944 18.6538C72.1046 18.7265 71.5289 18.3848 70.9622 18.0403C70.187 17.5688 69.5087 16.9378 68.768 16.4082C68.6735 16.3548 68.6169 16.2636 68.5659 16.166C68.4042 16.0398 68.2358 15.9219 68.0831 15.7837C67.9459 15.6603 67.9796 15.4862 68.1521 15.4079C68.2522 15.3628 68.359 15.3305 68.4658 15.3075C68.5898 15.2808 68.7162 15.2716 68.8419 15.2541C68.846 15.0726 68.7138 15.0644 68.6341 15.0109C68.2457 14.753 67.8482 14.5099 67.4606 14.2501C67.307 14.147 67.1658 14.018 67.0278 13.89C66.9301 13.7988 66.9613 13.6579 67.0812 13.6072C67.3243 13.505 67.5764 13.4645 67.8342 13.4746C68.235 13.4902 68.6349 13.5123 69.0349 13.5354C69.1071 13.5391 69.1786 13.5602 69.2549 13.4608C69.0176 13.1485 68.7762 12.8317 68.5347 12.5148C68.4649 12.4236 68.3869 12.338 68.3262 12.2394C68.2769 12.1602 68.2169 12.0653 68.2851 11.9668C68.3475 11.8765 68.4518 11.8765 68.5356 11.8986C68.7827 11.964 69.034 12.023 69.2689 12.1252C70.0482 12.4632 70.8514 12.7211 71.6496 12.9965C72.1349 13.1642 72.6153 13.353 73.0892 13.5556C73.5138 13.7371 73.9112 13.9821 74.2816 14.275C74.4286 14.3911 74.5707 14.5163 74.7094 14.6453C75.1956 15.0994 75.4732 15.6511 75.3557 16.3833C75.2826 16.6302 75.4338 16.6818 75.5988 16.7333C75.9101 16.8301 76.227 16.8577 76.5498 16.8347C76.9637 16.8255 77.3611 16.7389 77.7348 16.5335C77.7841 16.5012 77.8358 16.4745 77.8892 16.4506C78.6545 16.0812 79.4125 15.7073 80.1065 15.1721C81.0607 14.4353 82.0946 13.8421 83.1376 13.2738C83.3864 13.1568 83.6311 13.0288 83.8832 12.921C84.0376 12.8639 84.2043 12.8529 84.3521 12.77C84.3809 12.7377 84.4088 12.7055 84.4375 12.6732" fill="#434343"/>
</svg>
